SplineFontDB: 3.0
FontName: TamilNumFracs
FullName: TamilNumFracs
FamilyName: TamilNumFracs
Weight: Book
Copyright: Copyright (c) 2018, Coopon
Version: 001.000
ItalicAngle: 0
UnderlinePosition: -153
UnderlineWidth: 51
Ascent: 819
Descent: 205
InvalidEm: 0
sfntRevision: 0x00010000
LayerCount: 2
Layer: 0 1 "Back" 1
Layer: 1 1 "Fore" 0
XUID: [1021 542 -598677416 12753892]
StyleMap: 0x0000
FSType: 0
OS2Version: 4
OS2_WeightWidthSlopeOnly: 0
OS2_UseTypoMetrics: 1
CreationTime: 1539025073
ModificationTime: 1605508957
PfmFamily: 17
TTFWeight: 400
TTFWidth: 5
LineGap: 92
VLineGap: 0
Panose: 2 0 5 3 0 0 0 0 0 0
OS2TypoAscent: 819
OS2TypoAOffset: 0
OS2TypoDescent: -205
OS2TypoDOffset: 0
OS2TypoLinegap: 92
OS2WinAscent: 1128
OS2WinAOffset: 0
OS2WinDescent: 512
OS2WinDOffset: 0
HheadAscent: 1128
HheadAOffset: 0
HheadDescent: -512
HheadDOffset: 0
OS2SubXSize: 665
OS2SubYSize: 716
OS2SubXOff: 0
OS2SubYOff: 143
OS2SupXSize: 665
OS2SupYSize: 716
OS2SupXOff: 0
OS2SupYOff: 491
OS2StrikeYSize: 51
OS2StrikeYPos: 265
OS2Vendor: 'PfEd'
OS2CodePages: 00000001.00000000
OS2UnicodeRanges: 00108001.00000000.00000000.00000000
MarkAttachClasses: 1
DEI: 91125
ShortTable: cvt  2
  34
  648
EndShort
ShortTable: maxp 16
  1
  0
  89
  328
  5
  0
  0
  2
  0
  1
  1
  0
  64
  46
  0
  0
EndShort

StartChar: uni0905
Encoding: 2309 2309 1
Width: 1192
VWidth: 715
Flags: W
HStem: -80 56<734.974 990.551> 1 52<168.292 255.852> 8 59<348 400.651 462 588 764.623 875.312> 171 63<168.282 255.702> 185 54<804.156 888 948 1038.67> 305 58<804 888 948 1044> 321 61<189.053 381.688> 423 53<660.057 733.415>
VStem: 68 70<202 274.516> 272 60<68.4299 155.359> 432 68<100.561 267.905> 588 64<67 416.5> 644 58<-172 -108.023> 688 62<82.1592 169.448> 750 54<239 305 363 374> 888 60<80.5039 185 239 305> 1058 58<33.5431 167.18>
LayerCount: 2
Fore
SplineSet
888 239 m 1,0,-1
 888 305 l 1,1,-1
 804 305 l 1,2,-1
 804 239 l 1,3,-1
 888 239 l 1,0,-1
888 128 m 2,4,-1
 888 185 l 1,5,-1
 814 185 l 2,6,7
 787 185 787 185 768 168 c 0,8,9
 750 151.5 750 151.5 750 126 c 0,10,11
 750 99 750 99 774 81 c 128,-1,12
 798 63 798 63 828 63 c 0,13,14
 855 63 855 63 872 80 c 0,15,16
 888 96 888 96 888 128 c 2,4,-1
652 363 m 2,17,-1
 652 8 l 1,18,-1
 348 8 l 1,19,-1
 348 67 l 1,20,21
 386 67 386 67 409 99 c 128,-1,22
 432 131 432 131 432 181 c 0,23,24
 432 242 432 242 400 282 c 0,25,26
 368 321 368 321 294 321 c 0,27,28
 138 321 138 321 138 202 c 1,29,30
 172 234 172 234 224 234 c 0,31,32
 273 234 273 234 302 202 c 0,33,34
 332 169 332 169 332 112 c 0,35,36
 332 65 332 65 296 33 c 0,37,38
 259 1 259 1 208 1 c 0,39,40
 142 1 142 1 105 48 c 128,-1,41
 68 95 68 95 68 180 c 0,42,43
 68 280 68 280 130 331 c 128,-1,44
 192 382 192 382 300 382 c 0,45,46
 391 382 391 382 446 338 c 0,47,48
 500 294.5 500 294.5 500 185 c 0,49,50
 500 108 500 108 462 67 c 1,51,-1
 588 67 l 1,52,-1
 588 252 l 2,53,54
 588 381 588 381 610 430 c 0,55,56
 631 476 631 476 702 476 c 0,57,58
 728 476 728 476 748 464 c 0,59,60
 770 450 770 450 778 436 c 0,61,62
 784 425 784 425 792 403 c 0,63,64
 799 385 799 385 800 374 c 2,65,-1
 802 363 l 1,66,-1
 1044 363 l 1,67,-1
 1044 305 l 1,68,-1
 948 305 l 1,69,-1
 948 239 l 1,70,-1
 1010 239 l 2,71,72
 1059 239 1059 239 1088 198 c 0,73,74
 1116 158 1116 158 1116 102 c 0,75,76
 1116 18 1116 18 1058 -31 c 128,-1,77
 1000 -80 1000 -80 894 -80 c 2,78,-1
 816 -80 l 2,79,80
 765 -80 765 -80 734 -100 c 0,81,82
 702 -120 702 -120 702 -157 c 2,83,-1
 702 -172 l 1,84,-1
 644 -172 l 1,85,-1
 644 -152 l 2,86,87
 644 -93 644 -93 692 -58 c 0,88,89
 739 -24 739 -24 818 -24 c 2,90,-1
 910 -24 l 2,91,92
 961 -24 961 -24 1010 10 c 0,93,94
 1058 43 1058 43 1058 98 c 0,95,96
 1058 132 1058 132 1042 158 c 0,97,98
 1026 185 1026 185 998 185 c 2,99,-1
 948 185 l 1,100,-1
 948 115 l 2,101,102
 948 63 948 63 911 36 c 0,103,104
 872 8 872 8 824 8 c 0,105,106
 768 8 768 8 728 40 c 128,-1,107
 688 72 688 72 688 133 c 0,108,109
 688 193 688 193 750 229 c 1,110,-1
 750 305 l 2,111,112
 750 423 750 423 700 423 c 0,113,114
 652 423 652 423 652 363 c 2,17,-1
272 112 m 128,-1,116
 272 136 272 136 254 154 c 0,117,118
 237 171 237 171 212 171 c 128,-1,119
 187 171 187 171 170 154 c 0,120,121
 152 136 152 136 152 112 c 128,-1,122
 152 88 152 88 170 70 c 0,123,124
 187 53 187 53 212 53 c 128,-1,125
 237 53 237 53 254 70 c 0,126,115
 272 88 272 88 272 112 c 128,-1,116
EndSplineSet
Validated: 524289
EndChar

StartChar: uni0906
Encoding: 2310 2310 2
Width: 1140
VWidth: 774
Flags: W
LayerCount: 2
Fore
SplineSet
681.782226562 469.7890625 m 1,0,1
 686.376953125 488.16015625 686.376953125 488.16015625 709.995117188 511.780273438 c 1,2,3
 698.185546875 518.340820312 698.185546875 518.340820312 688.34375 518.340820312 c 2,4,-1
 681.782226562 518.340820312 l 2,5,6
 664.724609375 518.340820312 664.724609375 518.340820312 651.2734375 505.546875 c 128,-1,7
 637.825195312 492.752929688 637.825195312 492.752929688 634.54296875 475.694335938 c 0,8,9
 629.951171875 455.356445312 629.951171875 455.356445312 629.951171875 428.455078125 c 2,10,-1
 629.951171875 420.58203125 l 2,11,12
 629.951171875 406.803710938 629.951171875 406.803710938 652.2578125 286.081054688 c 0,13,14
 657.506835938 255.245117188 657.506835938 255.245117188 657.506835938 223.096679688 c 0,15,16
 657.506835938 177.82421875 657.506835938 177.82421875 645.041015625 139.771484375 c 0,17,18
 629.294921875 94.5 629.294921875 94.5 587.3046875 70.224609375 c 0,19,20
 547.282226562 45.29296875 547.282226562 45.29296875 498.73046875 45.29296875 c 0,21,22
 450.8359375 45.29296875 450.8359375 45.29296875 414.75 82.6904296875 c 0,23,24
 384.569335938 117.463867188 384.569335938 117.463867188 384.569335938 165.359375 c 2,25,-1
 384.569335938 171.919921875 l 1,26,27
 389.162109375 202.100585938 389.162109375 202.100585938 410.157226562 224.408203125 c 0,28,29
 414.75 231.625 414.75 231.625 449.5234375 267.7109375 c 0,30,31
 498.73046875 316.918945312 498.73046875 316.918945312 498.73046875 356.28515625 c 0,32,33
 498.73046875 386.46484375 498.73046875 386.46484375 471.174804688 422.55078125 c 0,34,35
 450.1796875 448.793945312 450.1796875 448.793945312 421.966796875 456.666992188 c 1,36,37
 434.432617188 432.391601562 434.432617188 432.391601562 434.432617188 404.178710938 c 0,38,39
 434.432617188 367.438476562 434.432617188 367.438476562 412.125 339.8828125 c 0,40,41
 389.162109375 311.013671875 389.162109375 311.013671875 358.982421875 311.013671875 c 0,42,43
 326.833007812 311.013671875 326.833007812 311.013671875 307.805664062 333.9765625 c 1,44,45
 283.529296875 358.251953125 283.529296875 358.251953125 283.529296875 404.178710938 c 0,46,47
 283.529296875 450.762695312 283.529296875 450.762695312 311.0859375 475.694335938 c 0,48,49
 337.986328125 497.345703125 337.986328125 497.345703125 384.569335938 497.345703125 c 0,50,51
 423.279296875 497.345703125 423.279296875 497.345703125 449.1953125 486.84765625 c 128,-1,52
 475.111328125 476.349609375 475.111328125 476.349609375 498.73046875 448.138671875 c 0,53,54
 531.536132812 410.740234375 531.536132812 410.740234375 531.536132812 359.564453125 c 0,55,56
 531.536132812 327.416015625 531.536132812 327.416015625 515.1328125 295.266601562 c 128,-1,57
 498.73046875 263.1171875 498.73046875 263.1171875 469.862304688 238.841796875 c 0,58,59
 452.8046875 224.408203125 452.8046875 224.408203125 433.77734375 198.821289062 c 0,60,61
 418.030273438 181.104492188 418.030273438 181.104492188 418.030273438 167.983398438 c 2,62,-1
 418.030273438 165.359375 l 2,63,64
 418.030273438 133.866210938 418.030273438 133.866210938 439.682617188 110.247070312 c 0,65,66
 461.333007812 84.6591796875 461.333007812 84.6591796875 498.73046875 84.6591796875 c 0,67,68
 536.78515625 84.6591796875 536.78515625 84.6591796875 570.90234375 102.373046875 c 1,69,70
 602.395507812 123.368164062 602.395507812 123.368164062 612.891601562 154.861328125 c 0,71,72
 622.733398438 185.041992188 622.733398438 185.041992188 622.733398438 223.096679688 c 0,73,74
 622.733398438 251.963867188 622.733398438 251.963867188 618.140625 278.864257812 c 0,75,76
 597.145507812 394.993164062 597.145507812 394.993164062 597.145507812 419.26953125 c 2,77,-1
 597.145507812 431.080078125 l 2,78,79
 597.145507812 462.572265625 597.145507812 462.572265625 601.083007812 484.223632812 c 0,80,81
 610.923828125 524.245117188 610.923828125 524.245117188 637.825195312 541.959960938 c 0,82,83
 661.444335938 557.706054688 661.444335938 557.706054688 681.782226562 557.706054688 c 2,84,-1
 686.376953125 557.706054688 l 1,85,-1
 690.3125 557.706054688 l 2,86,87
 712.620117188 557.706054688 712.620117188 557.706054688 742.80078125 538.024414062 c 1,88,89
 769.044921875 554.426757812 769.044921875 554.426757812 795.288085938 554.426757812 c 2,90,-1
 799.880859375 554.426757812 l 2,91,92
 833.341796875 554.426757812 833.341796875 554.426757812 854.993164062 541.959960938 c 0,93,94
 892.390625 521.62109375 892.390625 521.62109375 898.295898438 473.725585938 c 1,95,-1
 898.295898438 456.666992188 l 2,96,97
 898.295898438 420.58203125 898.295898438 420.58203125 871.395507812 360.876953125 c 1,98,-1
 1094.47070312 360.876953125 l 1,99,-1
 1094.47070312 324.135742188 l 1,100,-1
 810.377929688 324.135742188 l 1,101,102
 825.469726562 343.163085938 825.469726562 343.163085938 849.087890625 392.370117188 c 0,103,104
 865.490234375 428.455078125 865.490234375 428.455078125 865.490234375 456.666992188 c 2,105,-1
 865.490234375 467.821289062 l 2,106,107
 865.490234375 489.47265625 865.490234375 489.47265625 839.903320312 505.875 c 0,108,109
 817.596679688 518.340820312 817.596679688 518.340820312 799.880859375 518.340820312 c 2,110,-1
 795.288085938 518.340820312 l 2,111,112
 792.6640625 518.340820312 792.6640625 518.340820312 790.3671875 517.35546875 c 128,-1,113
 788.071289062 516.373046875 788.071289062 516.373046875 784.462890625 514.404296875 c 128,-1,114
 780.854492188 512.435546875 780.854492188 512.435546875 778.23046875 511.780273438 c 1,115,116
 780.854492188 509.811523438 780.854492188 509.811523438 784.134765625 505.21875 c 2,117,-1
 787.415039062 499.969726562 l 1,118,119
 805.78515625 477.005859375 805.78515625 477.005859375 805.78515625 448.138671875 c 0,120,121
 805.78515625 419.926757812 805.78515625 419.926757812 790.6953125 398.930664062 c 0,122,123
 773.635742188 375.311523438 773.635742188 375.311523438 744.768554688 375.311523438 c 128,-1,124
 715.899414062 375.311523438 715.899414062 375.311523438 696.873046875 400.899414062 c 0,125,126
 681.782226562 419.926757812 681.782226562 419.926757812 681.782226562 448.138671875 c 2,127,-1
 681.782226562 469.7890625 l 1,0,1
742.80078125 493.409179688 m 1,128,129
 716.555664062 471.102539062 716.555664062 471.102539062 716.555664062 448.138671875 c 0,130,131
 716.555664062 440.264648438 716.555664062 440.264648438 723.7734375 424.518554688 c 0,132,133
 730.990234375 414.676757812 730.990234375 414.676757812 744.768554688 414.676757812 c 128,-1,134
 758.546875 414.676757812 758.546875 414.676757812 765.108398438 423.862304688 c 0,135,136
 771.668945312 435.016601562 771.668945312 435.016601562 771.668945312 448.138671875 c 128,-1,137
 771.668945312 461.260742188 771.668945312 461.260742188 762.482421875 475.694335938 c 1,138,139
 751.329101562 486.84765625 751.329101562 486.84765625 742.80078125 493.409179688 c 1,128,129
362.26171875 456.666992188 m 0,140,141
 347.171875 454.04296875 347.171875 454.04296875 332.081054688 444.858398438 c 1,142,143
 318.302734375 431.736328125 318.302734375 431.736328125 318.302734375 404.178710938 c 0,144,145
 318.302734375 375.967773438 318.302734375 375.967773438 330.112304688 363.501953125 c 0,146,147
 341.923828125 349.723632812 341.923828125 349.723632812 358.982421875 349.723632812 c 0,148,149
 372.759765625 349.723632812 372.759765625 349.723632812 387.194335938 367.438476562 c 0,150,151
 401.627929688 383.83984375 401.627929688 383.83984375 401.627929688 404.178710938 c 0,152,153
 401.627929688 423.206054688 401.627929688 423.206054688 389.818359375 440.264648438 c 0,154,155
 376.6953125 456.666992188 376.6953125 456.666992188 362.26171875 456.666992188 c 0,140,141
EndSplineSet
Validated: 524289
EndChar

StartChar: uni0907
Encoding: 2311 2311 3
Width: 1009
VWidth: 801
Flags: W
LayerCount: 2
Fore
SplineSet
573.915039062 688.5390625 m 0,0,1
 633.620117188 688.5390625 633.620117188 688.5390625 691.35546875 664.263671875 c 128,-1,2
 749.092773438 639.98828125 749.092773438 639.98828125 793.37890625 599.965820312 c 128,-1,3
 837.666992188 559.943359375 837.666992188 559.943359375 864.895507812 504.17578125 c 128,-1,4
 892.123046875 448.40625 892.123046875 448.40625 892.123046875 389.357421875 c 0,5,6
 892.123046875 342.7734375 892.123046875 342.7734375 885.561523438 299.799804688 c 128,-1,7
 879.000976562 256.82421875 879.000976562 256.82421875 862.598632812 214.506835938 c 128,-1,8
 846.1953125 172.188476562 846.1953125 172.188476562 821.264648438 141.3515625 c 128,-1,9
 796.33203125 110.514648438 796.33203125 110.514648438 756.309570312 91.48828125 c 128,-1,10
 716.288085938 72.4609375 716.288085938 72.4609375 665.768554688 72.4609375 c 0,11,12
 604.095703125 72.4609375 604.095703125 72.4609375 561.44921875 109.858398438 c 0,13,14
 514.208984375 150.537109375 514.208984375 150.537109375 501.416015625 223.692382812 c 128,-1,15
 488.622070312 296.846679688 488.622070312 296.846679688 519.458007812 367.706054688 c 1,16,-1
 373.1484375 367.706054688 l 1,17,-1
 373.1484375 75.0849609375 l 1,18,-1
 373.1484375 72.4609375 l 1,19,-1
 370.5234375 72.4609375 l 1,20,-1
 330.500976562 72.4609375 l 1,21,-1
 327.876953125 72.4609375 l 1,22,-1
 327.876953125 75.0849609375 l 1,23,-1
 327.876953125 412.9765625 l 1,24,-1
 327.876953125 415.6015625 l 1,25,-1
 330.500976562 415.6015625 l 1,26,-1
 690.044921875 415.6015625 l 1,27,-1
 692.668945312 415.6015625 l 1,28,-1
 692.668945312 412.9765625 l 1,29,-1
 692.668945312 370.331054688 l 1,30,-1
 692.668945312 367.706054688 l 1,31,-1
 690.044921875 367.706054688 l 1,32,-1
 573.915039062 367.706054688 l 1,33,34
 551.607421875 335.556640625 551.607421875 335.556640625 547.998046875 292.91015625 c 128,-1,35
 544.389648438 250.263671875 544.389648438 250.263671875 556.856445312 213.522460938 c 128,-1,36
 569.322265625 176.78125 569.322265625 176.78125 598.190429688 151.521484375 c 128,-1,37
 627.05859375 126.26171875 627.05859375 126.26171875 664.45703125 126.26171875 c 0,38,39
 708.415039062 126.26171875 708.415039062 126.26171875 741.219726562 141.3515625 c 128,-1,40
 774.025390625 156.442382812 774.025390625 156.442382812 793.37890625 180.717773438 c 128,-1,41
 812.734375 204.994140625 812.734375 204.994140625 824.544921875 240.422851562 c 128,-1,42
 836.354492188 275.852539062 836.354492188 275.852539062 840.291992188 310.625 c 128,-1,43
 844.227539062 345.3984375 844.227539062 345.3984375 844.227539062 388.044921875 c 0,44,45
 844.227539062 441.189453125 844.227539062 441.189453125 818.967773438 490.068359375 c 128,-1,46
 793.708007812 538.947265625 793.708007812 538.947265625 754.670898438 572.409179688 c 128,-1,47
 715.631835938 605.87109375 715.631835938 605.87109375 667.408203125 625.552734375 c 128,-1,48
 619.185546875 645.236328125 619.185546875 645.236328125 573.2578125 645.236328125 c 0,49,50
 548.982421875 645.236328125 548.982421875 645.236328125 525.03515625 639.659179688 c 128,-1,51
 501.087890625 634.08203125 501.087890625 634.08203125 482.388671875 624.896484375 c 128,-1,52
 463.690429688 615.712890625 463.690429688 615.712890625 446.958984375 603.90234375 c 128,-1,53
 430.229492188 592.091796875 430.229492188 592.091796875 418.419921875 579.626953125 c 128,-1,54
 406.609375 567.16015625 406.609375 567.16015625 398.735351562 555.678710938 c 128,-1,55
 390.862304688 544.196289062 390.862304688 544.196289062 388.23828125 535.01171875 c 1,56,57
 355.432617188 545.509765625 355.432617188 545.509765625 341.655273438 548.133789062 c 1,58,59
 361.338867188 588.154296875 361.338867188 588.154296875 395.126953125 619.6484375 c 128,-1,60
 428.916015625 651.141601562 428.916015625 651.141601562 475.828125 669.83984375 c 128,-1,61
 522.73828125 688.5390625 522.73828125 688.5390625 573.915039062 688.5390625 c 0,0,1
EndSplineSet
Validated: 524321
EndChar

StartChar: uni0908
Encoding: 2312 2312 4
Width: 683
VWidth: 760
Flags: W
LayerCount: 2
Fore
SplineSet
579.9296875 412.688476562 m 0,0,1
 579.9296875 398.91015625 579.9296875 398.91015625 575.009765625 385.4609375 c 128,-1,2
 570.087890625 372.010742188 570.087890625 372.010742188 562.872070312 361.184570312 c 128,-1,3
 555.654296875 350.359375 555.654296875 350.359375 542.532226562 338.221679688 c 128,-1,4
 529.41015625 326.083984375 529.41015625 326.083984375 518.256835938 317.553710938 c 128,-1,5
 507.102539062 309.025390625 507.102539062 309.025390625 488.732421875 297.215820312 c 128,-1,6
 470.360351562 285.40625 470.360351562 285.40625 458.223632812 278.516601562 c 128,-1,7
 446.084960938 271.626953125 446.084960938 271.626953125 425.08984375 259.817382812 c 128,-1,8
 404.095703125 248.006835938 404.095703125 248.006835938 393.59765625 242.102539062 c 0,9,10
 385.724609375 237.510742188 385.724609375 237.510742188 366.041015625 226.357421875 c 128,-1,11
 346.358398438 215.203125 346.358398438 215.203125 338.15625 209.954101562 c 128,-1,12
 329.955078125 204.706054688 329.955078125 204.706054688 314.537109375 194.864257812 c 128,-1,13
 299.119140625 185.022460938 299.119140625 185.022460938 291.90234375 177.4765625 c 128,-1,14
 284.684570312 169.932617188 284.684570312 169.932617188 276.15625 159.762695312 c 128,-1,15
 267.626953125 149.592773438 267.626953125 149.592773438 264.345703125 138.439453125 c 128,-1,16
 261.064453125 127.28515625 261.064453125 127.28515625 261.064453125 115.475585938 c 0,17,18
 261.064453125 86.607421875 261.064453125 86.607421875 282.060546875 59.05078125 c 128,-1,19
 303.055664062 31.4951171875 303.055664062 31.4951171875 333.891601562 14.4365234375 c 128,-1,20
 364.729492188 -2.623046875 364.729492188 -2.623046875 394.25390625 -2.623046875 c 0,21,22
 463.143554688 -2.623046875 463.143554688 -2.623046875 511.0390625 34.7744140625 c 128,-1,23
 558.935546875 72.1728515625 558.935546875 72.1728515625 558.935546875 135.159179688 c 0,24,25
 558.935546875 152.873046875 558.935546875 152.873046875 555.982421875 165.995117188 c 128,-1,26
 553.029296875 179.1171875 553.029296875 179.1171875 544.828125 191.912109375 c 128,-1,27
 536.627929688 204.706054688 536.627929688 204.706054688 529.73828125 213.234375 c 128,-1,28
 522.849609375 221.762695312 522.849609375 221.762695312 507.102539062 238.822265625 c 128,-1,29
 491.35546875 255.880859375 491.35546875 255.880859375 480.203125 269.002929688 c 1,30,-1
 520.880859375 292.622070312 l 1,31,32
 532.034179688 278.188476562 532.034179688 278.188476562 549.092773438 258.833984375 c 128,-1,33
 566.151367188 239.479492188 566.151367188 239.479492188 573.696289062 229.963867188 c 128,-1,34
 581.2421875 220.452148438 581.2421875 220.452148438 589.770507812 205.361328125 c 128,-1,35
 598.30078125 190.270507812 598.30078125 190.270507812 601.580078125 173.869140625 c 128,-1,36
 604.862304688 157.466796875 604.862304688 157.466796875 604.862304688 134.50390625 c 0,37,38
 604.862304688 77.421875 604.862304688 77.421875 576.321289062 36.416015625 c 128,-1,39
 547.78125 -4.5908203125 547.78125 -4.5908203125 500.541992188 -24.2744140625 c 128,-1,40
 453.302734375 -43.95703125 453.302734375 -43.95703125 391.62890625 -43.95703125 c 0,41,42
 347.013671875 -43.95703125 347.013671875 -43.95703125 306.3359375 -22.9609375 c 128,-1,43
 265.658203125 -1.9658203125 265.658203125 -1.9658203125 240.397460938 35.431640625 c 128,-1,44
 215.137695312 72.8291015625 215.137695312 72.8291015625 215.137695312 116.787109375 c 0,45,46
 215.137695312 181.7421875 215.137695312 181.7421875 287.309570312 229.63671875 c 0,47,48
 310.272460938 245.383789062 310.272460938 245.383789062 370.634765625 276.219726562 c 0,49,50
 393.59765625 287.373046875 393.59765625 287.373046875 407.703125 295.247070312 c 128,-1,51
 421.809570312 303.12109375 421.809570312 303.12109375 444.4453125 315.9140625 c 128,-1,52
 467.080078125 328.70703125 467.080078125 328.70703125 481.1875 339.206054688 c 128,-1,53
 495.29296875 349.703125 495.29296875 349.703125 509.727539062 362.825195312 c 128,-1,54
 524.161132812 375.947265625 524.161132812 375.947265625 531.05078125 389.069335938 c 128,-1,55
 537.939453125 402.19140625 537.939453125 402.19140625 537.939453125 415.313476562 c 0,56,57
 537.939453125 432.372070312 537.939453125 432.372070312 534.002929688 446.805664062 c 128,-1,58
 530.06640625 461.240234375 530.06640625 461.240234375 524.489257812 471.41015625 c 128,-1,59
 518.912109375 481.579101562 518.912109375 481.579101562 508.415039062 490.109375 c 128,-1,60
 497.916992188 498.638671875 497.916992188 498.638671875 489.388671875 503.559570312 c 128,-1,61
 480.859375 508.479492188 480.859375 508.479492188 465.768554688 513.400390625 c 128,-1,62
 450.677734375 518.321289062 450.677734375 518.321289062 442.1484375 520.6171875 c 128,-1,63
 433.620117188 522.9140625 433.620117188 522.9140625 417.217773438 526.849609375 c 0,64,65
 414.591796875 526.849609375 414.591796875 526.849609375 413.280273438 527.506835938 c 1,66,67
 429.68359375 499.951171875 429.68359375 499.951171875 430.995117188 467.473632812 c 128,-1,68
 432.307617188 434.995117188 432.307617188 434.995117188 421.809570312 408.424804688 c 128,-1,69
 411.3125 381.852539062 411.3125 381.852539062 389.004882812 363.481445312 c 128,-1,70
 366.697265625 345.110351562 366.697265625 345.110351562 337.829101562 345.110351562 c 0,71,72
 294.525390625 345.110351562 294.525390625 345.110351562 263.033203125 380.541015625 c 128,-1,73
 231.541015625 415.969726562 231.541015625 415.969726562 232.852539062 460.584960938 c 0,74,75
 234.165039062 494.701171875 234.165039062 494.701171875 246.631835938 518.977539062 c 128,-1,76
 259.096679688 543.252929688 259.096679688 543.252929688 280.748046875 556.046875 c 128,-1,77
 302.400390625 568.841796875 302.400390625 568.841796875 331.267578125 569.497070312 c 0,78,79
 333.236328125 569.497070312 333.236328125 569.497070312 337.829101562 569.497070312 c 0,80,81
 350.951171875 568.841796875 350.951171875 568.841796875 370.305664062 570.15234375 c 128,-1,82
 389.66015625 571.46484375 389.66015625 571.46484375 412.623046875 568.184570312 c 128,-1,83
 435.587890625 564.904296875 435.587890625 564.904296875 458.879882812 560.640625 c 128,-1,84
 482.170898438 556.375 482.170898438 556.375 503.822265625 544.237304688 c 128,-1,85
 525.474609375 532.099609375 525.474609375 532.099609375 542.532226562 516.025390625 c 128,-1,86
 559.590820312 499.951171875 559.590820312 499.951171875 569.760742188 473.377929688 c 128,-1,87
 579.9296875 446.805664062 579.9296875 446.805664062 579.9296875 412.688476562 c 0,0,1
282.060546875 465.176757812 m 0,88,89
 282.060546875 433.028320312 282.060546875 433.028320312 295.838867188 414.985351562 c 128,-1,90
 309.616210938 396.943359375 309.616210938 396.943359375 337.829101562 396.943359375 c 0,91,92
 360.135742188 396.943359375 360.135742188 396.943359375 373.5859375 418.265625 c 128,-1,93
 387.037109375 439.58984375 387.037109375 439.58984375 387.037109375 465.176757812 c 0,94,95
 387.037109375 492.732421875 387.037109375 492.732421875 370.634765625 508.15234375 c 128,-1,96
 354.231445312 523.569335938 354.231445312 523.569335938 334.548828125 522.9140625 c 128,-1,97
 314.865234375 522.2578125 314.865234375 522.2578125 298.462890625 506.83984375 c 128,-1,98
 282.060546875 491.420898438 282.060546875 491.420898438 282.060546875 465.176757812 c 0,88,89
EndSplineSet
Validated: 524321
EndChar

StartChar: uni0909
Encoding: 2313 2313 5
Width: 1149
VWidth: 787
Flags: W
LayerCount: 2
Fore
SplineSet
527.6953125 372.3203125 m 1,0,-1
 654.978515625 372.3203125 l 1,1,-1
 654.978515625 544.875 l 1,2,-1
 527.6953125 544.875 l 1,3,-1
 527.6953125 372.3203125 l 1,0,-1
526.3828125 140.060546875 m 0,4,5
 538.848632812 140.060546875 538.848632812 140.060546875 552.626953125 142.686523438 c 128,-1,6
 566.403320312 145.310546875 566.403320312 145.310546875 580.838867188 150.55859375 c 128,-1,7
 595.272460938 155.80859375 595.272460938 155.80859375 608.395507812 165.321289062 c 128,-1,8
 621.517578125 174.833984375 621.517578125 174.833984375 632.013671875 186.97265625 c 128,-1,9
 642.51171875 199.110351562 642.51171875 199.110351562 648.745117188 216.825195312 c 128,-1,10
 654.978515625 234.540039062 654.978515625 234.540039062 654.978515625 255.53515625 c 2,11,-1
 654.978515625 322.45703125 l 1,12,13
 644.48046875 323.76953125 644.48046875 323.76953125 635.294921875 324.75390625 c 128,-1,14
 626.109375 325.73828125 626.109375 325.73828125 617.251953125 326.393554688 c 128,-1,15
 608.395507812 327.048828125 608.395507812 327.048828125 599.865234375 327.377929688 c 128,-1,16
 591.3359375 327.706054688 591.3359375 327.706054688 583.134765625 328.034179688 c 128,-1,17
 574.93359375 328.362304688 574.93359375 328.362304688 567.716796875 328.362304688 c 0,18,19
 491.609375 328.362304688 491.609375 328.362304688 457.1640625 305.071289062 c 128,-1,20
 422.71875 281.778320312 422.71875 281.778320312 422.71875 233.883789062 c 0,21,22
 422.71875 192.549804688 422.71875 192.549804688 454.540039062 166.305664062 c 128,-1,23
 486.360351562 140.060546875 486.360351562 140.060546875 526.3828125 140.060546875 c 0,4,5
731.084960938 322.45703125 m 2,24,-1
 698.936523438 322.45703125 l 1,25,-1
 698.936523438 255.53515625 l 2,26,27
 698.936523438 211.577148438 698.936523438 211.577148438 672.692382812 173.522460938 c 128,-1,28
 646.44921875 135.46875 646.44921875 135.46875 606.75390625 114.473632812 c 128,-1,29
 567.060546875 93.478515625 567.060546875 93.478515625 526.3828125 93.478515625 c 0,30,31
 461.427734375 93.478515625 461.427734375 93.478515625 417.469726562 131.532226562 c 128,-1,32
 373.510742188 169.5859375 373.510742188 169.5859375 373.510742188 233.883789062 c 0,33,34
 373.510742188 287.68359375 373.510742188 287.68359375 403.69140625 326.393554688 c 128,-1,35
 433.873046875 365.104492188 433.873046875 365.104492188 482.423828125 372.3203125 c 1,36,-1
 482.423828125 586.866210938 l 1,37,-1
 482.423828125 587.521484375 l 1,38,-1
 483.080078125 587.521484375 l 1,39,-1
 805.224609375 587.521484375 l 1,40,-1
 805.880859375 587.521484375 l 1,41,-1
 805.880859375 586.866210938 l 1,42,-1
 805.880859375 545.53125 l 1,43,-1
 805.880859375 544.875 l 1,44,-1
 805.224609375 544.875 l 1,45,-1
 698.936523438 544.875 l 1,46,-1
 698.936523438 372.3203125 l 1,47,48
 706.153320312 372.3203125 706.153320312 372.3203125 719.604492188 372.3203125 c 128,-1,49
 733.053710938 372.3203125 733.053710938 372.3203125 741.583984375 372.3203125 c 128,-1,50
 750.112304688 372.3203125 750.112304688 372.3203125 762.90625 372.3203125 c 128,-1,51
 775.700195312 372.3203125 775.700195312 372.3203125 784.556640625 372.6484375 c 128,-1,52
 793.415039062 372.9765625 793.415039062 372.9765625 803.912109375 373.961914062 c 128,-1,53
 814.41015625 374.9453125 814.41015625 374.9453125 820.970703125 375.928710938 c 128,-1,54
 827.532226562 376.9140625 827.532226562 376.9140625 833.764648438 378.8828125 c 128,-1,55
 839.998046875 380.849609375 839.998046875 380.849609375 842.951171875 383.474609375 c 128,-1,56
 845.903320312 386.098632812 845.903320312 386.098632812 845.903320312 389.379882812 c 2,57,-1
 845.903320312 528.47265625 l 1,58,-1
 845.903320312 529.12890625 l 1,59,-1
 846.559570312 529.12890625 l 1,60,-1
 889.862304688 529.12890625 l 1,61,-1
 890.517578125 529.12890625 l 1,62,-1
 890.517578125 528.47265625 l 1,63,-1
 890.517578125 392.00390625 l 2,64,65
 891.173828125 388.723632812 891.173828125 388.723632812 893.470703125 385.115234375 c 128,-1,66
 895.766601562 381.505859375 895.766601562 381.505859375 900.6875 374.2890625 c 128,-1,67
 905.608398438 367.072265625 905.608398438 367.072265625 913.809570312 362.479492188 c 128,-1,68
 922.010742188 357.88671875 922.010742188 357.88671875 931.1953125 357.88671875 c 0,69,70
 941.037109375 357.88671875 941.037109375 357.88671875 949.23828125 361.166992188 c 128,-1,71
 957.439453125 364.447265625 957.439453125 364.447265625 961.376953125 369.041015625 c 128,-1,72
 965.3125 373.6328125 965.3125 373.6328125 968.265625 379.209960938 c 128,-1,73
 971.21875 384.786132812 971.21875 384.786132812 971.875 387.083984375 c 128,-1,74
 972.530273438 389.379882812 972.530273438 389.379882812 973.186523438 390.69140625 c 2,75,-1
 973.186523438 528.47265625 l 1,76,-1
 973.186523438 529.12890625 l 1,77,-1
 973.842773438 529.12890625 l 1,78,-1
 1015.83203125 529.12890625 l 1,79,-1
 1016.48925781 529.12890625 l 1,80,-1
 1016.48925781 528.47265625 l 1,81,-1
 1016.48925781 94.791015625 l 1,82,-1
 1016.48925781 94.134765625 l 1,83,-1
 1015.83203125 94.134765625 l 1,84,-1
 973.842773438 94.134765625 l 1,85,-1
 973.186523438 94.134765625 l 1,86,-1
 973.186523438 94.791015625 l 1,87,-1
 973.186523438 332.955078125 l 1,88,89
 952.190429688 316.552734375 952.190429688 316.552734375 931.1953125 316.552734375 c 0,90,91
 918.07421875 316.552734375 918.07421875 316.552734375 902.654296875 323.76953125 c 128,-1,92
 887.237304688 330.986328125 887.237304688 330.986328125 880.34765625 336.235351562 c 128,-1,93
 873.458984375 341.484375 873.458984375 341.484375 868.2109375 345.420898438 c 1,94,95
 862.3046875 340.170898438 862.3046875 340.170898438 855.416015625 335.908203125 c 128,-1,96
 848.52734375 331.642578125 848.52734375 331.642578125 838.358398438 329.017578125 c 128,-1,97
 828.1875 326.393554688 828.1875 326.393554688 821.298828125 325.081054688 c 128,-1,98
 814.41015625 323.76953125 814.41015625 323.76953125 800.303710938 323.11328125 c 128,-1,99
 786.198242188 322.45703125 786.198242188 322.45703125 779.96484375 322.12890625 c 128,-1,100
 773.732421875 321.80078125 773.732421875 321.80078125 755.689453125 322.12890625 c 128,-1,101
 737.647460938 322.45703125 737.647460938 322.45703125 731.084960938 322.45703125 c 2,24,-1
EndSplineSet
Validated: 524289
EndChar

StartChar: uni090A
Encoding: 2314 2314 6
Width: 1307
VWidth: 784
Flags: W
LayerCount: 2
Fore
SplineSet
481.6328125 355.275390625 m 1,0,-1
 587.920898438 355.275390625 l 1,1,-1
 587.920898438 505.522460938 l 1,2,-1
 481.6328125 505.522460938 l 1,3,-1
 481.6328125 355.275390625 l 1,0,-1
490.818359375 155.165039062 m 0,4,5
 530.840820312 155.165039062 530.840820312 155.165039062 557.741210938 179.440429688 c 0,6,7
 587.920898438 205.684570312 587.920898438 205.684570312 587.920898438 240.458007812 c 2,8,-1
 587.920898438 311.973632812 l 1,9,-1
 426.521484375 311.973632812 l 2,10,11
 401.58984375 311.973632812 401.58984375 311.973632812 388.466796875 299.506835938 c 0,12,13
 375.345703125 285.729492188 375.345703125 285.729492188 375.345703125 260.796875 c 0,14,15
 375.345703125 213.55859375 375.345703125 213.55859375 408.149414062 186.001953125 c 0,16,17
 443.579101562 155.165039062 443.579101562 155.165039062 490.818359375 155.165039062 c 0,4,5
767.692382812 342.153320312 m 2,18,19
 769.66015625 312.62890625 769.66015625 312.62890625 783.439453125 285.072265625 c 0,20,21
 797.873046875 251.611328125 797.873046875 251.611328125 825.428710938 230.615234375 c 0,22,23
 856.922851562 205.684570312 856.922851562 205.684570312 885.791015625 205.684570312 c 0,24,25
 923.1875 205.684570312 923.1875 205.684570312 946.151367188 222.743164062 c 0,26,27
 976.33203125 245.05078125 976.33203125 245.05078125 977.64453125 275.887695312 c 2,28,29
 977.64453125 275.887695312 977.64453125 275.887695312 977.64453125 283.104492188 c 2,30,31
 977.64453125 283.104492188 977.64453125 283.104492188 977.64453125 303.444335938 c 2,32,33
 977.64453125 303.444335938 977.64453125 303.444335938 977.64453125 336.904296875 c 0,34,35
 977.64453125 367.7421875 977.64453125 367.7421875 984.20703125 377.583984375 c 0,36,37
 996.015625 401.203125 996.015625 401.203125 1018.32226562 409.076171875 c 0,38,39
 1028.8203125 413.668945312 1028.8203125 413.668945312 1043.25488281 413.668945312 c 0,40,41
 1047.19042969 413.668945312 1047.19042969 413.668945312 1064.25 410.388671875 c 0,42,43
 1083.27734375 403.827148438 1083.27734375 403.827148438 1110.17675781 380.20703125 c 0,44,45
 1127.23535156 362.493164062 1127.23535156 362.493164062 1139.04492188 356.587890625 c 0,46,47
 1146.91894531 354.620117188 1146.91894531 354.620117188 1156.10351562 354.620117188 c 0,48,49
 1166.60058594 354.620117188 1166.60058594 354.620117188 1169.22558594 355.275390625 c 0,50,51
 1183.66015625 357.244140625 1183.66015625 357.244140625 1196.78222656 371.021484375 c 0,52,53
 1216.46484375 390.048828125 1216.46484375 390.048828125 1216.46484375 430.727539062 c 0,54,55
 1216.46484375 463.532226562 1216.46484375 463.532226562 1186.28417969 487.807617188 c 0,56,57
 1163.3203125 507.490234375 1163.3203125 507.490234375 1131.171875 507.490234375 c 0,58,59
 1121.98632812 507.490234375 1121.98632812 507.490234375 1111.48925781 505.522460938 c 1,60,-1
 1104.92773438 548.825195312 l 1,61,62
 1107.55273438 549.482421875 1107.55273438 549.482421875 1120.67382812 549.482421875 c 2,63,64
 1120.67382812 549.482421875 1120.67382812 549.482421875 1133.79589844 549.482421875 c 0,65,66
 1178.41015625 549.482421875 1178.41015625 549.482421875 1213.84082031 519.95703125 c 0,67,68
 1258.45507812 483.21484375 1258.45507812 483.21484375 1258.45507812 434.6640625 c 0,69,70
 1258.45507812 374.302734375 1258.45507812 374.302734375 1225.65039062 342.809570312 c 0,71,72
 1209.24804688 324.439453125 1209.24804688 324.439453125 1181.03613281 316.565429688 c 1,73,74
 1159.38476562 313.28515625 1159.38476562 313.28515625 1156.10351562 313.28515625 c 0,75,76
 1138.38964844 313.28515625 1138.38964844 313.28515625 1124.61132812 318.534179688 c 0,77,78
 1112.80078125 322.470703125 1112.80078125 322.470703125 1081.30859375 348.71484375 c 0,79,80
 1062.28125 365.1171875 1062.28125 365.1171875 1049.81640625 370.365234375 c 0,81,82
 1040.62988281 372.334960938 1040.62988281 372.334960938 1034.06933594 370.365234375 c 0,83,84
 1028.1640625 368.397460938 1028.1640625 368.397460938 1022.25878906 359.211914062 c 0,85,86
 1018.97851562 353.962890625 1018.97851562 353.962890625 1017.01074219 336.904296875 c 0,87,88
 1017.01074219 335.591796875 1017.01074219 335.591796875 1018.32226562 325.750976562 c 128,-1,89
 1019.63574219 315.91015625 1019.63574219 315.91015625 1019.63574219 307.379882812 c 0,90,91
 1019.63574219 302.788085938 1019.63574219 302.788085938 1020.29199219 293.930664062 c 128,-1,92
 1020.94726562 285.072265625 1020.94726562 285.072265625 1020.94726562 281.135742188 c 0,93,94
 1020.94726562 277.856445312 1020.94726562 277.856445312 1019.63574219 269.982421875 c 0,95,96
 1012.41796875 218.805664062 1012.41796875 218.805664062 972.395507812 189.282226562 c 0,97,98
 937.623046875 165.005859375 937.623046875 165.005859375 883.166015625 165.005859375 c 0,99,100
 845.112304688 165.005859375 845.112304688 165.005859375 799.185546875 197.811523438 c 0,101,102
 765.724609375 223.399414062 765.724609375 223.399414062 745.384765625 268.670898438 c 0,103,104
 731.607421875 301.475585938 731.607421875 301.475585938 729.639648438 311.973632812 c 1,105,-1
 639.096679688 311.973632812 l 1,106,-1
 639.096679688 240.458007812 l 2,107,108
 639.096679688 186.658203125 639.096679688 186.658203125 597.106445312 150.573242188 c 0,109,110
 550.5234375 112.517578125 550.5234375 112.517578125 490.818359375 112.517578125 c 0,111,112
 419.302734375 112.517578125 419.302734375 112.517578125 371.408203125 155.165039062 c 0,113,114
 321.544921875 199.780273438 321.544921875 199.780273438 321.544921875 260.796875 c 0,115,116
 321.544921875 299.506835938 321.544921875 299.506835938 351.725585938 328.376953125 c 0,117,118
 381.25 355.275390625 381.25 355.275390625 426.521484375 355.275390625 c 1,119,-1
 426.521484375 548.168945312 l 1,120,-1
 724.389648438 548.168945312 l 1,121,-1
 724.389648438 505.522460938 l 1,122,-1
 639.096679688 505.522460938 l 1,123,-1
 639.096679688 355.275390625 l 1,124,-1
 767.692382812 355.275390625 l 1,125,-1
 767.692382812 342.153320312 l 2,18,19
EndSplineSet
Validated: 524289
EndChar

StartChar: uni090B
Encoding: 2315 2315 7
Width: 1030
VWidth: 732
Flags: W
LayerCount: 2
Fore
SplineSet
407.143554688 351.102539062 m 1,0,-1
 521.3046875 351.102539062 l 1,1,-1
 521.3046875 440.98828125 l 1,2,-1
 407.143554688 440.98828125 l 1,3,-1
 407.143554688 351.102539062 l 1,0,-1
441.259765625 174.611328125 m 0,4,5
 487.186523438 174.611328125 487.186523438 174.611328125 504.24609375 198.55859375 c 128,-1,6
 521.3046875 222.505859375 521.3046875 222.505859375 521.3046875 278.274414062 c 2,7,-1
 521.3046875 303.20703125 l 1,8,-1
 431.419921875 301.895507812 l 1,9,-1
 431.419921875 301.895507812 l 1,10,11
 418.953125 303.20703125 418.953125 303.20703125 408.455078125 303.20703125 c 0,12,13
 383.5234375 303.20703125 383.5234375 303.20703125 365.48046875 296.645507812 c 128,-1,14
 347.438476562 290.083984375 347.438476562 290.083984375 337.596679688 276.634765625 c 128,-1,15
 327.754882812 263.18359375 327.754882812 263.18359375 327.754882812 244.813476562 c 0,16,17
 327.754882812 210.696289062 327.754882812 210.696289062 354.327148438 192.653320312 c 128,-1,18
 380.899414062 174.611328125 380.899414062 174.611328125 441.259765625 174.611328125 c 0,4,5
914.96484375 37.486328125 m 1,19,20
 913.65234375 0.744140625 913.65234375 0.744140625 887.736328125 -31.732421875 c 128,-1,21
 861.8203125 -64.208984375 861.8203125 -64.208984375 822.454101562 -84.876953125 c 128,-1,22
 783.087890625 -105.543945312 783.087890625 -105.543945312 736.833007812 -117.025390625 c 128,-1,23
 690.578125 -128.506835938 690.578125 -128.506835938 645.962890625 -128.506835938 c 0,24,25
 628.904296875 -128.506835938 628.904296875 -128.506835938 615.782226562 -128.506835938 c 128,-1,26
 602.66015625 -128.506835938 602.66015625 -128.506835938 572.151367188 -126.209960938 c 128,-1,27
 541.64453125 -123.915039062 541.64453125 -123.915039062 517.368164062 -119.650390625 c 128,-1,28
 493.092773438 -115.385742188 493.092773438 -115.385742188 460.942382812 -106.528320312 c 128,-1,29
 428.79296875 -97.6708984375 428.79296875 -97.6708984375 404.190429688 -85.533203125 c 128,-1,30
 379.5859375 -73.3955078125 379.5859375 -73.3955078125 356.295898438 -53.3837890625 c 128,-1,31
 333.00390625 -33.373046875 333.00390625 -33.373046875 319.881835938 -9.0966796875 c 0,32,33
 312.008789062 6.650390625 312.008789062 6.650390625 312.008789062 22.396484375 c 0,34,35
 312.008789062 59.1376953125 312.008789062 59.1376953125 352.6875 83.7421875 c 128,-1,36
 393.364257812 108.344726562 393.364257812 108.344726562 461.598632812 107.688476562 c 2,37,-1
 855.258789062 103.751953125 l 2,38,39
 880.84765625 103.751953125 880.84765625 103.751953125 896.592773438 129.99609375 c 128,-1,40
 912.33984375 156.239257812 912.33984375 156.239257812 911.684570312 192.32421875 c 0,41,42
 911.684570312 233.659179688 911.684570312 233.659179688 890.033203125 262.85546875 c 128,-1,43
 868.380859375 292.052734375 868.380859375 292.052734375 827.046875 291.396484375 c 0,44,45
 803.426757812 291.396484375 803.426757812 291.396484375 783.745117188 277.947265625 c 128,-1,46
 764.061523438 264.497070312 764.061523438 264.497070312 753.236328125 248.09375 c 128,-1,47
 742.41015625 231.69140625 742.41015625 231.69140625 733.880859375 210.696289062 c 128,-1,48
 725.352539062 189.701171875 725.352539062 189.701171875 723.383789062 181.170898438 c 128,-1,49
 721.415039062 172.642578125 721.415039062 172.642578125 720.7578125 167.393554688 c 2,50,-1
 720.102539062 164.76953125 l 1,51,-1
 678.768554688 164.76953125 l 1,52,-1
 678.112304688 168.048828125 l 2,53,54
 678.112304688 170.67578125 678.112304688 170.67578125 677.78515625 175.922851562 c 128,-1,55
 677.45703125 181.170898438 677.45703125 181.170898438 674.831054688 195.606445312 c 128,-1,56
 672.20703125 210.041015625 672.20703125 210.041015625 667.943359375 223.163085938 c 128,-1,57
 663.677734375 236.28515625 663.677734375 236.28515625 654.8203125 252.030273438 c 128,-1,58
 645.962890625 267.77734375 645.962890625 267.77734375 634.809570312 279.586914062 c 128,-1,59
 623.65625 291.396484375 623.65625 291.396484375 605.28515625 299.59765625 c 128,-1,60
 586.915039062 307.798828125 586.915039062 307.798828125 565.262695312 308.455078125 c 1,61,-1
 565.262695312 278.274414062 l 2,62,63
 565.262695312 252.030273438 565.262695312 252.030273438 562.639648438 232.01953125 c 128,-1,64
 560.013671875 212.008789062 560.013671875 212.008789062 552.140625 191.668945312 c 128,-1,65
 544.267578125 171.331054688 544.267578125 171.331054688 531.145507812 157.879882812 c 128,-1,66
 518.024414062 144.430664062 518.024414062 144.430664062 495.388671875 136.229492188 c 128,-1,67
 472.75390625 128.028320312 472.75390625 128.028320312 441.259765625 128.028320312 c 0,68,69
 363.18359375 128.028320312 363.18359375 128.028320312 324.474609375 155.255859375 c 128,-1,70
 285.764648438 182.484375 285.764648438 182.484375 285.764648438 244.813476562 c 0,71,72
 285.764648438 257.934570312 285.764648438 257.934570312 289.701171875 271.056640625 c 128,-1,73
 293.637695312 284.178710938 293.637695312 284.178710938 300.52734375 294.349609375 c 128,-1,74
 307.416015625 304.518554688 307.416015625 304.518554688 314.9609375 313.704101562 c 128,-1,75
 322.505859375 322.889648438 322.505859375 322.889648438 331.69140625 329.779296875 c 128,-1,76
 340.876953125 336.666992188 340.876953125 336.666992188 348.09375 341.587890625 c 128,-1,77
 355.310546875 346.509765625 355.310546875 346.509765625 361.872070312 349.7890625 c 1,78,-1
 361.872070312 491.506835938 l 1,79,-1
 685.329101562 491.506835938 l 1,80,-1
 685.329101562 440.98828125 l 1,81,-1
 565.262695312 440.98828125 l 1,82,-1
 565.262695312 347.821289062 l 1,83,84
 589.538085938 347.166015625 589.538085938 347.166015625 610.206054688 340.932617188 c 128,-1,85
 630.873046875 334.700195312 630.873046875 334.700195312 644.65234375 324.529296875 c 128,-1,86
 658.428710938 314.360351562 658.428710938 314.360351562 668.927734375 302.877929688 c 128,-1,87
 679.424804688 291.396484375 679.424804688 291.396484375 686.313476562 277.619140625 c 128,-1,88
 693.203125 263.840820312 693.203125 263.840820312 696.811523438 253.670898438 c 128,-1,89
 700.419921875 243.501953125 700.419921875 243.501953125 702.388671875 233.00390625 c 1,90,91
 704.35546875 239.564453125 704.35546875 239.564453125 706.32421875 245.796875 c 128,-1,92
 708.29296875 252.030273438 708.29296875 252.030273438 712.23046875 259.903320312 c 128,-1,93
 716.166015625 267.77734375 716.166015625 267.77734375 720.431640625 274.994140625 c 128,-1,94
 724.6953125 282.2109375 724.6953125 282.2109375 730.928710938 289.756835938 c 128,-1,95
 737.161132812 297.30078125 737.161132812 297.30078125 744.377929688 303.862304688 c 128,-1,96
 751.596679688 310.422851562 751.596679688 310.422851562 760.78125 316.328125 c 128,-1,97
 769.966796875 322.234375 769.966796875 322.234375 780.463867188 326.498046875 c 128,-1,98
 790.961914062 330.762695312 790.961914062 330.762695312 804.411132812 333.059570312 c 128,-1,99
 817.862304688 335.356445312 817.862304688 335.356445312 832.295898438 335.356445312 c 0,100,101
 863.7890625 336.01171875 863.7890625 336.01171875 889.048828125 323.217773438 c 128,-1,102
 914.30859375 310.422851562 914.30859375 310.422851562 929.0703125 289.099609375 c 128,-1,103
 943.83203125 267.77734375 943.83203125 267.77734375 951.70703125 242.189453125 c 128,-1,104
 959.580078125 216.6015625 959.580078125 216.6015625 960.235351562 189.044921875 c 0,105,106
 960.235351562 164.76953125 960.235351562 164.76953125 954.330078125 141.805664062 c 128,-1,107
 948.426757812 118.841796875 948.426757812 118.841796875 937.271484375 100.471679688 c 128,-1,108
 926.118164062 82.1005859375 926.118164062 82.1005859375 908.40234375 71.275390625 c 128,-1,109
 890.689453125 60.4501953125 890.689453125 60.4501953125 869.694335938 60.4501953125 c 0,110,111
 689.266601562 59.1376953125 689.266601562 59.1376953125 462.911132812 61.76171875 c 0,112,113
 430.762695312 61.1044921875 430.762695312 61.1044921875 408.783203125 55.529296875 c 128,-1,114
 386.8046875 49.951171875 386.8046875 49.951171875 374.994140625 40.1103515625 c 0,115,116
 352.030273438 21.7392578125 352.030273438 21.7392578125 373.682617188 -4.5048828125 c 0,117,118
 385.4921875 -18.9384765625 385.4921875 -18.9384765625 401.23828125 -31.076171875 c 128,-1,119
 416.984375 -43.2138671875 416.984375 -43.2138671875 435.682617188 -51.0869140625 c 128,-1,120
 454.3828125 -58.9599609375 454.3828125 -58.9599609375 472.096679688 -65.1943359375 c 128,-1,121
 489.811523438 -71.4267578125 489.811523438 -71.4267578125 511.791015625 -75.03515625 c 128,-1,122
 533.76953125 -78.6435546875 533.76953125 -78.6435546875 549.844726562 -80.939453125 c 128,-1,123
 565.919921875 -83.236328125 565.919921875 -83.236328125 587.8984375 -83.8916015625 c 128,-1,124
 609.877929688 -84.548828125 609.877929688 -84.548828125 620.703125 -84.548828125 c 128,-1,125
 631.529296875 -84.548828125 631.529296875 -84.548828125 649.244140625 -84.548828125 c 128,-1,126
 666.958984375 -84.548828125 666.958984375 -84.548828125 669.583984375 -84.548828125 c 0,127,128
 715.509765625 -84.548828125 715.509765625 -84.548828125 762.092773438 -66.505859375 c 128,-1,129
 808.676757812 -48.462890625 808.676757812 -48.462890625 838.85546875 -19.5947265625 c 128,-1,130
 869.037109375 9.2744140625 869.037109375 9.2744140625 869.037109375 38.1416015625 c 2,131,-1
 869.037109375 41.4228515625 l 1,132,-1
 872.317382812 41.4228515625 l 1,133,-1
 914.96484375 37.486328125 l 1,19,20
EndSplineSet
Validated: 524325
EndChar

StartChar: uni090C
Encoding: 2316 2316 8
Width: 994
VWidth: 770
Flags: W
LayerCount: 2
Fore
SplineSet
678.419921875 154.84375 m 0,0,1
 671.203125 154.84375 671.203125 154.84375 660.705078125 152.21875 c 0,2,3
 646.927734375 147.626953125 646.927734375 147.626953125 641.677734375 132.536132812 c 0,4,5
 639.053710938 127.943359375 639.053710938 127.943359375 639.053710938 119.4140625 c 0,6,7
 639.053710938 110.229492188 639.053710938 110.229492188 641.677734375 105.635742188 c 0,8,9
 646.270507812 94.482421875 646.270507812 94.482421875 656.112304688 90.5458984375 c 0,10,11
 664.641601562 85.2978515625 664.641601562 85.2978515625 675.139648438 85.2978515625 c 0,12,13
 675.794921875 85.2978515625 675.794921875 85.2978515625 677.434570312 85.625 c 128,-1,14
 679.076171875 85.953125 679.076171875 85.953125 679.732421875 85.953125 c 0,15,16
 690.23046875 86.609375 690.23046875 86.609375 703.352539062 96.451171875 c 0,17,18
 713.194335938 103.66796875 713.194335938 103.66796875 720.41015625 115.477539062 c 0,19,20
 726.315429688 125.318359375 726.315429688 125.318359375 728.283203125 136.47265625 c 1,21,22
 715.817382812 145.001953125 715.817382812 145.001953125 698.102539062 152.21875 c 0,23,24
 684.98046875 154.84375 684.98046875 154.84375 678.419921875 154.84375 c 0,0,1
396.297851562 137.78515625 m 0,25,26
 431.0703125 137.78515625 431.0703125 137.78515625 455.346679688 159.436523438 c 256,27,28
 479.622070312 181.087890625 479.622070312 181.087890625 479.622070312 210.611328125 c 2,29,-1
 479.622070312 274.91015625 l 1,30,-1
 341.18359375 274.91015625 l 2,31,32
 322.813476562 274.91015625 322.813476562 274.91015625 309.03515625 262.444335938 c 0,33,34
 296.569335938 248.665039062 296.569335938 248.665039062 296.569335938 229.639648438 c 0,35,36
 296.569335938 190.272460938 296.569335938 190.272460938 325.438476562 165.33984375 c 0,37,38
 354.962890625 137.78515625 354.962890625 137.78515625 396.297851562 137.78515625 c 0,25,26
388.423828125 310.995117188 m 1,39,-1
 479.622070312 310.995117188 l 1,40,-1
 479.622070312 439.590820312 l 1,41,-1
 388.423828125 439.590820312 l 1,42,-1
 388.423828125 310.995117188 l 1,39,-1
597.063476562 310.995117188 m 2,43,44
 642.334960938 310.995117188 642.334960938 310.995117188 679.076171875 290.65625 c 0,45,46
 721.06640625 267.692382812 721.06640625 267.692382812 745.998046875 224.389648438 c 0,47,48
 765.681640625 192.897460938 765.681640625 192.897460938 765.681640625 164.029296875 c 2,49,-1
 765.681640625 153.530273438 l 1,50,-1
 794.548828125 135.16015625 l 2,51,52
 818.168945312 121.3828125 818.168945312 121.3828125 833.258789062 121.3828125 c 0,53,54
 863.439453125 121.3828125 863.439453125 121.3828125 883.779296875 139.096679688 c 0,55,56
 905.430664062 156.8125 905.430664062 156.8125 912.647460938 188.9609375 c 0,57,58
 916.583984375 202.73828125 916.583984375 202.73828125 916.583984375 219.796875 c 0,59,60
 916.583984375 223.077148438 916.583984375 223.077148438 913.3046875 250.634765625 c 0,61,62
 908.709960938 278.190429688 908.709960938 278.190429688 894.932617188 313.620117188 c 0,63,64
 854.254882812 419.251953125 854.254882812 419.251953125 771.5859375 505.85546875 c 1,65,-1
 797.830078125 530.1328125 l 1,66,67
 881.810546875 440.24609375 881.810546875 440.24609375 927.73828125 326.7421875 c 0,68,69
 941.515625 292.623046875 941.515625 292.623046875 948.076171875 257.1953125 c 0,70,71
 951.357421875 241.44921875 951.357421875 241.44921875 951.357421875 219.796875 c 0,72,73
 951.357421875 195.521484375 951.357421875 195.521484375 947.420898438 180.431640625 c 0,74,75
 937.580078125 138.440429688 937.580078125 138.440429688 907.3984375 112.196289062 c 0,76,77
 877.21875 84.6396484375 877.21875 84.6396484375 830.635742188 84.6396484375 c 0,78,79
 807.671875 84.6396484375 807.671875 84.6396484375 776.834960938 103.66796875 c 0,80,81
 774.8671875 104.979492188 774.8671875 104.979492188 768.633789062 108.588867188 c 128,-1,82
 762.401367188 112.196289062 762.401367188 112.196289062 759.776367188 114.165039062 c 1,83,84
 757.807617188 111.541015625 757.807617188 111.541015625 756.166992188 105.635742188 c 128,-1,85
 754.52734375 99.73046875 754.52734375 99.73046875 753.21484375 97.7626953125 c 0,86,87
 741.405273438 78.7353515625 741.405273438 78.7353515625 724.34765625 66.92578125 c 0,88,89
 705.975585938 52.4921875 705.975585938 52.4921875 684.32421875 50.5234375 c 0,90,91
 683.012695312 50.5234375 683.012695312 50.5234375 680.388671875 50.1953125 c 128,-1,92
 677.763671875 49.8671875 677.763671875 49.8671875 676.451171875 49.8671875 c 0,93,94
 658.080078125 49.8671875 658.080078125 49.8671875 641.021484375 58.396484375 c 0,95,96
 618.05859375 70.20703125 618.05859375 70.20703125 608.217773438 91.857421875 c 0,97,98
 601.65625 104.979492188 601.65625 104.979492188 601.65625 119.4140625 c 0,99,100
 601.65625 134.504882812 601.65625 134.504882812 608.217773438 147.626953125 c 0,101,102
 619.37109375 173.21484375 619.37109375 173.21484375 647.583984375 185.024414062 c 0,103,104
 662.672851562 191.584960938 662.672851562 191.584960938 677.108398438 191.584960938 c 0,105,106
 690.885742188 191.584960938 690.885742188 191.584960938 707.944335938 186.3359375 c 0,107,108
 711.880859375 185.024414062 711.880859375 185.024414062 726.970703125 179.119140625 c 1,109,110
 723.034179688 191.584960938 723.034179688 191.584960938 715.161132812 207.331054688 c 0,111,112
 696.791015625 241.44921875 696.791015625 241.44921875 662.672851562 259.163085938 c 0,113,114
 631.836914062 274.91015625 631.836914062 274.91015625 597.719726562 274.91015625 c 2,115,-1
 525.548828125 274.91015625 l 1,116,-1
 525.548828125 210.611328125 l 2,117,118
 525.548828125 165.997070312 525.548828125 165.997070312 486.838867188 133.192382812 c 0,119,120
 448.78515625 101.04296875 448.78515625 101.04296875 396.297851562 101.04296875 c 0,121,122
 337.247070312 101.04296875 337.247070312 101.04296875 293.290039062 139.096679688 c 0,123,124
 250.642578125 175.838867188 250.642578125 175.838867188 250.642578125 229.639648438 c 0,125,126
 250.642578125 263.755859375 250.642578125 263.755859375 277.541992188 286.719726562 c 0,127,128
 303.787109375 310.995117188 303.787109375 310.995117188 341.18359375 310.995117188 c 1,129,-1
 341.18359375 476.33203125 l 1,130,-1
 597.719726562 476.33203125 l 1,131,-1
 597.719726562 439.590820312 l 1,132,-1
 525.548828125 439.590820312 l 1,133,-1
 525.548828125 310.995117188 l 1,134,-1
 597.063476562 310.995117188 l 2,43,44
EndSplineSet
Validated: 524289
EndChar

StartChar: uni090D
Encoding: 2317 2317 9
Width: 690
VWidth: 745
Flags: W
LayerCount: 2
Fore
SplineSet
661.725585938 362.202148438 m 1,0,-1
 661.725585938 76.7978515625 l 1,1,-1
 172.274414062 76.7978515625 l 1,2,-1
 172.274414062 362.202148438 l 1,3,-1
 224.762695312 362.202148438 l 1,4,-1
 224.762695312 126.662109375 l 1,5,-1
 610.548828125 126.662109375 l 1,6,-1
 610.548828125 362.202148438 l 1,7,-1
 661.725585938 362.202148438 l 1,0,-1
EndSplineSet
Validated: 524289
EndChar

StartChar: uni090E
Encoding: 2318 2318 10
Width: 1143
VWidth: 794
Flags: W
LayerCount: 2
Fore
SplineSet
753.329101562 389.868164062 m 0,0,1
 734.958984375 381.995117188 734.958984375 381.995117188 729.709960938 366.249023438 c 0,2,3
 720.524414062 347.877929688 720.524414062 347.877929688 720.524414062 326.8828125 c 0,4,5
 720.524414062 324.915039062 720.524414062 324.915039062 721.836914062 308.51171875 c 128,-1,6
 723.1484375 292.109375 723.1484375 292.109375 723.1484375 277.67578125 c 2,7,-1
 724.461914062 246.182617188 l 2,8,9
 724.461914062 231.748046875 724.461914062 231.748046875 723.1484375 223.875 c 0,10,11
 715.931640625 151.704101562 715.931640625 151.704101562 652.290039062 104.46484375 c 0,12,13
 603.083007812 68.37890625 603.083007812 68.37890625 522.3828125 68.37890625 c 2,14,-1
 518.4453125 68.37890625 l 2,15,16
 462.677734375 68.37890625 462.677734375 68.37890625 397.723632812 115.619140625 c 0,17,18
 345.891601562 154.328125 345.891601562 154.328125 313.7421875 222.5625 c 0,19,20
 284.874023438 286.205078125 284.874023438 286.205078125 284.874023438 351.814453125 c 0,21,22
 284.874023438 378.71484375 284.874023438 378.71484375 292.747070312 419.392578125 c 2,23,-1
 294.059570312 425.296875 l 1,24,-1
 299.309570312 423.986328125 l 1,25,-1
 333.42578125 416.112304688 l 1,26,-1
 338.674804688 413.48828125 l 1,27,-1
 337.362304688 408.895507812 l 2,28,29
 332.11328125 382.65234375 332.11328125 382.65234375 332.11328125 348.534179688 c 0,30,31
 332.11328125 295.389648438 332.11328125 295.389648438 355.732421875 241.58984375 c 1,32,33
 384.6015625 185.821289062 384.6015625 185.821289062 425.279296875 153.016601562 c 0,34,35
 475.799804688 113.650390625 475.799804688 113.650390625 522.3828125 113.650390625 c 0,36,37
 585.368164062 113.650390625 585.368164062 113.650390625 626.045898438 141.862304688 c 0,38,39
 671.973632812 175.979492188 671.973632812 175.979492188 678.534179688 228.467773438 c 1,40,-1
 678.534179688 253.399414062 l 1,41,-1
 678.534179688 275.70703125 l 2,42,43
 678.534179688 289.485351562 678.534179688 289.485351562 677.221679688 306.54296875 c 128,-1,44
 675.91015625 323.602539062 675.91015625 323.602539062 675.91015625 326.8828125 c 0,45,46
 675.91015625 363.623046875 675.91015625 363.623046875 687.719726562 385.275390625 c 0,47,48
 704.778320312 419.392578125 704.778320312 419.392578125 734.958984375 432.514648438 c 0,49,50
 746.112304688 437.108398438 746.112304688 437.108398438 766.451171875 437.108398438 c 0,51,52
 785.478515625 437.108398438 785.478515625 437.108398438 797.944335938 432.514648438 c 1,53,54
 797.944335938 432.514648438 797.944335938 432.514648438 799.256835938 432.514648438 c 2,55,-1
 801.880859375 432.514648438 l 1,56,-1
 803.194335938 432.514648438 l 1,57,58
 831.405273438 420.048828125 831.405273438 420.048828125 866.178710938 385.931640625 c 0,59,60
 900.952148438 355.095703125 900.952148438 355.095703125 918.666992188 348.534179688 c 0,61,62
 931.7890625 342.62890625 931.7890625 342.62890625 947.53515625 342.62890625 c 0,63,64
 950.159179688 342.62890625 950.159179688 342.62890625 969.842773438 345.91015625 c 1,65,66
 997.3984375 354.439453125 997.3984375 354.439453125 1015.76953125 375.434570312 c 0,67,68
 1025.61132812 385.931640625 1025.61132812 385.931640625 1032.50097656 397.4140625 c 128,-1,69
 1039.38964844 408.895507812 1039.38964844 408.895507812 1043.32519531 421.689453125 c 128,-1,70
 1047.26171875 434.482421875 1047.26171875 434.482421875 1049.23144531 447.93359375 c 128,-1,71
 1051.19824219 461.383789062 1051.19824219 461.383789062 1051.19824219 477.78515625 c 0,72,73
 1051.19824219 532.2421875 1051.19824219 532.2421875 1000.0234375 572.919921875 c 1,74,-1
 998.709960938 572.919921875 l 1,75,76
 979.684570312 591.947265625 979.684570312 591.947265625 942.286132812 602.4453125 c 0,77,78
 919.322265625 608.349609375 919.322265625 608.349609375 897.671875 608.349609375 c 2,79,-1
 876.676757812 608.349609375 l 1,80,-1
 871.426757812 607.694335938 l 1,81,-1
 868.803710938 612.942382812 l 1,82,-1
 862.2421875 645.091796875 l 1,83,-1
 860.9296875 652.30859375 l 1,84,-1
 867.490234375 652.96484375 l 2,85,86
 877.33203125 653.62109375 877.33203125 653.62109375 897.671875 653.62109375 c 2,87,-1
 909.482421875 653.62109375 l 2,88,89
 935.069335938 653.62109375 935.069335938 653.62109375 952.783203125 648.372070312 c 0,90,91
 1000.0234375 633.28125 1000.0234375 633.28125 1030.203125 608.349609375 c 0,92,93
 1089.25292969 560.454101562 1089.25292969 560.454101562 1097.12597656 483.690429688 c 0,94,95
 1097.12597656 481.06640625 1097.12597656 481.06640625 1097.12597656 480.41015625 c 2,96,-1
 1097.12597656 479.75390625 l 2,97,98
 1097.12597656 393.1484375 1097.12597656 393.1484375 1048.57421875 342.62890625 c 0,99,100
 1019.70703125 313.104492188 1019.70703125 313.104492188 982.96484375 303.262695312 c 0,101,102
 965.90625 298.013671875 965.90625 298.013671875 944.911132812 298.013671875 c 0,103,104
 921.291992188 298.013671875 921.291992188 298.013671875 900.295898438 305.887695312 c 0,105,106
 875.364257812 316.384765625 875.364257812 316.384765625 834.685546875 352.470703125 c 0,107,108
 803.194335938 383.307617188 803.194335938 383.307617188 784.822265625 389.211914062 c 0,109,110
 775.635742188 393.1484375 775.635742188 393.1484375 766.451171875 393.1484375 c 0,111,112
 764.482421875 393.1484375 764.482421875 393.1484375 753.329101562 389.868164062 c 0,0,1
982.96484375 304.575195312 m 1,113,-1
 981.65234375 302.607421875 l 1,114,-1
 963.28125 290.140625 l 1,115,-1
 973.779296875 309.168945312 l 1,116,-1
 973.779296875 310.48046875 l 1,117,-1
 975.091796875 314.416015625 l 1,118,-1
 979.028320312 314.416015625 l 1,119,-1
 980.33984375 314.416015625 l 1,120,-1
 998.709960938 314.416015625 l 1,121,-1
 982.96484375 304.575195312 l 1,113,-1
EndSplineSet
Validated: 524293
EndChar

StartChar: uni090F
Encoding: 2319 2319 11
Width: 1115
VWidth: 736
Flags: W
LayerCount: 2
Fore
SplineSet
780.944335938 532.515625 m 0,0,1
 834.087890625 532.515625 834.087890625 532.515625 882.639648438 501.0234375 c 1,2,3
 938.408203125 468.875 938.408203125 468.875 953.499023438 419.666992188 c 0,4,5
 958.747070312 401.295898438 958.747070312 401.295898438 958.747070312 378.33203125 c 0,6,7
 958.747070312 341.590820312 958.747070312 341.590820312 943.000976562 305.505859375 c 0,8,9
 924.629882812 265.482421875 924.629882812 265.482421875 881.983398438 208.40234375 c 0,10,11
 790.129882812 88.9921875 790.129882812 88.9921875 790.129882812 29.287109375 c 0,12,13
 790.129882812 -45.5078125 790.129882812 -45.5078125 842.6171875 -80.28125 c 0,14,15
 868.862304688 -97.99609375 868.862304688 -97.99609375 907.572265625 -97.99609375 c 0,16,17
 944.3125 -97.99609375 944.3125 -97.99609375 967.27734375 -84.21875 c 0,18,19
 996.145507812 -65.84765625 996.145507812 -65.84765625 1013.203125 -21.232421875 c 0,20,21
 1023.70214844 6.9794921875 1023.70214844 6.9794921875 1023.70214844 39.1279296875 c 0,22,23
 1023.70214844 43.720703125 1023.70214844 43.720703125 1022.71679688 51.9228515625 c 128,-1,24
 1021.73339844 60.1240234375 1021.73339844 60.1240234375 1021.73339844 61.4365234375 c 0,25,26
 1016.484375 106.05078125 1016.484375 106.05078125 995.489257812 138.19921875 c 0,27,28
 971.868164062 172.973632812 971.868164062 172.973632812 946.9375 177.565429688 c 1,29,-1
 954.810546875 226.1171875 l 1,30,31
 1003.36230469 217.587890625 1003.36230469 217.587890625 1036.16699219 163.788085938 c 0,32,33
 1064.37890625 117.860351562 1064.37890625 117.860351562 1070.28417969 68.65234375 c 0,34,35
 1072.25292969 39.1279296875 1072.25292969 39.1279296875 1072.25292969 37.16015625 c 0,36,37
 1072.25292969 -4.830078125 1072.25292969 -4.830078125 1060.44238281 -38.2919921875 c 0,38,39
 1042.07226562 -92.091796875 1042.07226562 -92.091796875 995.489257812 -124.240234375 c 0,40,41
 961.372070312 -148.515625 961.372070312 -148.515625 904.291992188 -148.515625 c 0,42,43
 859.676757812 -148.515625 859.676757812 -148.515625 815.717773438 -120.959960938 c 0,44,45
 742.234375 -73.064453125 742.234375 -73.064453125 742.234375 26.6630859375 c 0,46,47
 742.234375 100.801757812 742.234375 100.801757812 842.6171875 235.958984375 c 0,48,49
 883.952148438 291.727539062 883.952148438 291.727539062 899.698242188 326.500976562 c 0,50,51
 911.5078125 350.776367188 911.5078125 350.776367188 911.5078125 376.364257812 c 0,52,53
 911.5078125 391.454101562 911.5078125 391.454101562 907.572265625 405.232421875 c 0,54,55
 896.41796875 437.380859375 896.41796875 437.380859375 858.364257812 460.344726562 c 0,56,57
 818.341796875 484.62109375 818.341796875 484.62109375 778.975585938 484.62109375 c 0,58,59
 716.647460938 484.62109375 716.647460938 484.62109375 681.217773438 434.100585938 c 0,60,61
 666.782226562 412.450195312 666.782226562 412.450195312 666.782226562 331.092773438 c 2,62,-1
 666.782226562 289.102539062 l 2,63,64
 666.782226562 273.35546875 666.782226562 273.35546875 668.422851562 249.408203125 c 128,-1,65
 670.063476562 225.461914062 670.063476562 225.461914062 670.063476562 218.244140625 c 0,66,67
 670.063476562 205.122070312 670.063476562 205.122070312 669.408203125 200.529296875 c 0,68,69
 664.158203125 153.290039062 664.158203125 153.290039062 628.729492188 121.140625 c 0,70,71
 572.3046875 72.58984375 572.3046875 72.58984375 483.73046875 72.58984375 c 0,72,73
 397.125 72.58984375 397.125 72.58984375 340.701171875 121.140625 c 0,74,75
 275.747070312 176.25390625 275.747070312 176.25390625 275.747070312 289.102539062 c 0,76,77
 275.747070312 299.599609375 275.747070312 299.599609375 277.059570312 331.092773438 c 128,-1,78
 278.372070312 362.5859375 278.372070312 362.5859375 278.372070312 383.580078125 c 0,79,80
 278.372070312 403.919921875 278.372070312 403.919921875 279.68359375 422.291992188 c 128,-1,81
 280.99609375 440.661132812 280.99609375 440.661132812 282.63671875 453.783203125 c 128,-1,82
 284.27734375 466.90625 284.27734375 466.90625 284.27734375 469.530273438 c 1,83,-1
 332.828125 469.530273438 l 1,84,85
 332.828125 465.592773438 332.828125 465.592773438 330.860351562 436.069335938 c 128,-1,86
 328.891601562 406.544921875 328.891601562 406.544921875 328.891601562 379.64453125 c 0,87,88
 328.891601562 358.6484375 328.891601562 358.6484375 326.595703125 328.796875 c 128,-1,89
 324.297851562 298.944335938 324.297851562 298.944335938 324.297851562 290.415039062 c 0,90,91
 324.297851562 199.217773438 324.297851562 199.217773438 373.505859375 157.2265625 c 0,92,93
 413.528320312 121.140625 413.528320312 121.140625 483.73046875 121.140625 c 0,94,95
 554.58984375 121.140625 554.58984375 121.140625 596.580078125 157.2265625 c 0,96,97
 614.951171875 172.973632812 614.951171875 172.973632812 620.19921875 207.08984375 c 0,98,99
 621.51171875 216.275390625 621.51171875 216.275390625 621.51171875 223.493164062 c 0,100,101
 621.51171875 230.053710938 621.51171875 230.053710938 620.528320312 250.392578125 c 128,-1,102
 619.54296875 270.732421875 619.54296875 270.732421875 619.54296875 284.509765625 c 2,103,-1
 619.54296875 310.09765625 l 2,104,105
 619.54296875 376.364257812 619.54296875 376.364257812 623.151367188 409.168945312 c 128,-1,106
 626.760742188 441.974609375 626.760742188 441.974609375 641.1953125 461.000976562 c 0,107,108
 695.65234375 532.515625 695.65234375 532.515625 780.944335938 532.515625 c 0,0,1
EndSplineSet
Validated: 524289
EndChar

StartChar: uni0910
Encoding: 2320 2320 12
Width: 655
VWidth: 769
Flags: W
LayerCount: 2
Fore
SplineSet
384.749023438 578.958007812 m 0,0,1
 475.947265625 578.958007812 475.947265625 578.958007812 530.731445312 540.903320312 c 128,-1,2
 585.515625 502.8515625 585.515625 502.8515625 585.515625 430.0234375 c 0,3,4
 585.515625 400.499023438 585.515625 400.499023438 574.690429688 375.895507812 c 128,-1,5
 563.864257812 351.291992188 563.864257812 351.291992188 545.821289062 334.232421875 c 128,-1,6
 527.778320312 317.174804688 527.778320312 317.174804688 500.22265625 302.740234375 c 128,-1,7
 472.666015625 288.305664062 472.666015625 288.305664062 444.454101562 279.120117188 c 128,-1,8
 416.2421875 269.934570312 416.2421875 269.934570312 378.84375 260.75 c 0,9,10
 334.885742188 247.627929688 334.885742188 247.627929688 309.297851562 238.114257812 c 128,-1,11
 283.708984375 228.599609375 283.708984375 228.599609375 258.77734375 213.509765625 c 128,-1,12
 233.845703125 198.419921875 233.845703125 198.419921875 223.020507812 178.081054688 c 128,-1,13
 212.1953125 157.7421875 212.1953125 157.7421875 212.1953125 130.185546875 c 0,14,15
 212.1953125 98.0361328125 212.1953125 98.0361328125 228.26953125 69.49609375 c 128,-1,16
 244.34375 40.955078125 244.34375 40.955078125 271.243164062 40.955078125 c 0,17,18
 286.333984375 40.955078125 286.333984375 40.955078125 299.456054688 44.236328125 c 128,-1,19
 312.578125 47.517578125 312.578125 47.517578125 322.747070312 55.0625 c 128,-1,20
 332.916992188 62.607421875 332.916992188 62.607421875 340.461914062 68.83984375 c 128,-1,21
 348.0078125 75.072265625 348.0078125 75.072265625 355.552734375 87.5390625 c 128,-1,22
 363.09765625 100.004882812 363.09765625 100.004882812 366.377929688 106.565429688 c 128,-1,23
 369.659179688 113.127929688 369.659179688 113.127929688 376.547851562 127.888671875 c 128,-1,24
 383.436523438 142.651367188 383.436523438 142.651367188 385.404296875 147.244140625 c 1,25,26
 389.997070312 147.244140625 389.997070312 147.244140625 404.432617188 147.572265625 c 128,-1,27
 418.866210938 147.900390625 418.866210938 147.900390625 422.146484375 147.900390625 c 1,28,29
 433.30078125 121.65625 433.30078125 121.65625 464.46484375 81.6337890625 c 128,-1,30
 495.629882812 41.6123046875 495.629882812 41.6123046875 523.842773438 40.955078125 c 0,31,32
 556.6484375 40.2998046875 556.6484375 40.2998046875 575.017578125 58.998046875 c 128,-1,33
 593.388671875 77.6982421875 593.388671875 77.6982421875 593.716796875 105.581054688 c 128,-1,34
 594.045898438 133.466796875 594.045898438 133.466796875 585.844726562 162.005859375 c 128,-1,35
 577.642578125 190.546875 577.642578125 190.546875 558.943359375 212.526367188 c 128,-1,36
 540.245117188 234.505859375 540.245117188 234.505859375 519.249023438 238.442382812 c 1,37,-1
 555.334960938 269.279296875 l 1,38,39
 579.611328125 258.125 579.611328125 258.125 597.981445312 232.537109375 c 128,-1,40
 616.352539062 206.950195312 616.352539062 206.950195312 625.865234375 176.768554688 c 128,-1,41
 635.37890625 146.587890625 635.37890625 146.587890625 634.723632812 113.783203125 c 128,-1,42
 634.06640625 80.978515625 634.06640625 80.978515625 622.913085938 54.734375 c 128,-1,43
 611.758789062 28.490234375 611.758789062 28.490234375 586.171875 11.4306640625 c 128,-1,44
 560.583984375 -5.626953125 560.583984375 -5.626953125 523.186523438 -4.970703125 c 0,45,46
 502.846679688 -4.970703125 502.846679688 -4.970703125 484.475585938 2.90234375 c 128,-1,47
 466.10546875 10.7763671875 466.10546875 10.7763671875 449.375 27.505859375 c 128,-1,48
 432.64453125 44.236328125 432.64453125 44.236328125 426.083007812 52.4375 c 128,-1,49
 419.522460938 60.638671875 419.522460938 60.638671875 405.744140625 80.322265625 c 0,50,51
 403.120117188 83.6025390625 403.120117188 83.6025390625 401.806640625 85.5703125 c 1,52,53
 399.838867188 81.6337890625 399.838867188 81.6337890625 396.23046875 75.7294921875 c 128,-1,54
 392.623046875 69.8251953125 392.623046875 69.8251953125 380.157226562 54.078125 c 128,-1,55
 367.690429688 38.33203125 367.690429688 38.33203125 353.912109375 26.521484375 c 128,-1,56
 340.133789062 14.7119140625 340.133789062 14.7119140625 317.499023438 4.8701171875 c 128,-1,57
 294.86328125 -4.970703125 294.86328125 -4.970703125 271.243164062 -4.970703125 c 0,58,59
 225.31640625 -4.970703125 225.31640625 -4.970703125 194.807617188 38.33203125 c 128,-1,60
 164.298828125 81.6337890625 164.298828125 81.6337890625 164.298828125 130.185546875 c 0,61,62
 164.298828125 159.7109375 164.298828125 159.7109375 174.141601562 183.657226562 c 128,-1,63
 183.983398438 207.606445312 183.983398438 207.606445312 200.385742188 224.9921875 c 128,-1,64
 216.788085938 242.37890625 216.788085938 242.37890625 243.6875 257.140625 c 128,-1,65
 270.586914062 271.903320312 270.586914062 271.903320312 299.127929688 282.400390625 c 128,-1,66
 327.668945312 292.899414062 327.668945312 292.899414062 367.034179688 304.052734375 c 1,67,-1
 367.690429688 304.052734375 l 1,68,69
 399.838867188 311.92578125 399.838867188 311.92578125 422.474609375 318.486328125 c 128,-1,70
 445.110351562 325.047851562 445.110351562 325.047851562 468.729492188 335.544921875 c 128,-1,71
 492.349609375 346.041992188 492.349609375 346.041992188 506.456054688 358.508789062 c 128,-1,72
 520.5625 370.974609375 520.5625 370.974609375 529.747070312 389.344726562 c 128,-1,73
 538.931640625 407.716796875 538.931640625 407.716796875 538.931640625 430.0234375 c 0,74,75
 538.931640625 477.262695312 538.931640625 477.262695312 507.767578125 506.131835938 c 128,-1,76
 476.602539062 535 476.602539062 535 416.8984375 535 c 1,77,78
 430.67578125 491.041015625 430.67578125 491.041015625 430.67578125 445.114257812 c 128,-1,79
 430.67578125 399.186523438 430.67578125 399.186523438 401.806640625 368.349609375 c 128,-1,80
 372.939453125 337.513671875 372.939453125 337.513671875 328.979492188 337.513671875 c 0,81,82
 289.614257812 337.513671875 289.614257812 337.513671875 258.44921875 373.270507812 c 128,-1,83
 227.28515625 409.028320312 227.28515625 409.028320312 227.28515625 452.331054688 c 0,84,85
 227.28515625 532.375 227.28515625 532.375 298.14453125 563.8671875 c 0,86,87
 334.885742188 578.958007812 334.885742188 578.958007812 384.749023438 578.958007812 c 0,0,1
315.857421875 521.220703125 m 0,88,89
 273.868164062 502.194335938 273.868164062 502.194335938 273.868164062 454.955078125 c 0,90,91
 273.868164062 428.7109375 273.868164062 428.7109375 290.926757812 406.731445312 c 128,-1,92
 307.984375 384.752929688 307.984375 384.752929688 330.948242188 384.752929688 c 0,93,94
 355.880859375 384.752929688 355.880859375 384.752929688 370.314453125 403.123046875 c 128,-1,95
 384.749023438 421.493164062 384.749023438 421.493164062 384.749023438 449.049804688 c 0,96,97
 384.749023438 495.6328125 384.749023438 495.6328125 369.002929688 533.030273438 c 1,98,99
 342.1015625 533.030273438 342.1015625 533.030273438 315.857421875 521.220703125 c 0,88,89
EndSplineSet
Validated: 524321
EndChar

StartChar: uni0911
Encoding: 2321 2321 13
Width: 1468
VWidth: 752
Flags: W
LayerCount: 2
Fore
SplineSet
509.7421875 201.915039062 m 0,0,1
 538.610351562 201.915039062 538.610351562 201.915039062 558.950195312 222.91015625 c 1,2,-1
 558.950195312 222.91015625 l 1,3,4
 577.9765625 241.280273438 577.9765625 241.280273438 577.9765625 268.836914062 c 0,5,6
 577.9765625 297.048828125 577.9765625 297.048828125 558.62109375 316.732421875 c 128,-1,7
 539.266601562 336.415039062 539.266601562 336.415039062 509.7421875 336.415039062 c 0,8,9
 487.435546875 336.415039062 487.435546875 336.415039062 471.688476562 316.732421875 c 0,10,11
 453.317382812 293.768554688 453.317382812 293.768554688 453.317382812 268.836914062 c 0,12,13
 453.317382812 239.3125 453.317382812 239.3125 471.032226562 220.28515625 c 1,14,-1
 471.688476562 220.28515625 l 1,15,16
 486.779296875 201.915039062 486.779296875 201.915039062 509.7421875 201.915039062 c 0,0,1
993.288085938 -15.2548828125 m 0,17,18
 1054.96191406 -15.2548828125 1054.96191406 -15.2548828125 1099.57617188 11.6455078125 c 0,19,20
 1144.84765625 39.201171875 1144.84765625 39.201171875 1169.12304688 81.8486328125 c 1,21,-1
 888.3125 81.8486328125 l 2,22,23
 883.063476562 81.8486328125 883.063476562 81.8486328125 878.469726562 77.2548828125 c 128,-1,24
 873.877929688 72.6630859375 873.877929688 72.6630859375 873.877929688 68.0693359375 c 0,25,26
 873.877929688 49.69921875 873.877929688 49.69921875 881.750976562 36.5771484375 c 128,-1,27
 889.623046875 23.455078125 889.623046875 23.455078125 908.651367188 10.9892578125 c 0,28,29
 944.737304688 -15.2548828125 944.737304688 -15.2548828125 993.288085938 -15.2548828125 c 0,17,18
648.1796875 172.389648438 m 1,30,-1
 648.1796875 198.634765625 l 1,31,-1
 648.1796875 199.946289062 l 1,32,-1
 648.8359375 200.602539062 l 1,33,34
 671.799804688 228.158203125 671.799804688 228.158203125 680.984375 260.962890625 c 1,35,-1
 680.984375 260.962890625 l 1,36,37
 691.482421875 292.45703125 691.482421875 292.45703125 691.482421875 339.6953125 c 0,38,39
 691.482421875 404.6484375 691.482421875 404.6484375 646.8671875 447.952148438 c 0,40,41
 602.908203125 493.879882812 602.908203125 493.879882812 536.642578125 493.879882812 c 0,42,43
 474.313476562 493.879882812 474.313476562 493.879882812 429.041992188 447.952148438 c 0,44,45
 383.771484375 403.336914062 383.771484375 403.336914062 383.771484375 339.6953125 c 0,46,47
 383.771484375 314.108398438 383.771484375 314.108398438 395.581054688 280.647460938 c 0,48,49
 403.455078125 258.995117188 403.455078125 258.995117188 415.919921875 241.280273438 c 1,50,51
 414.608398438 245.217773438 414.608398438 245.217773438 414.608398438 247.841796875 c 0,52,53
 411.327148438 267.524414062 411.327148438 267.524414062 411.327148438 268.836914062 c 0,54,55
 411.327148438 313.451171875 411.327148438 313.451171875 442.163085938 345.599609375 c 0,56,57
 472.344726562 378.405273438 472.344726562 378.405273438 509.7421875 378.405273438 c 0,58,59
 557.637695312 378.405273438 557.637695312 378.405273438 587.818359375 346.912109375 c 0,60,61
 621.279296875 314.763671875 621.279296875 314.763671875 621.279296875 268.836914062 c 0,62,63
 621.279296875 226.190429688 621.279296875 226.190429688 587.818359375 193.384765625 c 0,64,65
 556.981445312 162.548828125 556.981445312 162.548828125 509.7421875 162.548828125 c 0,66,67
 439.540039062 162.548828125 439.540039062 162.548828125 391.64453125 213.724609375 c 0,68,69
 343.092773438 264.899414062 343.092773438 264.899414062 343.092773438 339.6953125 c 0,70,71
 343.092773438 421.051757812 343.092773438 421.051757812 399.517578125 478.1328125 c 0,72,73
 455.942382812 533.901367188 455.942382812 533.901367188 536.642578125 533.901367188 c 0,74,75
 623.247070312 533.901367188 623.247070312 533.901367188 681.639648438 478.1328125 c 0,76,77
 743.314453125 419.083984375 743.314453125 419.083984375 743.314453125 339.6953125 c 0,78,79
 743.314453125 307.546875 743.314453125 307.546875 733.47265625 269.493164062 c 0,80,81
 727.567382812 244.560546875 727.567382812 244.560546875 709.852539062 210.444335938 c 1,82,-1
 892.904296875 210.444335938 l 1,83,-1
 892.904296875 434.830078125 l 2,84,85
 892.904296875 476.1640625 892.904296875 476.1640625 921.7734375 505.033203125 c 0,86,87
 951.296875 533.901367188 951.296875 533.901367188 992.631835938 533.901367188 c 0,88,89
 1010.34765625 533.901367188 1010.34765625 533.901367188 1033.30957031 522.091796875 c 0,90,91
 1054.96191406 510.9375 1054.96191406 510.9375 1069.39550781 493.879882812 c 1,92,93
 1084.48632812 510.9375 1084.48632812 510.9375 1106.13769531 522.091796875 c 0,94,95
 1112.04199219 524.71484375 1112.04199219 524.71484375 1116.63574219 526.684570312 c 128,-1,96
 1121.22753906 528.65234375 1121.22753906 528.65234375 1126.4765625 530.62109375 c 128,-1,97
 1131.72558594 532.587890625 1131.72558594 532.587890625 1136.97363281 533.245117188 c 128,-1,98
 1142.22265625 533.901367188 1142.22265625 533.901367188 1147.47167969 533.901367188 c 0,99,100
 1190.11816406 533.901367188 1190.11816406 533.901367188 1218.98632812 505.033203125 c 256,101,102
 1247.85546875 476.1640625 1247.85546875 476.1640625 1247.85546875 434.830078125 c 2,103,-1
 1247.85546875 172.389648438 l 2,104,105
 1247.85546875 151.395507812 1247.85546875 151.395507812 1239.32519531 123.838867188 c 1,106,-1
 1380.38671875 123.838867188 l 1,107,-1
 1380.38671875 524.059570312 l 1,108,-1
 1380.38671875 527.33984375 l 1,109,-1
 1383.66699219 527.33984375 l 1,110,-1
 1427.62597656 527.33984375 l 1,111,-1
 1430.90625 527.33984375 l 1,112,-1
 1430.90625 524.059570312 l 1,113,-1
 1430.90625 85.1279296875 l 1,114,-1
 1430.90625 81.8486328125 l 1,115,-1
 1427.62597656 81.8486328125 l 1,116,-1
 1219.64257812 81.8486328125 l 1,117,118
 1188.80566406 18.20703125 1188.80566406 18.20703125 1129.7578125 -18.53515625 c 0,119,120
 1067.42675781 -57.9013671875 1067.42675781 -57.9013671875 993.288085938 -57.9013671875 c 0,121,122
 922.428710938 -57.9013671875 922.428710938 -57.9013671875 873.877929688 -20.5029296875 c 0,123,124
 824.013671875 18.8623046875 824.013671875 18.8623046875 824.013671875 68.0693359375 c 0,125,126
 824.013671875 91.033203125 824.013671875 91.033203125 842.384765625 108.092773438 c 0,127,128
 859.444335938 123.838867188 859.444335938 123.838867188 888.3125 123.838867188 c 2,129,-1
 1190.11816406 123.838867188 l 1,130,131
 1198.64746094 151.395507812 1198.64746094 151.395507812 1198.64746094 172.389648438 c 2,132,-1
 1198.64746094 434.830078125 l 2,133,134
 1198.64746094 446.639648438 1198.64746094 446.639648438 1194.70996094 456.809570312 c 128,-1,135
 1190.77441406 466.978515625 1190.77441406 466.978515625 1183.55664062 474.8515625 c 0,136,137
 1166.49902344 493.879882812 1166.49902344 493.879882812 1147.47167969 493.879882812 c 0,138,139
 1129.7578125 493.879882812 1129.7578125 493.879882812 1114.01074219 476.8203125 c 0,140,141
 1099.57617188 462.385742188 1099.57617188 462.385742188 1099.57617188 434.830078125 c 2,142,-1
 1099.57617188 172.389648438 l 1,143,-1
 1099.57617188 169.109375 l 1,144,-1
 1096.29589844 169.109375 l 1,145,-1
 1043.80761719 169.109375 l 1,146,-1
 1040.52734375 169.109375 l 1,147,-1
 1040.52734375 172.389648438 l 1,148,-1
 1040.52734375 434.830078125 l 2,149,150
 1040.52734375 461.73046875 1040.52734375 461.73046875 1026.09277344 476.8203125 c 0,151,152
 1010.34765625 493.879882812 1010.34765625 493.879882812 992.303710938 493.879882812 c 128,-1,153
 974.26171875 493.879882812 974.26171875 493.879882812 957.202148438 474.8515625 c 0,154,155
 942.112304688 457.79296875 942.112304688 457.79296875 942.112304688 434.830078125 c 2,156,-1
 942.112304688 172.389648438 l 1,157,-1
 942.112304688 169.109375 l 1,158,-1
 938.831054688 169.109375 l 1,159,-1
 651.459960938 169.109375 l 1,160,-1
 648.1796875 169.109375 l 1,161,-1
 648.1796875 172.389648438 l 1,30,-1
EndSplineSet
Validated: 524289
EndChar

StartChar: uni0912
Encoding: 2322 2322 14
Width: 916
VWidth: 842
Flags: W
LayerCount: 2
Fore
SplineSet
531.037109375 398.9609375 m 0,0,1
 496.919921875 398.9609375 496.919921875 398.9609375 473.299804688 381.90234375 c 0,2,3
 447.055664062 361.5625 447.055664062 361.5625 447.055664062 338.598632812 c 2,4,-1
 447.055664062 172.606445312 l 1,5,-1
 395.223632812 172.606445312 l 1,6,-1
 395.223632812 544.615234375 l 1,7,-1
 282.375 544.615234375 l 1,8,-1
 282.375 172.606445312 l 1,9,-1
 230.541992188 172.606445312 l 1,10,-1
 230.541992188 585.94921875 l 1,11,-1
 603.20703125 585.94921875 l 1,12,-1
 603.20703125 544.615234375 l 1,13,-1
 447.055664062 544.615234375 l 1,14,-1
 447.055664062 410.76953125 l 1,15,16
 456.2421875 427.172851562 456.2421875 427.172851562 479.205078125 440.294921875 c 0,17,18
 499.54296875 450.79296875 499.54296875 450.79296875 531.037109375 450.79296875 c 0,19,20
 574.995117188 450.79296875 574.995117188 450.79296875 605.831054688 414.70703125 c 0,21,22
 628.794921875 390.431640625 628.794921875 390.431640625 639.94921875 342.536132812 c 0,23,24
 651.7578125 288.080078125 651.7578125 288.080078125 675.377929688 256.5859375 c 0,25,26
 700.966796875 224.438476562 700.966796875 224.438476562 731.147460938 224.438476562 c 0,27,28
 779.041992188 224.438476562 779.041992188 224.438476562 806.598632812 277.58203125 c 0,29,30
 834.155273438 330.0703125 834.155273438 330.0703125 834.155273438 410.76953125 c 0,31,32
 834.155273438 578.732421875 834.155273438 578.732421875 744.26953125 682.395507812 c 1,33,-1
 744.26953125 685.020507812 l 1,34,35
 716.712890625 716.513671875 716.712890625 716.513671875 659.959960938 740.1328125 c 128,-1,36
 603.20703125 763.752929688 603.20703125 763.752929688 547.766601562 773.921875 c 128,-1,37
 492.327148438 784.091796875 492.327148438 784.091796875 447.055664062 784.091796875 c 1,38,-1
 447.055664062 827.393554688 l 1,39,40
 499.54296875 827.393554688 499.54296875 827.393554688 559.577148438 817.552734375 c 128,-1,41
 619.610351562 807.709960938 619.610351562 807.709960938 681.939453125 782.123046875 c 128,-1,42
 744.26953125 756.53515625 744.26953125 756.53515625 775.10546875 720.450195312 c 0,43,44
 877.458007812 601.6953125 877.458007812 601.6953125 877.458007812 410.76953125 c 0,45,46
 877.458007812 314.979492188 877.458007812 314.979492188 844.65234375 252.650390625 c 0,47,48
 832.186523438 226.407226562 832.186523438 226.407226562 814.799804688 208.69140625 c 128,-1,49
 797.4140625 190.9765625 797.4140625 190.9765625 776.41796875 181.791992188 c 128,-1,50
 755.422851562 172.606445312 755.422851562 172.606445312 731.803710938 172.606445312 c 0,51,52
 680.627929688 172.606445312 680.627929688 172.606445312 641.916992188 223.78125 c 0,53,54
 611.737304688 262.4921875 611.737304688 262.4921875 597.958984375 330.7265625 c 0,55,56
 590.084960938 362.875 590.084960938 362.875 575.65234375 379.27734375 c 0,57,58
 558.591796875 398.9609375 558.591796875 398.9609375 531.037109375 398.9609375 c 0,0,1
EndSplineSet
Validated: 524289
EndChar

StartChar: uni0913
Encoding: 2323 2323 15
Width: 1250
VWidth: 702
Flags: W
LayerCount: 2
Fore
SplineSet
597.536132812 371.137695312 m 6,0,1
 583.1015625 371.137695312 583.1015625 371.137695312 570.30859375 367.85546875 c 132,-1,2
 557.513671875 364.576171875 557.513671875 364.576171875 547.016601562 359.328125 c 132,-1,3
 536.517578125 354.079101562 536.517578125 354.079101562 528.31640625 346.533203125 c 132,-1,4
 520.116210938 338.98828125 520.116210938 338.98828125 514.8671875 329.803710938 c 5,5,-1
 514.8671875 463.647460938 l 5,6,-1
 669.05078125 463.647460938 l 5,7,-1
 669.05078125 504.982421875 l 5,8,-1
 301.634765625 504.982421875 l 5,9,-1
 301.634765625 95.5751953125 l 5,10,-1
 352.155273438 95.5751953125 l 5,11,-1
 352.155273438 463.647460938 l 5,12,-1
 465.00390625 463.647460938 l 5,13,-1
 465.00390625 95.5751953125 l 5,14,-1
 514.8671875 95.5751953125 l 5,15,-1
 514.8671875 258.944335938 l 6,16,17
 514.8671875 283.875976562 514.8671875 283.875976562 541.111328125 302.24609375 c 132,-1,18
 567.35546875 320.6171875 567.35546875 320.6171875 597.536132812 320.6171875 c 6,19,-1
 604.096679688 320.6171875 l 6,20,21
 620.499023438 320.6171875 620.499023438 320.6171875 635.91796875 309.463867188 c 132,-1,22
 651.3359375 298.309570312 651.3359375 298.309570312 661.177734375 282.563476562 c 132,-1,23
 671.01953125 266.817382812 671.01953125 266.817382812 676.267578125 249.7578125 c 4,24,25
 682.829101562 228.108398438 682.829101562 228.108398438 682.829101562 209.737304688 c 4,26,27
 682.829101562 169.05859375 682.829101562 169.05859375 659.208984375 125.100585938 c 5,28,29
 659.208984375 115.915039062 659.208984375 115.915039062 645.103515625 95.904296875 c 132,-1,30
 630.997070312 75.892578125 630.997070312 75.892578125 614.265625 54.8974609375 c 132,-1,31
 597.536132812 33.90234375 597.536132812 33.90234375 583.7578125 1.75390625 c 132,-1,32
 569.979492188 -30.3955078125 569.979492188 -30.3955078125 569.979492188 -61.232421875 c 4,33,34
 569.979492188 -88.1328125 569.979492188 -88.1328125 577.524414062 -112.080078125 c 132,-1,35
 585.0703125 -136.028320312 585.0703125 -136.028320312 600.48828125 -155.709960938 c 132,-1,36
 615.907226562 -175.393554688 615.907226562 -175.393554688 641.494140625 -186.875 c 132,-1,37
 667.083007812 -198.357421875 667.083007812 -198.357421875 699.887695312 -198.357421875 c 4,38,39
 720.8828125 -198.357421875 720.8828125 -198.357421875 739.91015625 -192.78125 c 132,-1,40
 758.936523438 -187.203125 758.936523438 -187.203125 773.37109375 -177.69140625 c 132,-1,41
 787.8046875 -168.176757812 787.8046875 -168.176757812 800.927734375 -156.0390625 c 132,-1,42
 814.048828125 -143.901367188 814.048828125 -143.901367188 823.561523438 -130.451171875 c 132,-1,43
 833.076171875 -117.000976562 833.076171875 -117.000976562 840.62109375 -103.55078125 c 132,-1,44
 848.166015625 -90.1005859375 848.166015625 -90.1005859375 853.415039062 -77.962890625 c 132,-1,45
 858.6640625 -65.8251953125 858.6640625 -65.8251953125 861.944335938 -56.6396484375 c 132,-1,46
 865.224609375 -47.4541015625 865.224609375 -47.4541015625 867.194335938 -41.5498046875 c 6,47,-1
 868.505859375 -36.30078125 l 5,48,49
 871.78515625 -42.8623046875 871.78515625 -42.8623046875 878.018554688 -54.015625 c 132,-1,50
 884.251953125 -65.1689453125 884.251953125 -65.1689453125 904.262695312 -93.380859375 c 132,-1,51
 924.2734375 -121.592773438 924.2734375 -121.592773438 944.612304688 -143.245117188 c 132,-1,52
 964.952148438 -164.896484375 964.952148438 -164.896484375 993.8203125 -182.938476562 c 132,-1,53
 1022.68945312 -200.982421875 1022.68945312 -200.982421875 1049.58789062 -200.982421875 c 4,54,55
 1093.54785156 -200.982421875 1093.54785156 -200.982421875 1125.04101562 -185.563476562 c 132,-1,56
 1156.53320312 -170.145507812 1156.53320312 -170.145507812 1174.57617188 -141.27734375 c 132,-1,57
 1192.61816406 -112.408203125 1192.61816406 -112.408203125 1200.49121094 -75.3388671875 c 132,-1,58
 1208.36523438 -38.26953125 1208.36523438 -38.26953125 1208.36523438 10.2822265625 c 4,59,60
 1208.36523438 43.087890625 1208.36523438 43.087890625 1196.55566406 77.5322265625 c 132,-1,61
 1184.74609375 111.978515625 1184.74609375 111.978515625 1164.73339844 141.501953125 c 132,-1,62
 1144.72265625 171.026367188 1144.72265625 171.026367188 1120.11914062 194.974609375 c 132,-1,63
 1095.515625 218.922851562 1095.515625 218.922851562 1067.63085938 233.35546875 c 132,-1,64
 1039.74707031 247.791015625 1039.74707031 247.791015625 1014.15917969 249.7578125 c 5,65,-1
 1005.62988281 207.768554688 l 5,66,67
 1038.43457031 207.768554688 1038.43457031 207.768554688 1076.81640625 176.931640625 c 132,-1,68
 1115.19824219 146.095703125 1115.19824219 146.095703125 1142.09960938 99.51171875 c 132,-1,69
 1168.99902344 52.9287109375 1168.99902344 52.9287109375 1168.99902344 11.5947265625 c 4,70,71
 1168.99902344 -33.0205078125 1168.99902344 -33.0205078125 1159.48535156 -66.8095703125 c 132,-1,72
 1149.97265625 -100.598632812 1149.97265625 -100.598632812 1132.9140625 -120.28125 c 132,-1,73
 1115.85546875 -139.96484375 1115.85546875 -139.96484375 1094.859375 -149.478515625 c 132,-1,74
 1073.86425781 -158.991210938 1073.86425781 -158.991210938 1047.62109375 -158.991210938 c 4,75,76
 1024.65722656 -158.991210938 1024.65722656 -158.991210938 991.524414062 -132.091796875 c 132,-1,77
 958.390625 -105.190429688 958.390625 -105.190429688 929.849609375 -61.232421875 c 132,-1,78
 901.309570312 -17.2734375 901.309570312 -17.2734375 892.78125 25.3720703125 c 5,79,-1
 841.604492188 25.3720703125 l 5,80,81
 835.700195312 -9.4013671875 835.700195312 -9.4013671875 823.561523438 -41.5498046875 c 132,-1,82
 811.424804688 -73.6982421875 811.424804688 -73.6982421875 794.038085938 -100.598632812 c 132,-1,83
 776.65234375 -127.499023438 776.65234375 -127.499023438 752.047851562 -143.573242188 c 132,-1,84
 727.444335938 -159.647460938 727.444335938 -159.647460938 699.887695312 -159.647460938 c 4,85,86
 676.923828125 -159.647460938 676.923828125 -159.647460938 658.552734375 -150.133789062 c 132,-1,87
 640.182617188 -140.62109375 640.182617188 -140.62109375 630.013671875 -125.202148438 c 132,-1,88
 619.84375 -109.783203125 619.84375 -109.783203125 614.594726562 -93.380859375 c 132,-1,89
 609.345703125 -76.978515625 609.345703125 -76.978515625 609.345703125 -61.232421875 c 4,90,91
 609.345703125 -46.7978515625 609.345703125 -46.7978515625 614.922851562 -29.4111328125 c 132,-1,92
 620.499023438 -12.025390625 620.499023438 -12.025390625 628.372070312 3.3935546875 c 132,-1,93
 636.24609375 18.8125 636.24609375 18.8125 647.071289062 35.21484375 c 132,-1,94
 657.897460938 51.6162109375 657.897460938 51.6162109375 666.098632812 62.443359375 c 132,-1,95
 674.299804688 73.267578125 674.299804688 73.267578125 682.829101562 84.09375 c 132,-1,96
 691.358398438 94.919921875 691.358398438 94.919921875 692.670898438 96.8876953125 c 4,97,98
 722.8515625 150.032226562 722.8515625 150.032226562 722.8515625 207.768554688 c 4,99,100
 722.8515625 237.29296875 722.8515625 237.29296875 714.322265625 266.817382812 c 4,101,102
 702.51171875 306.83984375 702.51171875 306.83984375 672.987304688 338.98828125 c 132,-1,103
 643.462890625 371.137695312 643.462890625 371.137695312 606.720703125 371.137695312 c 6,104,-1
 597.536132812 371.137695312 l 6,0,1
EndSplineSet
Validated: 524297
EndChar

StartChar: uni0914
Encoding: 2324 2324 16
Width: 1018
VWidth: 794
Flags: W
LayerCount: 2
Fore
SplineSet
384.20703125 330.788085938 m 1,0,-1
 489.182617188 330.788085938 l 1,1,-1
 489.182617188 475.129882812 l 1,2,-1
 384.20703125 475.129882812 l 1,3,-1
 384.20703125 330.788085938 l 1,0,-1
394.704101562 133.958007812 m 0,4,5
 431.4453125 133.958007812 431.4453125 133.958007812 460.314453125 158.233398438 c 128,-1,6
 489.182617188 182.509765625 489.182617188 182.509765625 489.182617188 216.626953125 c 2,7,-1
 489.182617188 288.140625 l 1,8,-1
 333.030273438 288.140625 l 2,9,10
 323.189453125 288.140625 323.189453125 288.140625 312.03515625 271.083007812 c 128,-1,11
 300.881835938 254.024414062 300.881835938 254.024414062 300.881835938 237.622070312 c 0,12,13
 300.881835938 200.879882812 300.881835938 200.879882812 329.75 167.419921875 c 128,-1,14
 358.619140625 133.958007812 358.619140625 133.958007812 394.704101562 133.958007812 c 0,4,5
565.946289062 644.40234375 m 1,15,16
 610.560546875 642.434570312 610.560546875 642.434570312 659.768554688 629.969726562 c 128,-1,17
 708.975585938 617.502929688 708.975585938 617.502929688 762.120117188 590.930664062 c 128,-1,18
 815.264648438 564.360351562 815.264648438 564.360351562 856.926757812 527.6171875 c 128,-1,19
 898.587890625 490.875976562 898.587890625 490.875976562 925.81640625 434.451171875 c 128,-1,20
 953.044921875 378.026367188 953.044921875 378.026367188 953.044921875 311.760742188 c 0,21,22
 953.044921875 292.733398438 953.044921875 292.733398438 951.076171875 272.72265625 c 128,-1,23
 949.108398438 252.711914062 949.108398438 252.711914062 944.1875 223.515625 c 128,-1,24
 939.267578125 194.318359375 939.267578125 194.318359375 928.11328125 169.387695312 c 128,-1,25
 916.959960938 144.455078125 916.959960938 144.455078125 901.212890625 122.147460938 c 128,-1,26
 885.465820312 99.8408203125 885.465820312 99.8408203125 859.22265625 86.71875 c 128,-1,27
 832.978515625 73.5966796875 832.978515625 73.5966796875 799.517578125 73.5966796875 c 2,28,-1
 798.20703125 73.5966796875 l 2,29,30
 747.029296875 73.5966796875 747.029296875 73.5966796875 712.583984375 116.571289062 c 128,-1,31
 678.139648438 159.545898438 678.139648438 159.545898438 664.360351562 217.938476562 c 0,32,33
 659.112304688 245.494140625 659.112304688 245.494140625 640.7421875 266.817382812 c 128,-1,34
 622.37109375 288.140625 622.37109375 288.140625 596.126953125 288.140625 c 2,35,-1
 533.796875 288.140625 l 1,36,-1
 533.796875 216.626953125 l 2,37,38
 533.796875 160.857421875 533.796875 160.857421875 494.103515625 126.741210938 c 128,-1,39
 454.409179688 92.623046875 454.409179688 92.623046875 394.704101562 92.623046875 c 0,40,41
 336.966796875 92.623046875 336.966796875 92.623046875 295.9609375 136.25390625 c 128,-1,42
 254.955078125 179.884765625 254.955078125 179.884765625 254.955078125 237.622070312 c 0,43,44
 254.955078125 269.114257812 254.955078125 269.114257812 281.52734375 299.951171875 c 128,-1,45
 308.098632812 330.788085938 308.098632812 330.788085938 339.591796875 330.788085938 c 1,46,-1
 339.591796875 516.463867188 l 1,47,-1
 615.809570312 516.463867188 l 1,48,-1
 615.809570312 475.129882812 l 1,49,-1
 533.796875 475.129882812 l 1,50,-1
 533.796875 330.788085938 l 1,51,-1
 596.126953125 330.788085938 l 2,52,53
 638.7734375 330.788085938 638.7734375 330.788085938 666.658203125 301.262695312 c 128,-1,54
 694.541992188 271.73828125 694.541992188 271.73828125 706.352539062 227.124023438 c 0,55,56
 712.912109375 200.223632812 712.912109375 200.223632812 724.06640625 175.620117188 c 128,-1,57
 735.219726562 151.016601562 735.219726562 151.016601562 755.559570312 130.348632812 c 128,-1,58
 775.8984375 109.682617188 775.8984375 109.682617188 798.20703125 109.682617188 c 0,59,60
 825.10546875 109.682617188 825.10546875 109.682617188 846.428710938 121.8203125 c 128,-1,61
 867.752929688 133.958007812 867.752929688 133.958007812 879.890625 155.28125 c 128,-1,62
 892.028320312 176.604492188 892.028320312 176.604492188 900.229492188 198.254882812 c 128,-1,63
 908.430664062 219.907226562 908.430664062 219.907226562 911.383789062 245.494140625 c 128,-1,64
 914.334960938 271.083007812 914.334960938 271.083007812 915.319335938 284.860351562 c 128,-1,65
 916.3046875 298.639648438 916.3046875 298.639648438 916.3046875 311.760742188 c 0,66,67
 916.3046875 365.560546875 916.3046875 365.560546875 894.65234375 413.78515625 c 128,-1,68
 873.000976562 462.0078125 873.000976562 462.0078125 836.915039062 496.453125 c 128,-1,69
 800.830078125 530.8984375 800.830078125 530.8984375 755.23046875 556.158203125 c 128,-1,70
 709.631835938 581.41796875 709.631835938 581.41796875 661.080078125 593.883789062 c 128,-1,71
 612.529296875 606.349609375 612.529296875 606.349609375 565.946289062 607.005859375 c 1,72,-1
 565.946289062 644.40234375 l 1,15,16
EndSplineSet
Validated: 524289
EndChar

StartChar: uni0915
Encoding: 2325 2325 17
Width: 904
VWidth: 803
Flags: W
LayerCount: 2
Fore
SplineSet
409.875 228.848632812 m 0,0,1
 409.875 281.3359375 409.875 281.3359375 457.114257812 330.54296875 c 0,2,3
 462.364257812 335.79296875 462.364257812 335.79296875 487.951171875 358.100585938 c 128,-1,4
 513.538085938 380.408203125 513.538085938 380.408203125 515.506835938 382.376953125 c 0,5,6
 541.750976562 408.620117188 541.750976562 408.620117188 550.936523438 426.334960938 c 128,-1,7
 560.122070312 444.048828125 560.122070312 444.048828125 560.122070312 480.791015625 c 0,8,9
 560.122070312 526.717773438 560.122070312 526.717773438 516.818359375 557.5546875 c 128,-1,10
 473.517578125 588.390625 473.517578125 588.390625 421.029296875 588.390625 c 0,11,12
 384.943359375 588.390625 384.943359375 588.390625 350.826171875 568.708007812 c 0,13,14
 319.333007812 550.993164062 319.333007812 550.993164062 298.338867188 515.563476562 c 1,15,-1
 308.1796875 515.563476562 l 2,16,17
 337.704101562 515.563476562 337.704101562 515.563476562 359.68359375 489.3203125 c 128,-1,18
 381.663085938 463.076171875 381.663085938 463.076171875 381.663085938 430.927734375 c 0,19,20
 381.663085938 391.560546875 381.663085938 391.560546875 361.65234375 366.62890625 c 128,-1,21
 341.639648438 341.697265625 341.639648438 341.697265625 304.2421875 341.697265625 c 0,22,23
 267.500976562 341.697265625 267.500976562 341.697265625 245.521484375 370.23828125 c 128,-1,24
 223.541992188 398.778320312 223.541992188 398.778320312 223.541992188 439.45703125 c 0,25,26
 223.541992188 459.794921875 223.541992188 459.794921875 232.072265625 489.975585938 c 0,27,28
 257.00390625 570.020507812 257.00390625 570.020507812 325.89453125 610.698242188 c 0,29,30
 370.509765625 636.942382812 370.509765625 636.942382812 423.65234375 636.942382812 c 0,31,32
 497.135742188 636.942382812 497.135742188 636.942382812 549.296875 594.952148438 c 128,-1,33
 601.45703125 552.961914062 601.45703125 552.961914062 609.986328125 487.352539062 c 0,34,35
 615.234375 441.424804688 615.234375 441.424804688 599.159179688 409.604492188 c 128,-1,36
 583.084960938 377.782226562 583.084960938 377.782226562 549.623046875 346.946289062 c 0,37,38
 503.697265625 308.891601562 503.697265625 308.891601562 493.19921875 295.76953125 c 1,39,-1
 492.54296875 295.76953125 l 1,40,41
 474.829101562 278.055664062 474.829101562 278.055664062 467.284179688 263.29296875 c 128,-1,42
 459.73828125 248.530273438 459.73828125 248.530273438 459.73828125 228.848632812 c 0,43,44
 459.73828125 192.762695312 459.73828125 192.762695312 494.51171875 184.889648438 c 0,45,46
 504.352539062 182.920898438 504.352539062 182.920898438 523.379882812 182.920898438 c 2,47,-1
 821.90625 182.920898438 l 1,48,-1
 821.90625 439.45703125 l 1,49,-1
 870.458007812 439.45703125 l 1,50,-1
 870.458007812 133.057617188 l 1,51,-1
 523.379882812 133.057617188 l 2,52,53
 497.79296875 133.057617188 497.79296875 133.057617188 484.013671875 136.994140625 c 0,54,55
 450.552734375 142.899414062 450.552734375 142.899414062 430.21484375 167.502929688 c 128,-1,56
 409.875 192.106445312 409.875 192.106445312 409.875 228.848632812 c 0,0,1
306.2109375 391.560546875 m 0,57,58
 331.799804688 391.560546875 331.799804688 391.560546875 331.799804688 428.958984375 c 0,59,60
 331.799804688 443.392578125 331.799804688 443.392578125 323.59765625 454.875 c 128,-1,61
 315.396484375 466.35546875 315.396484375 466.35546875 302.930664062 466.35546875 c 0,62,63
 272.75 466.35546875 272.75 466.35546875 274.71875 425.677734375 c 0,64,65
 275.375 412.555664062 275.375 412.555664062 284.231445312 402.05859375 c 128,-1,66
 293.088867188 391.560546875 293.088867188 391.560546875 306.2109375 391.560546875 c 0,57,58
EndSplineSet
Validated: 524321
EndChar

StartChar: uni0916
Encoding: 2326 2326 18
Width: 846
VWidth: 768
Flags: W
LayerCount: 2
Fore
SplineSet
216.754882812 -67.6923828125 m 1,0,1
 216.754882812 23.505859375 216.754882812 23.505859375 241.6875 75.3388671875 c 128,-1,2
 266.619140625 127.168945312 266.619140625 127.168945312 325.66796875 163.255859375 c 0,3,4
 357.16015625 182.283203125 357.16015625 182.283203125 433.923828125 194.748046875 c 128,-1,5
 510.6875 207.213867188 510.6875 207.213867188 583.84375 220.0078125 c 128,-1,6
 656.998046875 232.802734375 656.998046875 232.802734375 685.2109375 253.796875 c 0,7,8
 763.286132812 316.125976562 763.286132812 316.125976562 763.286132812 404.043945312 c 2,9,-1
 763.286132812 407.32421875 l 2,10,11
 763.286132812 486.056640625 763.286132812 486.056640625 706.862304688 538.873046875 c 128,-1,12
 650.4375 591.688476562 650.4375 591.688476562 568.424804688 591.688476562 c 0,13,14
 515.280273438 591.688476562 515.280273438 591.688476562 472.305664062 569.708007812 c 128,-1,15
 429.331054688 547.73046875 429.331054688 547.73046875 410.3046875 510.333007812 c 1,16,17
 429.987304688 527.390625 429.987304688 527.390625 458.19921875 527.390625 c 0,18,19
 502.814453125 527.390625 502.814453125 527.390625 536.931640625 492.9453125 c 128,-1,20
 571.048828125 458.5 571.048828125 458.5 571.048828125 412.573242188 c 2,21,-1
 571.048828125 411.260742188 l 2,22,23
 571.048828125 355.493164062 571.048828125 355.493164062 541.196289062 321.704101562 c 128,-1,24
 511.34375 287.9140625 511.34375 287.9140625 458.856445312 287.9140625 c 0,25,26
 403.087890625 287.9140625 403.087890625 287.9140625 373.891601562 326.625 c 128,-1,27
 344.6953125 365.333984375 344.6953125 365.333984375 344.6953125 430.287109375 c 0,28,29
 344.6953125 540.512695312 344.6953125 540.512695312 428.01953125 595.625976562 c 0,30,31
 498.877929688 641.552734375 498.877929688 641.552734375 594.668945312 629.0859375 c 0,32,33
 689.803710938 616.62109375 689.803710938 616.62109375 750.1640625 553.634765625 c 0,34,35
 807.245117188 493.9296875 807.245117188 493.9296875 807.245117188 407.32421875 c 2,36,-1
 807.245117188 404.043945312 l 2,37,38
 807.245117188 287.258789062 807.245117188 287.258789062 711.454101562 219.680664062 c 0,39,40
 686.522460938 201.30859375 686.522460938 201.30859375 635.34765625 189.827148438 c 128,-1,41
 584.170898438 178.345703125 584.170898438 178.345703125 534.307617188 173.096679688 c 128,-1,42
 484.444335938 167.84765625 484.444335938 167.84765625 429.987304688 156.0390625 c 128,-1,43
 375.530273438 144.228515625 375.530273438 144.228515625 346.663085938 125.858398438 c 1,44,45
 260.713867188 83.2109375 260.713867188 83.2109375 260.713867188 -67.6923828125 c 1,46,-1
 216.754882812 -67.6923828125 l 1,0,1
459.51171875 483.432617188 m 2,47,-1
 458.856445312 483.432617188 l 2,48,49
 432.611328125 483.432617188 432.611328125 483.432617188 410.6328125 462.109375 c 128,-1,50
 388.65234375 440.786132812 388.65234375 440.786132812 388.65234375 415.198242188 c 0,51,52
 388.65234375 379.11328125 388.65234375 379.11328125 408.0078125 355.493164062 c 128,-1,53
 427.364257812 331.873046875 427.364257812 331.873046875 458.856445312 331.873046875 c 0,54,55
 525.778320312 331.873046875 525.778320312 331.873046875 525.778320312 412.573242188 c 0,56,57
 525.778320312 441.442382812 525.778320312 441.442382812 506.422851562 462.4375 c 128,-1,58
 487.068359375 483.432617188 487.068359375 483.432617188 459.51171875 483.432617188 c 2,47,-1
EndSplineSet
Validated: 524321
EndChar

StartChar: uni0917
Encoding: 2327 2327 19
Width: 884
VWidth: 787
Flags: W
LayerCount: 2
Fore
SplineSet
674.092773438 379.053710938 m 1,0,1
 683.279296875 381.677734375 683.279296875 381.677734375 701.6484375 381.677734375 c 0,2,3
 723.30078125 381.677734375 723.30078125 381.677734375 740.360351562 375.7734375 c 0,4,5
 779.069335938 364.620117188 779.069335938 364.620117188 805.3125 336.408203125 c 0,6,7
 828.27734375 311.475585938 828.27734375 311.475585938 842.0546875 272.765625 c 1,8,-1
 842.709960938 271.453125 l 1,9,10
 850.583984375 239.9609375 850.583984375 239.9609375 850.583984375 215.684570312 c 128,-1,11
 850.583984375 191.408203125 850.583984375 191.408203125 842.709960938 158.603515625 c 1,12,-1
 842.0546875 158.603515625 l 1,13,14
 824.33984375 104.147460938 824.33984375 104.147460938 781.694335938 62.1572265625 c 0,15,16
 733.142578125 14.91796875 733.142578125 14.91796875 663.596679688 -2.7958984375 c 0,17,18
 624.885742188 -13.2939453125 624.885742188 -13.2939453125 584.864257812 -13.2939453125 c 0,19,20
 562.555664062 -13.2939453125 562.555664062 -13.2939453125 530.408203125 -8.7021484375 c 0,21,22
 440.521484375 3.1083984375 440.521484375 3.1083984375 369.006835938 52.3154296875 c 0,23,24
 291.5859375 104.8046875 291.5859375 104.8046875 254.189453125 183.536132812 c 0,25,26
 219.416015625 256.364257812 219.416015625 256.364257812 219.416015625 332.470703125 c 0,27,28
 219.416015625 399.392578125 219.416015625 399.392578125 244.34765625 466.315429688 c 0,29,30
 273.873046875 552.264648438 273.873046875 552.264648438 339.482421875 613.9375 c 0,31,32
 412.309570312 679.547851562 412.309570312 679.547851562 498.915039062 692.013671875 c 0,33,34
 519.91015625 695.293945312 519.91015625 695.293945312 524.501953125 695.293945312 c 0,35,36
 621.604492188 695.293945312 621.604492188 695.293945312 693.120117188 643.462890625 c 2,37,-1
 700.993164062 637.556640625 l 1,38,-1
 695.745117188 630.99609375 l 1,39,-1
 679.998046875 607.376953125 l 1,40,-1
 674.092773438 599.502929688 l 1,41,-1
 666.219726562 604.752929688 l 2,42,43
 606.514648438 647.3984375 606.514648438 647.3984375 539.591796875 647.3984375 c 0,44,45
 529.750976562 647.3984375 529.750976562 647.3984375 506.131835938 644.774414062 c 0,46,47
 430.024414062 634.932617188 430.024414062 634.932617188 370.974609375 578.5078125 c 0,48,49
 316.517578125 527.98828125 316.517578125 527.98828125 288.305664062 451.224609375 c 0,50,51
 267.310546875 392.174804688 267.310546875 392.174804688 267.310546875 333.126953125 c 0,52,53
 267.310546875 266.860351562 267.310546875 266.860351562 297.4921875 204.530273438 c 0,54,55
 330.297851562 137.609375 330.297851562 137.609375 395.907226562 92.3388671875 c 0,56,57
 456.267578125 50.34765625 456.267578125 50.34765625 537.623046875 38.537109375 c 0,58,59
 557.307617188 35.2578125 557.307617188 35.2578125 583.55078125 35.2578125 c 0,60,61
 618.98046875 35.2578125 618.98046875 35.2578125 650.474609375 43.130859375 c 0,62,63
 710.178710938 59.5341796875 710.178710938 59.5341796875 748.888671875 96.2744140625 c 0,64,65
 780.380859375 125.143554688 780.380859375 125.143554688 796.126953125 171.7265625 c 0,66,67
 802.033203125 196.001953125 802.033203125 196.001953125 802.033203125 215.684570312 c 0,68,69
 802.033203125 236.6796875 802.033203125 236.6796875 796.126953125 258.331054688 c 0,70,71
 788.254882812 284.575195312 788.254882812 284.575195312 770.540039062 302.946289062 c 0,72,73
 751.513671875 322.62890625 751.513671875 322.62890625 727.237304688 329.846679688 c 0,74,75
 715.426757812 333.782226562 715.426757812 333.782226562 704.2734375 333.782226562 c 0,76,77
 685.903320312 333.782226562 685.903320312 333.782226562 666.219726562 324.59765625 c 1,78,79
 660.315429688 309.506835938 660.315429688 309.506835938 657.690429688 304.915039062 c 0,80,81
 638.6640625 273.421875 638.6640625 273.421875 608.482421875 255.70703125 c 0,82,83
 597.329101562 249.145507812 597.329101562 249.145507812 582.895507812 257.67578125 c 1,84,-1
 582.239257812 257.67578125 l 1,85,-1
 581.583984375 258.331054688 l 2,86,87
 569.7734375 268.172851562 569.7734375 268.172851562 573.709960938 283.262695312 c 0,88,89
 587.48828125 328.534179688 587.48828125 328.534179688 626.198242188 356.08984375 c 0,90,91
 626.198242188 358.05859375 626.198242188 358.05859375 625.870117188 362.979492188 c 128,-1,92
 625.541992188 367.899414062 625.541992188 367.899414062 625.541992188 371.181640625 c 0,93,94
 625.541992188 395.45703125 625.541992188 395.45703125 613.732421875 411.859375 c 0,95,96
 600.610351562 431.541992188 600.610351562 431.541992188 580.927734375 440.727539062 c 1,97,-1
 579.615234375 440.727539062 l 1,98,99
 563.868164062 448.599609375 563.868164062 448.599609375 547.465820312 448.599609375 c 0,100,101
 538.936523438 448.599609375 538.936523438 448.599609375 527.126953125 446.631835938 c 0,102,103
 496.946289062 440.727539062 496.946289062 440.727539062 476.607421875 420.388671875 c 0,104,105
 445.114257812 390.864257812 445.114257812 390.864257812 445.114257812 348.217773438 c 0,106,107
 445.114257812 341 445.114257812 341 447.73828125 323.94140625 c 2,108,-1
 449.05078125 314.100585938 l 1,109,-1
 439.865234375 312.788085938 l 1,110,-1
 412.309570312 306.8828125 l 1,111,-1
 402.467773438 304.915039062 l 1,112,-1
 401.15625 314.100585938 l 2,113,114
 397.21875 331.814453125 397.21875 331.814453125 397.21875 348.873046875 c 0,115,116
 397.21875 408.578125 397.21875 408.578125 443.145507812 454.505859375 c 0,117,118
 474.639648438 484.029296875 474.639648438 484.029296875 516.62890625 493.872070312 c 0,119,120
 539.591796875 497.151367188 539.591796875 497.151367188 544.185546875 497.151367188 c 0,121,122
 570.428710938 497.151367188 570.428710938 497.151367188 601.266601562 484.029296875 c 0,123,124
 634.727539062 466.970703125 634.727539062 466.970703125 652.44140625 438.7578125 c 0,125,126
 672.125 408.578125 672.125 408.578125 674.092773438 379.053710938 c 1,0,1
EndSplineSet
Validated: 524289
EndChar

StartChar: uni0918
Encoding: 2328 2328 20
Width: 1077
VWidth: 728
Flags: W
LayerCount: 2
Fore
SplineSet
728.108398438 448.810546875 m 1,0,-1
 728.108398438 317.590820312 l 1,1,-1
 821.2734375 317.590820312 l 1,2,-1
 821.2734375 448.810546875 l 1,3,-1
 728.108398438 448.810546875 l 1,0,-1
434.174804688 148.31640625 m 0,4,5
 459.106445312 148.31640625 459.106445312 148.31640625 474.852539062 169.3125 c 0,6,7
 490.598632812 191.620117188 490.598632812 191.620117188 490.598632812 223.768554688 c 0,8,9
 490.598632812 250.668945312 490.598632812 250.668945312 474.852539062 270.352539062 c 0,10,11
 459.106445312 288.72265625 459.106445312 288.72265625 434.174804688 288.72265625 c 0,12,13
 409.899414062 288.72265625 409.899414062 288.72265625 394.809570312 270.352539062 c 0,14,15
 379.0625 251.98046875 379.0625 251.98046875 379.0625 223.768554688 c 0,16,17
 379.0625 190.962890625 379.0625 190.962890625 394.809570312 169.3125 c 0,18,19
 410.5546875 148.31640625 410.5546875 148.31640625 434.174804688 148.31640625 c 0,4,5
737.29296875 137.818359375 m 0,20,21
 769.44140625 137.818359375 769.44140625 137.818359375 797.654296875 161.439453125 c 0,22,23
 821.2734375 181.778320312 821.2734375 181.778320312 821.2734375 213.927734375 c 2,24,-1
 821.2734375 279.537109375 l 1,25,-1
 679.555664062 279.537109375 l 2,26,27
 661.841796875 279.537109375 661.841796875 279.537109375 648.063476562 266.415039062 c 0,28,29
 634.94140625 251.98046875 634.94140625 251.98046875 634.94140625 232.954101562 c 0,30,31
 634.94140625 194.244140625 634.94140625 194.244140625 663.809570312 166.6875 c 0,32,33
 695.958984375 137.818359375 695.958984375 137.818359375 737.29296875 137.818359375 c 0,20,21
679.555664062 378.608398438 m 1,34,-1
 679.555664062 485.552734375 l 1,35,-1
 1001.04492188 485.552734375 l 1,36,-1
 1001.04492188 448.810546875 l 1,37,-1
 868.513671875 448.810546875 l 1,38,-1
 868.513671875 317.590820312 l 1,39,-1
 906.567382812 317.590820312 l 2,40,41
 960.3671875 317.590820312 960.3671875 317.590820312 998.420898438 283.474609375 c 0,42,43
 1037.78710938 250.668945312 1037.78710938 250.668945312 1037.78710938 204.084960938 c 0,44,45
 1037.78710938 124.697265625 1037.78710938 124.697265625 986.611328125 70.8974609375 c 0,46,47
 934.123046875 15.78515625 934.123046875 15.78515625 859.328125 15.78515625 c 1,48,-1
 375.125 -10.458984375 l 2,49,50
 352.162109375 -10.458984375 352.162109375 -10.458984375 335.759765625 -29.486328125 c 0,51,52
 320.013671875 -47.8564453125 320.013671875 -47.8564453125 320.013671875 -74.7578125 c 0,53,54
 320.013671875 -97.064453125 320.013671875 -97.064453125 329.19921875 -112.155273438 c 0,55,56
 340.352539062 -129.869140625 340.352539062 -129.869140625 356.754882812 -141.0234375 c 1,57,-1
 329.19921875 -175.139648438 l 1,58,59
 302.955078125 -158.08203125 302.955078125 -158.08203125 285.895507812 -132.494140625 c 0,60,61
 271.461914062 -108.21875 271.461914062 -108.21875 271.461914062 -74.7578125 c 0,62,63
 271.461914062 -31.4541015625 271.461914062 -31.4541015625 300.330078125 -2.5859375 c 0,64,65
 331.823242188 28.25 331.823242188 28.25 375.125 28.25 c 2,66,-1
 859.328125 54.494140625 l 1,67,68
 913.126953125 54.494140625 913.126953125 54.494140625 952.494140625 97.796875 c 0,69,70
 990.547851562 142.412109375 990.547851562 142.412109375 990.547851562 204.084960938 c 0,71,72
 990.547851562 235.578125 990.547851562 235.578125 965.615234375 257.23046875 c 0,73,74
 941.33984375 279.537109375 941.33984375 279.537109375 906.567382812 279.537109375 c 2,75,-1
 868.513671875 279.537109375 l 1,76,-1
 868.513671875 213.927734375 l 2,77,78
 868.513671875 168 868.513671875 168 830.458984375 133.8828125 c 0,79,80
 791.75 101.077148438 791.75 101.077148438 737.29296875 101.077148438 c 0,81,82
 675.620117188 101.077148438 675.620117188 101.077148438 631.004882812 140.444335938 c 0,83,84
 587.703125 179.809570312 587.703125 179.809570312 587.703125 232.954101562 c 0,85,86
 587.703125 265.7578125 587.703125 265.7578125 615.2578125 291.34765625 c 0,87,88
 634.28515625 309.061523438 634.28515625 309.061523438 654.623046875 314.309570312 c 1,89,90
 654.623046875 365.486328125 654.623046875 365.486328125 608.697265625 412.725585938 c 0,91,92
 548.3359375 473.086914062 548.3359375 473.086914062 470.916015625 473.086914062 c 0,93,94
 399.401367188 473.086914062 399.401367188 473.086914062 343.6328125 408.7890625 c 0,95,96
 302.955078125 360.893554688 302.955078125 360.893554688 302.955078125 288.72265625 c 0,97,98
 302.955078125 253.94921875 302.955078125 253.94921875 317.388671875 221.143554688 c 0,99,100
 331.16796875 188.995117188 331.16796875 188.995117188 359.37890625 166.6875 c 1,101,102
 349.537109375 183.08984375 349.537109375 183.08984375 344.9453125 197.524414062 c 0,103,104
 341.008789062 213.927734375 341.008789062 213.927734375 341.008789062 223.768554688 c 0,105,106
 341.008789062 267.727539062 341.008789062 267.727539062 367.252929688 296.596679688 c 0,107,108
 394.809570312 326.776367188 394.809570312 326.776367188 434.174804688 326.776367188 c 256,109,110
 473.541015625 326.776367188 473.541015625 326.776367188 501.096679688 296.596679688 c 0,111,112
 528.65234375 267.071289062 528.65234375 267.071289062 528.65234375 223.768554688 c 0,113,114
 528.65234375 172.591796875 528.65234375 172.591796875 495.848632812 137.818359375 c 0,115,116
 461.075195312 101.077148438 461.075195312 101.077148438 415.8046875 101.077148438 c 0,117,118
 353.474609375 101.077148438 353.474609375 101.077148438 309.515625 156.846679688 c 0,119,120
 266.212890625 211.958984375 266.212890625 211.958984375 266.212890625 288.72265625 c 0,121,122
 266.212890625 376.639648438 266.212890625 376.639648438 317.388671875 435.689453125 c 0,123,124
 381.6875 511.139648438 381.6875 511.139648438 470.916015625 511.139648438 c 0,125,126
 563.426757812 511.139648438 563.426757812 511.139648438 638.877929688 439.625 c 0,127,128
 666.434570312 412.069335938 666.434570312 412.069335938 679.555664062 378.608398438 c 1,34,-1
EndSplineSet
Validated: 524289
EndChar

StartChar: uni0919
Encoding: 2329 2329 21
Width: 1028
VWidth: 791
Flags: W
LayerCount: 2
Fore
SplineSet
385.8046875 237.323242188 m 1,0,-1
 480.938476562 237.323242188 l 1,1,-1
 480.938476562 369.19921875 l 1,2,-1
 385.8046875 369.19921875 l 1,3,-1
 385.8046875 237.323242188 l 1,0,-1
574.760742188 519.446289062 m 0,4,5
 595.755859375 519.446289062 595.755859375 519.446289062 607.565429688 535.19140625 c 0,6,7
 622 554.21875 622 554.21875 622 575.21484375 c 0,8,9
 622 598.178710938 622 598.178710938 606.91015625 615.236328125 c 0,10,11
 591.163085938 632.951171875 591.163085938 632.951171875 574.760742188 632.951171875 c 0,12,13
 556.389648438 632.951171875 556.389648438 632.951171875 540.64453125 615.236328125 c 0,14,15
 526.865234375 599.490234375 526.865234375 599.490234375 526.865234375 575.21484375 c 0,16,17
 526.865234375 552.250976562 526.865234375 552.250976562 540.64453125 535.19140625 c 0,18,19
 554.421875 519.446289062 554.421875 519.446289062 574.760742188 519.446289062 c 0,4,5
396.301757812 59.51953125 m 0,20,21
 429.762695312 59.51953125 429.762695312 59.51953125 455.3515625 81.171875 c 128,-1,22
 480.938476562 102.821289062 480.938476562 102.821289062 480.938476562 133.659179688 c 2,23,-1
 480.938476562 199.92578125 l 1,24,-1
 339.220703125 199.92578125 l 2,25,26
 320.194335938 199.92578125 320.194335938 199.92578125 306.415039062 186.147460938 c 0,27,28
 292.637695312 173.680664062 292.637695312 173.680664062 292.637695312 153.341796875 c 0,29,30
 292.637695312 114.6328125 292.637695312 114.6328125 322.817382812 87.076171875 c 0,31,32
 352.342773438 59.51953125 352.342773438 59.51953125 396.301757812 59.51953125 c 0,20,21
638.40234375 641.48046875 m 1,33,34
 668.583984375 613.268554688 668.583984375 613.268554688 668.583984375 575.21484375 c 0,35,36
 668.583984375 537.81640625 668.583984375 537.81640625 641.026367188 510.260742188 c 0,37,38
 612.158203125 481.391601562 612.158203125 481.391601562 574.760742188 481.391601562 c 0,39,40
 538.01953125 481.391601562 538.01953125 481.391601562 509.150390625 510.260742188 c 0,41,42
 480.938476562 538.47265625 480.938476562 538.47265625 480.938476562 575.21484375 c 0,43,44
 480.938476562 597.521484375 480.938476562 597.521484375 490.780273438 613.923828125 c 128,-1,45
 500.622070312 630.326171875 500.622070312 630.326171875 518.9921875 641.48046875 c 1,46,47
 480.282226562 634.263671875 480.282226562 634.263671875 457.318359375 608.674804688 c 0,48,49
 433.04296875 581.775390625 433.04296875 581.775390625 433.04296875 547.658203125 c 0,50,51
 433.04296875 512.228515625 433.04296875 512.228515625 461.254882812 472.20703125 c 0,52,53
 485.530273438 437.43359375 485.530273438 437.43359375 538.01953125 407.908203125 c 1,54,-1
 668.583984375 407.908203125 l 1,55,-1
 668.583984375 369.19921875 l 1,56,-1
 526.865234375 369.19921875 l 1,57,-1
 526.865234375 237.323242188 l 1,58,-1
 583.946289062 237.323242188 l 2,59,60
 627.904296875 237.323242188 627.904296875 237.323242188 657.428710938 207.797851562 c 0,61,62
 687.610351562 177.6171875 687.610351562 177.6171875 687.610351562 133.659179688 c 0,63,64
 687.610351562 88.388671875 687.610351562 88.388671875 660.053710938 54.9267578125 c 0,65,66
 631.841796875 20.8095703125 631.841796875 20.8095703125 593.131835938 20.8095703125 c 0,67,68
 582.634765625 20.8095703125 582.634765625 20.8095703125 570.825195312 24.7470703125 c 0,69,70
 558.358398438 26.71484375 558.358398438 26.71484375 545.891601562 30.6513671875 c 1,71,-1
 555.077148438 68.048828125 l 1,72,73
 559.013671875 66.736328125 559.013671875 66.736328125 565.248046875 64.7685546875 c 128,-1,74
 571.48046875 62.7998046875 571.48046875 62.7998046875 574.104492188 61.48828125 c 0,75,76
 579.352539062 59.51953125 579.352539062 59.51953125 593.131835938 59.51953125 c 0,77,78
 612.814453125 59.51953125 612.814453125 59.51953125 626.591796875 81.171875 c 0,79,80
 641.026367188 104.134765625 641.026367188 104.134765625 641.026367188 133.659179688 c 0,81,82
 641.026367188 161.21484375 641.026367188 161.21484375 624.623046875 180.897460938 c 0,83,84
 608.877929688 199.92578125 608.877929688 199.92578125 583.946289062 199.92578125 c 2,85,-1
 526.865234375 199.92578125 l 1,86,-1
 526.865234375 133.659179688 l 2,87,88
 526.865234375 87.076171875 526.865234375 87.076171875 488.811523438 54.9267578125 c 0,89,90
 448.7890625 20.8095703125 448.7890625 20.8095703125 396.301757812 20.8095703125 c 0,91,92
 335.284179688 20.8095703125 335.284179688 20.8095703125 290.013671875 60.17578125 c 128,-1,93
 244.7421875 99.5419921875 244.7421875 99.5419921875 244.7421875 153.341796875 c 0,94,95
 244.7421875 187.458984375 244.7421875 187.458984375 272.955078125 212.391601562 c 128,-1,96
 301.16796875 237.323242188 301.16796875 237.323242188 339.220703125 237.323242188 c 1,97,-1
 339.220703125 407.908203125 l 1,98,-1
 471.096679688 407.908203125 l 1,99,100
 431.075195312 429.560546875 431.075195312 429.560546875 408.767578125 467.614257812 c 0,101,102
 385.8046875 506.32421875 385.8046875 506.32421875 385.8046875 547.658203125 c 0,103,104
 385.8046875 604.08203125 385.8046875 604.08203125 427.79296875 641.48046875 c 0,105,106
 466.504882812 678.221679688 466.504882812 678.221679688 526.865234375 678.221679688 c 0,107,108
 557.703125 678.221679688 557.703125 678.221679688 570.825195312 675.59765625 c 1,109,110
 597.724609375 680.19140625 597.724609375 680.19140625 644.307617188 680.19140625 c 0,111,112
 656.7734375 680.19140625 656.7734375 680.19140625 668.583984375 678.221679688 c 2,113,-1
 672.51953125 678.221679688 l 2,114,115
 716.478515625 678.221679688 716.478515625 678.221679688 749.283203125 665.755859375 c 0,116,117
 801.115234375 642.79296875 801.115234375 642.79296875 807.676757812 601.458984375 c 0,118,119
 810.30078125 593.584960938 810.30078125 593.584960938 810.30078125 579.151367188 c 0,120,121
 810.30078125 547.658203125 810.30078125 547.658203125 791.2734375 519.446289062 c 0,122,123
 784.712890625 509.603515625 784.712890625 509.603515625 772.24609375 495.826171875 c 1,124,-1
 999.2578125 495.826171875 l 1,125,-1
 999.2578125 457.116210938 l 1,126,-1
 687.610351562 457.116210938 l 1,127,128
 746.66015625 522.069335938 746.66015625 522.069335938 749.283203125 537.81640625 c 1,129,130
 763.717773438 557.499023438 763.717773438 557.499023438 763.717773438 579.151367188 c 0,131,132
 763.717773438 587.6796875 763.717773438 587.6796875 760.4375 595.552734375 c 0,133,134
 755.84375 621.797851562 755.84375 621.797851562 728.944335938 632.951171875 c 0,135,136
 707.29296875 641.48046875 707.29296875 641.48046875 672.51953125 641.48046875 c 2,137,-1
 668.583984375 641.48046875 l 1,138,-1
 661.365234375 641.48046875 l 2,139,140
 658.7421875 641.48046875 658.7421875 641.48046875 653.1640625 641.80859375 c 128,-1,141
 647.587890625 642.135742188 647.587890625 642.135742188 644.962890625 642.135742188 c 0,142,143
 643.65234375 642.135742188 643.65234375 642.135742188 641.68359375 641.80859375 c 128,-1,144
 639.71484375 641.48046875 639.71484375 641.48046875 638.40234375 641.48046875 c 1,33,34
EndSplineSet
Validated: 524289
EndChar

StartChar: uni091A
Encoding: 2330 2330 22
Width: 1244
VWidth: 764
Flags: W
LayerCount: 2
Fore
SplineSet
484.966796875 446.834960938 m 0,0,1
 519.741210938 446.834960938 519.741210938 446.834960938 548.609375 437.6484375 c 128,-1,2
 577.477539062 428.463867188 577.477539062 428.463867188 595.51953125 413.373046875 c 128,-1,3
 613.5625 398.283203125 613.5625 398.283203125 624.388671875 384.505859375 c 128,-1,4
 635.21484375 370.727539062 635.21484375 370.727539062 641.775390625 356.29296875 c 1,5,6
 652.272460938 376.631835938 652.272460938 376.631835938 668.01953125 394.34765625 c 128,-1,7
 683.765625 412.061523438 683.765625 412.061523438 715.915039062 428.791992188 c 128,-1,8
 748.063476562 445.522460938 748.063476562 445.522460938 786.7734375 445.522460938 c 0,9,10
 853.0390625 445.522460938 853.0390625 445.522460938 899.293945312 401.563476562 c 128,-1,11
 945.548828125 357.604492188 945.548828125 357.604492188 945.548828125 290.026367188 c 0,12,13
 945.548828125 201.453125 945.548828125 201.453125 861.568359375 144.372070312 c 1,14,-1
 1191.58691406 144.372070312 l 1,15,-1
 1200.77246094 144.372070312 l 1,16,-1
 1200.77246094 135.1875 l 1,17,-1
 1200.77246094 106.318359375 l 1,18,-1
 1200.77246094 96.4775390625 l 1,19,-1
 1191.58691406 96.4775390625 l 1,20,-1
 752 96.4775390625 l 1,21,-1
 742.814453125 96.4775390625 l 1,22,-1
 742.814453125 106.318359375 l 1,23,-1
 742.814453125 134.530273438 l 1,24,-1
 742.814453125 140.436523438 l 1,25,-1
 748.719726562 143.060546875 l 1,26,27
 793.334960938 158.150390625 793.334960938 158.150390625 811.705078125 169.3046875 c 0,28,29
 853.6953125 192.923828125 853.6953125 192.923828125 875.67578125 220.48046875 c 128,-1,30
 897.654296875 248.037109375 897.654296875 248.037109375 897.654296875 288.71484375 c 0,31,32
 897.654296875 336.610351562 897.654296875 336.610351562 866.489257812 367.119140625 c 128,-1,33
 835.32421875 397.627929688 835.32421875 397.627929688 787.428710938 397.627929688 c 0,34,35
 740.190429688 397.627929688 740.190429688 397.627929688 705.416015625 358.58984375 c 128,-1,36
 670.64453125 319.55078125 670.64453125 319.55078125 670.64453125 261.158203125 c 2,37,-1
 670.64453125 251.973632812 l 1,38,-1
 660.801757812 251.973632812 l 1,39,-1
 623.403320312 252.62890625 l 1,40,-1
 614.21875 252.62890625 l 1,41,-1
 614.21875 261.814453125 l 2,42,43
 614.875 315.615234375 614.875 315.615234375 577.150390625 357.27734375 c 128,-1,44
 539.423828125 398.939453125 539.423828125 398.939453125 488.247070312 398.939453125 c 0,45,46
 471.188476562 398.939453125 471.188476562 398.939453125 455.443359375 392.05078125 c 128,-1,47
 439.6953125 385.161132812 439.6953125 385.161132812 430.182617188 378.928710938 c 128,-1,48
 420.669921875 372.6953125 420.669921875 372.6953125 407.21875 355.635742188 c 128,-1,49
 393.768554688 338.578125 393.768554688 338.578125 390.48828125 333.658203125 c 128,-1,50
 387.208007812 328.737304688 387.208007812 328.737304688 374.7421875 309.053710938 c 1,51,52
 404.266601562 316.927734375 404.266601562 316.927734375 432.151367188 306.428710938 c 128,-1,53
 460.03515625 295.931640625 460.03515625 295.931640625 477.75 272.3125 c 0,54,55
 501.370117188 242.788085938 501.370117188 242.788085938 501.370117188 203.421875 c 0,56,57
 501.370117188 161.431640625 501.370117188 161.431640625 474.469726562 128.297851562 c 128,-1,58
 447.569335938 95.1650390625 447.569335938 95.1650390625 404.923828125 95.1650390625 c 0,59,60
 360.963867188 95.1650390625 360.963867188 95.1650390625 332.095703125 129.610351562 c 128,-1,61
 303.227539062 164.055664062 303.227539062 164.055664062 303.227539062 211.294921875 c 0,62,63
 303.227539062 244.100585938 303.227539062 244.100585938 308.475585938 270.34375 c 0,64,65
 313.725585938 293.962890625 313.725585938 293.962890625 325.53515625 318.239257812 c 0,66,67
 347.841796875 364.822265625 347.841796875 364.822265625 391.801757812 405.828125 c 128,-1,68
 435.759765625 446.834960938 435.759765625 446.834960938 484.966796875 446.834960938 c 0,0,1
401.642578125 264.439453125 m 0,69,70
 378.6796875 264.439453125 378.6796875 264.439453125 365.228515625 248.364257812 c 128,-1,71
 351.779296875 232.290039062 351.779296875 232.290039062 351.779296875 206.045898438 c 0,72,73
 351.779296875 182.426757812 351.779296875 182.426757812 364.572265625 164.383789062 c 128,-1,74
 377.366210938 146.33984375 377.366210938 146.33984375 397.049804688 143.716796875 c 0,75,76
 397.706054688 143.716796875 397.706054688 143.716796875 399.674804688 143.388671875 c 128,-1,77
 401.642578125 143.060546875 401.642578125 143.060546875 402.297851562 143.060546875 c 0,78,79
 425.91796875 143.060546875 425.91796875 143.060546875 439.6953125 160.447265625 c 128,-1,80
 453.474609375 177.833984375 453.474609375 177.833984375 453.474609375 203.421875 c 0,81,82
 453.474609375 227.697265625 453.474609375 227.697265625 438.056640625 246.068359375 c 128,-1,83
 422.637695312 264.439453125 422.637695312 264.439453125 401.642578125 264.439453125 c 0,69,70
EndSplineSet
Validated: 524321
EndChar

StartChar: uni091B
Encoding: 2331 2331 23
Width: 1609
VWidth: 769
Flags: W
LayerCount: 2
Fore
SplineSet
591.633789062 253.8828125 m 0,0,1
 613.94140625 253.8828125 613.94140625 253.8828125 631.65625 276.846679688 c 0,2,3
 650.02734375 301.122070312 650.02734375 301.122070312 650.02734375 331.958984375 c 0,4,5
 650.02734375 358.203125 650.02734375 358.203125 631.65625 379.198242188 c 0,6,7
 613.286132812 398.880859375 613.286132812 398.880859375 591.633789062 398.880859375 c 0,8,9
 566.045898438 398.880859375 566.045898438 398.880859375 549.643554688 379.198242188 c 0,10,11
 533.241210938 358.859375 533.241210938 358.859375 533.241210938 331.958984375 c 0,12,13
 533.241210938 298.498046875 533.241210938 298.498046875 549.643554688 276.846679688 c 0,14,15
 567.358398438 253.8828125 567.358398438 253.8828125 591.633789062 253.8828125 c 0,0,1
1148.00683594 120.038085938 m 2,16,-1
 1126.35644531 120.038085938 l 1,17,-1
 1126.35644531 116.7578125 l 2,18,19
 1126.35644531 74.111328125 1126.35644531 74.111328125 1148.00683594 47.8681640625 c 0,20,21
 1169.00195312 20.966796875 1169.00195312 20.966796875 1204.43066406 20.966796875 c 0,22,23
 1210.99316406 20.966796875 1210.99316406 20.966796875 1217.55273438 23.591796875 c 128,-1,24
 1224.11523438 26.216796875 1224.11523438 26.216796875 1228.70605469 30.8095703125 c 0,25,26
 1237.23632812 39.9951171875 1237.23632812 39.9951171875 1237.23632812 54.427734375 c 0,27,28
 1237.23632812 70.1748046875 1237.23632812 70.1748046875 1228.70605469 86.5771484375 c 0,29,30
 1219.52148438 100.35546875 1219.52148438 100.35546875 1205.74316406 110.196289062 c 0,31,32
 1197.21484375 115.4453125 1197.21484375 115.4453125 1182.78027344 117.743164062 c 128,-1,33
 1168.34570312 120.038085938 1168.34570312 120.038085938 1148.00683594 120.038085938 c 2,16,-1
708.419921875 5.220703125 m 0,34,35
 777.310546875 5.220703125 777.310546875 5.220703125 828.486328125 37.3701171875 c 0,36,37
 881.629882812 68.8623046875 881.629882812 68.8623046875 907.874023438 120.038085938 c 1,38,-1
 594.2578125 120.038085938 l 2,39,40
 587.041992188 120.038085938 587.041992188 120.038085938 579.82421875 114.1328125 c 0,41,42
 573.26171875 106.260742188 573.26171875 106.260742188 573.26171875 100.35546875 c 0,43,44
 573.26171875 61.6455078125 573.26171875 61.6455078125 612.62890625 33.4326171875 c 0,45,46
 652.651367188 5.220703125 652.651367188 5.220703125 708.419921875 5.220703125 c 0,34,35
937.3984375 215.172851562 m 2,47,-1
 937.3984375 561.592773438 l 1,48,-1
 793.056640625 561.592773438 l 1,49,-1
 793.056640625 215.172851562 l 1,50,-1
 745.81640625 215.172851562 l 1,51,-1
 745.81640625 407.41015625 l 2,52,53
 745.81640625 476.30078125 745.81640625 476.30078125 703.171875 524.1953125 c 0,54,55
 657.900390625 571.434570312 657.900390625 571.434570312 600.8203125 571.434570312 c 0,56,57
 541.114257812 571.434570312 541.114257812 571.434570312 499.779296875 521.572265625 c 0,58,59
 456.477539062 467.770507812 456.477539062 467.770507812 456.477539062 398.880859375 c 0,60,61
 456.477539062 360.827148438 456.477539062 360.827148438 472.223632812 329.990234375 c 0,62,63
 487.313476562 297.185546875 487.313476562 297.185546875 513.557617188 274.221679688 c 1,64,65
 503.060546875 293.249023438 503.060546875 293.249023438 499.779296875 305.71484375 c 0,66,67
 493.875976562 328.677734375 493.875976562 328.677734375 493.875976562 331.958984375 c 0,68,69
 493.875976562 374.604492188 493.875976562 374.604492188 523.399414062 406.75390625 c 0,70,71
 552.923828125 436.935546875 552.923828125 436.935546875 591.633789062 436.935546875 c 0,72,73
 629.6875 436.935546875 629.6875 436.935546875 658.556640625 406.75390625 c 0,74,75
 687.423828125 375.916992188 687.423828125 375.916992188 687.423828125 331.958984375 c 0,76,77
 687.423828125 279.470703125 687.423828125 279.470703125 653.307617188 244.041992188 c 0,78,79
 618.533203125 206.64453125 618.533203125 206.64453125 571.294921875 206.64453125 c 0,80,81
 507.65234375 206.64453125 507.65234375 206.64453125 463.038085938 262.412109375 c 0,82,83
 419.079101562 317.524414062 419.079101562 317.524414062 419.079101562 398.880859375 c 0,84,85
 419.079101562 484.830078125 419.079101562 484.830078125 472.223632812 547.81640625 c 0,86,87
 524.7109375 610.145507812 524.7109375 610.145507812 600.8203125 610.145507812 c 0,88,89
 651.338867188 610.145507812 651.338867188 610.145507812 692.673828125 589.150390625 c 0,90,91
 733.3515625 568.810546875 733.3515625 568.810546875 754.346679688 532.725585938 c 1,92,-1
 754.346679688 600.959960938 l 1,93,-1
 1091.58203125 600.959960938 l 1,94,-1
 1091.58203125 561.592773438 l 1,95,-1
 984.637695312 561.592773438 l 1,96,-1
 984.637695312 215.172851562 l 2,97,98
 984.637695312 186.9609375 984.637695312 186.9609375 974.796875 157.436523438 c 1,99,-1
 1094.86230469 157.436523438 l 1,100,101
 1106.01660156 189.584960938 1106.01660156 189.584960938 1135.54101562 215.172851562 c 0,102,103
 1180.15429688 253.8828125 1180.15429688 253.8828125 1230.01953125 253.8828125 c 0,104,105
 1286.44335938 253.8828125 1286.44335938 253.8828125 1330.40332031 206.64453125 c 1,106,107
 1373.70507812 164.65234375 1373.70507812 164.65234375 1373.70507812 117.4140625 c 0,108,109
 1373.70507812 63.6142578125 1373.70507812 63.6142578125 1359.92675781 20.966796875 c 1,110,-1
 1525.92089844 20.966796875 l 1,111,-1
 1525.92089844 -17.7421875 l 1,112,-1
 1296.94140625 -17.7421875 l 1,113,-1
 1313.34375 11.1259765625 l 2,114,115
 1324.49804688 30.15234375 1324.49804688 30.15234375 1329.41894531 56.0693359375 c 128,-1,116
 1334.33886719 81.984375 1334.33886719 81.984375 1334.33886719 116.7578125 c 0,117,118
 1334.33886719 149.5625 1334.33886719 149.5625 1304.15917969 179.743164062 c 0,119,120
 1270.04101562 215.172851562 1270.04101562 215.172851562 1230.01953125 215.172851562 c 0,121,122
 1194.58984375 215.172851562 1194.58984375 215.172851562 1161.78515625 185.647460938 c 0,123,124
 1146.03808594 172.525390625 1146.03808594 172.525390625 1138.16601562 157.436523438 c 1,125,126
 1202.46289062 157.436523438 1202.46289062 157.436523438 1227.39550781 143.001953125 c 1,127,128
 1249.04589844 127.254882812 1249.04589844 127.254882812 1261.51171875 106.260742188 c 0,129,130
 1275.2890625 82.640625 1275.2890625 82.640625 1275.2890625 54.427734375 c 0,131,132
 1275.2890625 47.2109375 1275.2890625 47.2109375 1274.30566406 40.3212890625 c 128,-1,133
 1273.32226562 33.4326171875 1273.32226562 33.4326171875 1270.69726562 26.873046875 c 128,-1,134
 1268.07324219 20.310546875 1268.07324219 20.310546875 1264.13574219 14.078125 c 128,-1,135
 1260.20019531 7.8447265625 1260.20019531 7.8447265625 1254.95117188 3.2529296875 c 0,136,137
 1244.45410156 -7.2451171875 1244.45410156 -7.2451171875 1231.98828125 -12.494140625 c 128,-1,138
 1219.52148438 -17.7421875 1219.52148438 -17.7421875 1204.43066406 -17.7421875 c 0,139,140
 1151.94335938 -17.7421875 1151.94335938 -17.7421875 1117.17089844 24.248046875 c 1,141,142
 1088.95800781 62.9580078125 1088.95800781 62.9580078125 1088.95800781 116.7578125 c 2,143,-1
 1088.95800781 120.038085938 l 1,144,-1
 956.42578125 120.038085938 l 1,145,146
 923.620117188 49.1796875 923.620117188 49.1796875 858.010742188 7.8447265625 c 0,147,148
 791.744140625 -34.14453125 791.744140625 -34.14453125 708.419921875 -34.14453125 c 0,149,150
 632.3125 -34.14453125 632.3125 -34.14453125 579.16796875 5.220703125 c 0,151,152
 526.0234375 45.2421875 526.0234375 45.2421875 526.0234375 100.35546875 c 0,153,154
 526.0234375 124.631835938 526.0234375 124.631835938 546.36328125 141.690429688 c 0,155,156
 564.078125 157.436523438 564.078125 157.436523438 594.2578125 157.436523438 c 2,157,-1
 928.213867188 157.436523438 l 1,158,159
 937.3984375 184.9921875 937.3984375 184.9921875 937.3984375 215.172851562 c 2,47,-1
EndSplineSet
Validated: 524289
EndChar

StartChar: uni091C
Encoding: 2332 2332 24
Width: 1202
VWidth: 765
Flags: W
LayerCount: 2
Fore
SplineSet
520.8125 242.3671875 m 0,0,1
 545.088867188 242.3671875 545.088867188 242.3671875 560.178710938 264.67578125 c 0,2,3
 576.581054688 286.32421875 576.581054688 286.32421875 576.581054688 317.818359375 c 0,4,5
 576.581054688 344.71875 576.581054688 344.71875 560.178710938 364.401367188 c 0,6,7
 544.431640625 382.7734375 544.431640625 382.7734375 520.8125 382.7734375 c 0,8,9
 495.880859375 382.7734375 495.880859375 382.7734375 480.791015625 364.401367188 c 0,10,11
 465.043945312 343.40625 465.043945312 343.40625 465.043945312 317.818359375 c 0,12,13
 465.043945312 286.982421875 465.043945312 286.982421875 480.791015625 264.67578125 c 0,14,15
 497.193359375 242.3671875 497.193359375 242.3671875 520.8125 242.3671875 c 0,0,1
634.318359375 1.578125 m 0,16,17
 701.895507812 1.578125 701.895507812 1.578125 751.104492188 31.103515625 c 0,18,19
 803.591796875 63.9072265625 803.591796875 63.9072265625 828.5234375 113.116210938 c 1,20,-1
 524.091796875 113.116210938 l 2,21,22
 516.219726562 113.116210938 516.219726562 113.116210938 510.315429688 107.2109375 c 128,-1,23
 504.41015625 101.3046875 504.41015625 101.3046875 504.41015625 94.0888671875 c 0,24,25
 504.41015625 54.72265625 504.41015625 54.72265625 543.12109375 29.1337890625 c 0,26,27
 581.829101562 1.578125 581.829101562 1.578125 634.318359375 1.578125 c 0,16,17
856.080078125 205.625 m 2,28,-1
 856.080078125 541.548828125 l 1,29,-1
 716.986328125 541.548828125 l 1,30,-1
 716.986328125 205.625 l 1,31,-1
 670.404296875 205.625 l 1,32,-1
 670.404296875 392.614257812 l 2,33,34
 670.404296875 456.911132812 670.404296875 456.911132812 629.068359375 504.806640625 c 0,35,36
 587.079101562 550.734375 587.079101562 550.734375 530.654296875 550.734375 c 0,37,38
 474.884765625 550.734375 474.884765625 550.734375 432.23828125 501.526367188 c 0,39,40
 391.561523438 454.287109375 391.561523438 454.287109375 391.561523438 382.7734375 c 0,41,42
 391.561523438 345.375 391.561523438 345.375 405.338867188 315.849609375 c 0,43,44
 421.084960938 281.077148438 421.084960938 281.077148438 446.673828125 262.048828125 c 1,45,46
 438.14453125 275.170898438 438.14453125 275.170898438 432.895507812 292.23046875 c 0,47,48
 428.302734375 308.6328125 428.302734375 308.6328125 428.302734375 317.818359375 c 0,49,50
 428.302734375 359.80859375 428.302734375 359.80859375 455.858398438 390.645507812 c 0,51,52
 481.447265625 420.170898438 481.447265625 420.170898438 520.8125 420.170898438 c 128,-1,53
 560.178710938 420.170898438 560.178710938 420.170898438 586.422851562 390.645507812 c 0,54,55
 614.634765625 358.497070312 614.634765625 358.497070312 614.634765625 317.818359375 c 0,56,57
 614.634765625 269.922851562 614.634765625 269.922851562 581.829101562 232.525390625 c 0,58,59
 548.368164062 196.439453125 548.368164062 196.439453125 502.442382812 196.439453125 c 0,60,61
 442.080078125 196.439453125 442.080078125 196.439453125 396.80859375 251.552734375 c 0,62,63
 352.8515625 304.696289062 352.8515625 304.696289062 352.8515625 382.7734375 c 0,64,65
 352.8515625 467.409179688 352.8515625 467.409179688 405.338867188 527.770507812 c 0,66,67
 456.514648438 588.130859375 456.514648438 588.130859375 530.654296875 588.130859375 c 0,68,69
 579.206054688 588.130859375 579.206054688 588.130859375 619.2265625 567.79296875 c 0,70,71
 658.59375 548.765625 658.59375 548.765625 678.932617188 513.993164062 c 1,72,-1
 678.932617188 578.946289062 l 1,73,-1
 1005.01367188 578.946289062 l 1,74,-1
 1005.01367188 541.548828125 l 1,75,-1
 902.663085938 541.548828125 l 1,76,-1
 902.663085938 205.625 l 2,77,78
 902.663085938 175.444335938 902.663085938 175.444335938 893.477539062 149.857421875 c 1,79,-1
 1052.25390625 149.857421875 l 1,80,-1
 1052.25390625 578.946289062 l 1,81,-1
 1100.1484375 578.946289062 l 1,82,-1
 1100.1484375 113.116210938 l 1,83,-1
 875.106445312 113.116210938 l 1,84,85
 843.614257812 44.880859375 843.614257812 44.880859375 779.971679688 3.5458984375 c 0,86,87
 715.67578125 -37.1318359375 715.67578125 -37.1318359375 634.318359375 -37.1318359375 c 0,88,89
 560.178710938 -37.1318359375 560.178710938 -37.1318359375 509.659179688 1.578125 c 0,90,91
 458.482421875 39.6318359375 458.482421875 39.6318359375 458.482421875 94.0888671875 c 0,92,93
 458.482421875 117.052734375 458.482421875 117.052734375 476.853515625 134.109375 c 0,94,95
 496.537109375 149.857421875 496.537109375 149.857421875 524.091796875 149.857421875 c 2,96,-1
 847.55078125 149.857421875 l 1,97,98
 856.080078125 175.444335938 856.080078125 175.444335938 856.080078125 205.625 c 2,28,-1
EndSplineSet
Validated: 524289
EndChar

StartChar: uni091D
Encoding: 2333 2333 25
Width: 1070
VWidth: 756
Flags: W
LayerCount: 2
Fore
SplineSet
693.754882812 547.868164062 m 1,0,-1
 693.754882812 404.83984375 l 1,1,-1
 794.793945312 404.83984375 l 1,2,-1
 794.793945312 547.868164062 l 1,3,-1
 693.754882812 547.868164062 l 1,0,-1
591.404296875 314.296875 m 0,4,5
 591.404296875 273.620117188 591.404296875 273.620117188 624.864257812 242.782226562 c 0,6,7
 658.32421875 212.602539062 658.32421875 212.602539062 703.595703125 212.602539062 c 0,8,9
 739.681640625 212.602539062 739.681640625 212.602539062 768.55078125 236.877929688 c 0,10,11
 794.793945312 259.185546875 794.793945312 259.185546875 794.793945312 293.302734375 c 2,12,-1
 794.793945312 364.161132812 l 1,13,-1
 642.579101562 364.161132812 l 2,14,15
 621.583984375 364.161132812 621.583984375 364.161132812 606.494140625 350.383789062 c 0,16,17
 591.404296875 335.29296875 591.404296875 335.29296875 591.404296875 314.296875 c 0,4,5
638.642578125 455.360351562 m 1,18,-1
 638.642578125 588.547851562 l 1,19,-1
 638.642578125 591.828125 l 1,20,-1
 642.579101562 591.828125 l 1,21,-1
 988.34375 591.828125 l 1,22,-1
 991.624023438 591.828125 l 1,23,-1
 991.624023438 588.547851562 l 1,24,-1
 991.624023438 547.868164062 l 1,25,-1
 991.624023438 544.587890625 l 1,26,-1
 988.34375 544.587890625 l 1,27,-1
 849.250976562 544.587890625 l 1,28,-1
 849.250976562 408.120117188 l 1,29,-1
 885.3359375 408.120117188 l 2,30,31
 901.08203125 408.120117188 901.08203125 408.120117188 914.860351562 405.82421875 c 128,-1,32
 928.639648438 403.52734375 928.639648438 403.52734375 941.432617188 399.262695312 c 128,-1,33
 954.2265625 394.998046875 954.2265625 394.998046875 965.708007812 388.108398438 c 128,-1,34
 977.19140625 381.219726562 977.19140625 381.219726562 988.34375 372.034179688 c 0,35,36
 1031.64648438 335.94921875 1031.64648438 335.94921875 1031.64648438 284.1171875 c 0,37,38
 1031.64648438 196.856445312 1031.64648438 196.856445312 973.909179688 137.150390625 c 0,39,40
 916.828125 76.7890625 916.828125 76.7890625 835.47265625 76.7890625 c 2,41,-1
 642.579101562 76.7890625 l 2,42,43
 618.958984375 76.7890625 618.958984375 76.7890625 603.213867188 57.7626953125 c 0,44,45
 586.154296875 38.7353515625 586.154296875 38.7353515625 586.154296875 9.8671875 c 0,46,47
 586.154296875 -11.783203125 586.154296875 -11.783203125 595.99609375 -28.1865234375 c 0,48,49
 607.150390625 -46.556640625 607.150390625 -46.556640625 624.208984375 -59.0234375 c 2,50,-1
 627.489257812 -60.9912109375 l 1,51,-1
 624.864257812 -64.271484375 l 1,52,-1
 594.028320312 -99.044921875 l 1,53,-1
 592.059570312 -101.013671875 l 1,54,-1
 589.435546875 -99.7021484375 l 1,55,56
 561.87890625 -82.642578125 561.87890625 -82.642578125 544.1640625 -53.7744140625 c 0,57,58
 527.76171875 -26.21875 527.76171875 -26.21875 527.76171875 9.8671875 c 0,59,60
 527.76171875 57.7626953125 527.76171875 57.7626953125 561.87890625 91.2236328125 c 0,61,62
 594.028320312 124.684570312 594.028320312 124.684570312 642.579101562 124.684570312 c 2,63,-1
 835.47265625 124.684570312 l 2,64,65
 893.208984375 124.684570312 893.208984375 124.684570312 933.88671875 170.611328125 c 0,66,67
 973.909179688 217.1953125 973.909179688 217.1953125 973.909179688 284.1171875 c 0,68,69
 973.909179688 299.864257812 973.909179688 299.864257812 967.676757812 313.313476562 c 128,-1,70
 961.443359375 326.763671875 961.443359375 326.763671875 948.978515625 337.916992188 c 0,71,72
 935.85546875 349.071289062 935.85546875 349.071289062 920.109375 354.975585938 c 128,-1,73
 904.362304688 360.880859375 904.362304688 360.880859375 885.3359375 360.880859375 c 2,74,-1
 849.250976562 360.880859375 l 1,75,-1
 849.250976562 293.302734375 l 2,76,77
 849.250976562 241.470703125 849.250976562 241.470703125 806.603515625 204.729492188 c 0,78,79
 764.614257812 169.299804688 764.614257812 169.299804688 703.595703125 169.299804688 c 0,80,81
 634.706054688 169.299804688 634.706054688 169.299804688 586.154296875 211.290039062 c 0,82,83
 537.603515625 253.936523438 537.603515625 253.936523438 537.603515625 314.296875 c 0,84,85
 537.603515625 354.3203125 537.603515625 354.3203125 568.439453125 381.875976562 c 0,86,87
 583.530273438 394.341796875 583.530273438 394.341796875 605.181640625 402.21484375 c 1,88,89
 603.870117188 450.110351562 603.870117188 450.110351562 567.784179688 503.254882812 c 0,90,91
 530.385742188 553.774414062 530.385742188 553.774414062 455.590820312 553.774414062 c 0,92,93
 382.108398438 553.774414062 382.108398438 553.774414062 345.366210938 503.254882812 c 0,94,95
 308.625 450.110351562 308.625 450.110351562 308.625 374.66015625 c 1,96,-1
 305.34375 370.72265625 l 1,97,-1
 302.063476562 370.72265625 l 1,98,-1
 267.290039062 370.72265625 l 1,99,-1
 263.353515625 370.72265625 l 1,100,-1
 263.353515625 374.66015625 l 1,101,-1
 263.353515625 375.970703125 l 2,102,103
 263.353515625 469.137695312 263.353515625 469.137695312 311.905273438 534.747070312 c 0,104,105
 361.768554688 601.013671875 361.768554688 601.013671875 455.590820312 601.013671875 c 0,106,107
 550.725585938 601.013671875 550.725585938 601.013671875 598.620117188 534.747070312 c 0,108,109
 627.489257812 495.380859375 627.489257812 495.380859375 638.642578125 455.360351562 c 1,18,-1
EndSplineSet
Validated: 524289
EndChar

StartChar: uni091E
Encoding: 2334 2334 26
Width: 1400
VWidth: 758
Flags: W
LayerCount: 2
Fore
SplineSet
1007.57226562 560.430664062 m 1,0,-1
 1007.57226562 416.087890625 l 1,1,-1
 1109.26855469 416.087890625 l 1,2,-1
 1109.26855469 560.430664062 l 1,3,-1
 1007.57226562 560.430664062 l 1,0,-1
1016.10253906 221.8828125 m 0,4,5
 1052.1875 221.8828125 1052.1875 221.8828125 1081.71289062 246.814453125 c 0,6,7
 1109.26855469 269.778320312 1109.26855469 269.778320312 1109.26855469 303.895507812 c 2,8,-1
 1109.26855469 376.06640625 l 1,9,-1
 955.740234375 376.06640625 l 2,10,11
 934.08984375 376.06640625 934.08984375 376.06640625 919.655273438 360.975585938 c 0,12,13
 905.221679688 347.854492188 905.221679688 347.854492188 905.221679688 324.890625 c 0,14,15
 905.221679688 284.211914062 905.221679688 284.211914062 938.025390625 253.376953125 c 0,16,17
 970.17578125 221.8828125 970.17578125 221.8828125 1016.10253906 221.8828125 c 0,4,5
1016.10253906 182.517578125 m 2,18,-1
 522.71484375 182.517578125 l 1,19,-1
 522.71484375 221.8828125 l 1,20,-1
 636.219726562 221.8828125 l 2,21,22
 672.961914062 221.8828125 672.961914062 221.8828125 701.173828125 249.439453125 c 0,23,24
 726.76171875 275.68359375 726.76171875 275.68359375 726.76171875 314.392578125 c 0,25,26
 726.76171875 343.26171875 726.76171875 343.26171875 703.797851562 365.568359375 c 0,27,28
 679.522460938 385.907226562 679.522460938 385.907226562 646.717773438 385.907226562 c 0,29,30
 627.690429688 385.907226562 627.690429688 385.907226562 609.975585938 376.06640625 c 0,31,32
 592.26171875 364.256835938 592.26171875 364.256835938 575.202148438 345.885742188 c 1,33,-1
 575.202148438 263.873046875 l 1,34,-1
 522.71484375 263.873046875 l 1,35,-1
 522.71484375 549.932617188 l 1,36,-1
 400.6796875 549.932617188 l 1,37,-1
 400.6796875 182.517578125 l 1,38,-1
 348.84765625 182.517578125 l 1,39,-1
 348.84765625 590.611328125 l 1,40,-1
 717.577148438 590.611328125 l 1,41,-1
 717.577148438 549.932617188 l 1,42,-1
 575.202148438 549.932617188 l 1,43,-1
 575.202148438 401.654296875 l 1,44,45
 589.637695312 416.087890625 589.637695312 416.087890625 608.006835938 423.961914062 c 0,46,47
 630.970703125 433.147460938 630.970703125 433.147460938 646.717773438 433.147460938 c 0,48,49
 699.206054688 433.147460938 699.206054688 433.147460938 739.883789062 397.061523438 c 0,50,51
 779.25 364.912109375 779.25 364.912109375 779.25 314.392578125 c 0,52,53
 779.25 285.524414062 779.25 285.524414062 768.751953125 263.873046875 c 0,54,55
 754.974609375 236.31640625 754.974609375 236.31640625 738.571289062 221.8828125 c 1,56,-1
 903.908203125 221.8828125 l 1,57,-1
 900.627929688 224.506835938 l 2,58,59
 852.733398438 265.185546875 852.733398438 265.185546875 852.733398438 324.890625 c 0,60,61
 852.733398438 363.599609375 852.733398438 363.599609375 882.9140625 389.84375 c 256,62,63
 913.09375 416.087890625 913.09375 416.087890625 955.740234375 416.087890625 c 1,64,-1
 955.740234375 601.108398438 l 1,65,-1
 1302.81738281 601.108398438 l 1,66,-1
 1302.81738281 560.430664062 l 1,67,-1
 1159.78808594 560.430664062 l 1,68,-1
 1159.78808594 416.087890625 l 1,69,-1
 1201.12207031 416.087890625 l 2,70,71
 1220.1484375 416.087890625 1220.1484375 416.087890625 1237.86328125 412.151367188 c 128,-1,72
 1255.578125 408.21484375 1255.578125 408.21484375 1271.32421875 400.341796875 c 128,-1,73
 1287.07128906 392.469726562 1287.07128906 392.469726562 1300.84863281 380.66015625 c 0,74,75
 1344.15234375 345.885742188 1344.15234375 345.885742188 1344.15234375 293.397460938 c 0,76,77
 1344.15234375 251.408203125 1344.15234375 251.408203125 1330.04492188 215.650390625 c 128,-1,78
 1315.93945312 179.891601562 1315.93945312 179.891601562 1287.07128906 149.711914062 c 0,79,80
 1231.30175781 89.3515625 1231.30175781 89.3515625 1150.60253906 89.3515625 c 2,81,-1
 955.740234375 89.3515625 l 2,82,83
 929.497070312 89.3515625 929.497070312 89.3515625 912.438476562 69.01171875 c 0,84,85
 894.723632812 47.3603515625 894.723632812 47.3603515625 894.723632812 17.8359375 c 0,86,87
 894.723632812 -1.1904296875 894.723632812 -1.1904296875 905.221679688 -21.5302734375 c 0,88,89
 912.438476562 -37.9326171875 912.438476562 -37.9326171875 934.74609375 -53.0234375 c 1,90,-1
 905.221679688 -89.1083984375 l 1,91,92
 876.352539062 -72.70703125 876.352539062 -72.70703125 859.951171875 -43.837890625 c 0,93,94
 842.235351562 -15.625 842.235351562 -15.625 842.235351562 17.8359375 c 0,95,96
 842.235351562 64.419921875 842.235351562 64.419921875 876.352539062 97.2236328125 c 0,97,98
 909.158203125 130.029296875 909.158203125 130.029296875 955.740234375 130.029296875 c 2,99,-1
 1150.60253906 130.029296875 l 2,100,101
 1208.33886719 130.029296875 1208.33886719 130.029296875 1250.32910156 177.923828125 c 0,102,103
 1293.63183594 227.788085938 1293.63183594 227.788085938 1293.63183594 293.397460938 c 0,104,105
 1293.63183594 328.827148438 1293.63183594 328.827148438 1266.07617188 351.791015625 c 0,106,107
 1238.51953125 376.06640625 1238.51953125 376.06640625 1201.12207031 376.06640625 c 2,108,-1
 1159.78808594 376.06640625 l 1,109,-1
 1159.78808594 303.895507812 l 2,110,111
 1159.78808594 278.307617188 1159.78808594 278.307617188 1149.2890625 256.329101562 c 128,-1,112
 1138.79296875 234.34765625 1138.79296875 234.34765625 1117.79785156 217.290039062 c 0,113,114
 1075.80664062 182.517578125 1075.80664062 182.517578125 1016.10253906 182.517578125 c 2,18,-1
EndSplineSet
Validated: 524289
EndChar

StartChar: uni091F
Encoding: 2335 2335 27
Width: 846
VWidth: 786
Flags: W
LayerCount: 2
Fore
SplineSet
315.169921875 305.3359375 m 1,0,-1
 315.169921875 624.85546875 l 1,1,-1
 315.169921875 630.104492188 l 1,2,-1
 315.169921875 634.697265625 l 1,3,-1
 319.762695312 634.697265625 l 1,4,-1
 324.35546875 634.697265625 l 1,5,-1
 363.720703125 634.697265625 l 1,6,-1
 368.970703125 634.697265625 l 1,7,-1
 373.5625 634.697265625 l 1,8,-1
 373.5625 630.104492188 l 1,9,-1
 373.5625 624.85546875 l 1,10,-1
 373.5625 346.013671875 l 1,11,-1
 699.64453125 346.013671875 l 1,12,-1
 704.237304688 346.013671875 l 1,13,-1
 708.830078125 346.013671875 l 1,14,-1
 708.830078125 341.420898438 l 1,15,-1
 708.830078125 336.829101562 l 1,16,-1
 708.830078125 48.1435546875 l 1,17,-1
 708.830078125 42.8955078125 l 1,18,-1
 708.830078125 38.302734375 l 1,19,-1
 704.237304688 38.302734375 l 1,20,-1
 699.64453125 38.302734375 l 1,21,-1
 660.279296875 38.302734375 l 1,22,-1
 655.029296875 38.302734375 l 1,23,-1
 650.4375 38.302734375 l 1,24,-1
 650.4375 42.8955078125 l 1,25,-1
 650.4375 48.1435546875 l 1,26,-1
 650.4375 296.150390625 l 1,27,-1
 324.35546875 296.150390625 l 1,28,-1
 319.762695312 296.150390625 l 1,29,-1
 315.169921875 296.150390625 l 1,30,-1
 315.169921875 300.7421875 l 1,31,-1
 315.169921875 305.3359375 l 1,0,-1
EndSplineSet
Validated: 524289
EndChar

StartChar: uni0920
Encoding: 2336 2336 28
Width: 1459
VWidth: 749
Flags: W
LayerCount: 2
Fore
SplineSet
594.14453125 162.109375 m 1,0,1
 598.080078125 147.67578125 598.080078125 147.67578125 607.921875 139.145507812 c 1,2,-1
 607.921875 139.145507812 l 1,3,4
 617.108398438 131.928710938 617.108398438 131.928710938 632.198242188 129.3046875 c 0,5,6
 643.3515625 126.024414062 643.3515625 126.024414062 663.034179688 126.024414062 c 2,7,-1
 873.642578125 126.024414062 l 1,8,-1
 876.922851562 126.024414062 l 1,9,-1
 885.452148438 126.024414062 l 1,10,-1
 880.859375 133.897460938 l 1,11,-1
 879.547851562 135.865234375 l 2,12,13
 862.489257812 163.421875 862.489257812 163.421875 862.489257812 194.915039062 c 0,14,15
 862.489257812 227.063476562 862.489257812 227.063476562 889.388671875 250.68359375 c 0,16,17
 907.760742188 269.053710938 907.760742188 269.053710938 938.595703125 272.334960938 c 1,18,-1
 939.908203125 272.334960938 l 1,19,-1
 944.501953125 272.990234375 l 1,20,-1
 944.501953125 277.583984375 l 1,21,-1
 944.501953125 278.895507812 l 1,22,-1
 944.501953125 415.364257812 l 1,23,-1
 944.501953125 420.612304688 l 1,24,-1
 950.40625 420.612304688 l 1,25,-1
 1227.93652344 420.612304688 l 1,26,-1
 1233.18554688 420.612304688 l 1,27,-1
 1233.18554688 415.364257812 l 1,28,-1
 1233.18554688 383.21484375 l 1,29,-1
 1233.18554688 377.309570312 l 1,30,-1
 1227.93652344 377.309570312 l 1,31,-1
 1125.58496094 377.309570312 l 1,32,-1
 1124.2734375 377.309570312 l 1,33,-1
 1119.02441406 377.309570312 l 1,34,-1
 1119.02441406 372.061523438 l 1,35,-1
 1119.02441406 370.75 l 1,36,-1
 1119.02441406 279.55078125 l 1,37,-1
 1119.02441406 277.583984375 l 1,38,-1
 1119.02441406 272.990234375 l 1,39,-1
 1124.2734375 272.990234375 l 1,40,-1
 1125.58496094 272.990234375 l 1,41,-1
 1185.94628906 272.990234375 l 2,42,43
 1218.75097656 272.990234375 1218.75097656 272.990234375 1243.02636719 263.8046875 c 128,-1,44
 1267.30175781 254.620117188 1267.30175781 254.620117188 1280.75292969 239.857421875 c 128,-1,45
 1294.203125 225.095703125 1294.203125 225.095703125 1301.74804688 204.755859375 c 128,-1,46
 1309.29296875 184.416015625 1309.29296875 184.416015625 1310.60546875 164.077148438 c 128,-1,47
 1311.91699219 143.73828125 1311.91699219 143.73828125 1309.29296875 120.447265625 c 128,-1,48
 1306.66894531 97.15625 1306.66894531 97.15625 1302.73144531 79.76953125 c 128,-1,49
 1298.79589844 62.3828125 1298.79589844 62.3828125 1293.546875 45.3232421875 c 2,50,-1
 1292.89160156 43.35546875 l 1,51,-1
 1290.921875 36.79296875 l 1,52,-1
 1297.48339844 36.79296875 l 1,53,-1
 1300.10742188 36.79296875 l 1,54,-1
 1352.59570312 36.79296875 l 1,55,-1
 1353.90820312 36.79296875 l 1,56,-1
 1359.15625 36.79296875 l 1,57,-1
 1359.15625 41.3876953125 l 1,58,-1
 1359.15625 43.35546875 l 1,59,-1
 1359.15625 407.490234375 l 1,60,-1
 1359.15625 413.395507812 l 1,61,-1
 1364.40625 413.395507812 l 1,62,-1
 1405.73925781 413.395507812 l 1,63,-1
 1411.64453125 413.395507812 l 1,64,-1
 1411.64453125 407.490234375 l 1,65,-1
 1411.64453125 -1.2587890625 l 1,66,-1
 1411.64453125 -7.1640625 l 1,67,-1
 1405.73925781 -7.1640625 l 1,68,-1
 1278.45605469 -7.1640625 l 1,69,-1
 1277.14355469 -7.1640625 l 1,70,-1
 1274.51953125 -7.1640625 l 1,71,-1
 1273.20800781 -9.1328125 l 1,72,-1
 1272.55175781 -9.7890625 l 1,73,74
 1254.1796875 -39.9697265625 1254.1796875 -39.9697265625 1225.63964844 -62.9326171875 c 128,-1,75
 1197.09960938 -85.896484375 1197.09960938 -85.896484375 1157.734375 -102.954101562 c 0,76,77
 1075.72167969 -138.384765625 1075.72167969 -138.384765625 972.056640625 -138.384765625 c 0,78,79
 883.484375 -138.384765625 883.484375 -138.384765625 817.21875 -118.702148438 c 0,80,81
 753.577148438 -99.673828125 753.577148438 -99.673828125 727.98828125 -62.9326171875 c 1,82,-1
 727.98828125 -62.27734375 l 1,83,-1
 727.333007812 -61.62109375 l 2,84,85
 720.116210938 -54.4033203125 720.116210938 -54.4033203125 711.5859375 -41.28125 c 0,86,87
 705.680664062 -30.1279296875 705.680664062 -30.1279296875 705.680664062 -18.974609375 c 0,88,89
 705.680664062 5.9580078125 705.680664062 5.9580078125 724.052734375 21.0478515625 c 0,90,91
 745.046875 36.79296875 745.046875 36.79296875 768.010742188 36.79296875 c 2,92,-1
 1235.15429688 36.79296875 l 1,93,-1
 1236.46679688 36.79296875 l 1,94,-1
 1239.74609375 36.79296875 l 1,95,-1
 1241.05859375 40.0751953125 l 1,96,-1
 1241.05859375 40.73046875 l 1,97,98
 1249.58789062 62.3828125 1249.58789062 62.3828125 1255.16503906 84.6904296875 c 128,-1,99
 1260.7421875 106.997070312 1260.7421875 106.997070312 1262.38085938 133.897460938 c 128,-1,100
 1264.02148438 160.796875 1264.02148438 160.796875 1258.4453125 181.135742188 c 128,-1,101
 1252.86816406 201.475585938 1252.86816406 201.475585938 1234.49804688 215.25390625 c 128,-1,102
 1216.12792969 229.032226562 1216.12792969 229.032226562 1185.94628906 229.032226562 c 2,103,-1
 1125.58496094 229.032226562 l 1,104,-1
 1124.2734375 229.032226562 l 1,105,-1
 1119.02441406 229.032226562 l 1,106,-1
 1119.02441406 224.439453125 l 1,107,-1
 1119.02441406 222.470703125 l 1,108,-1
 1119.02441406 177.856445312 l 2,109,110
 1119.02441406 134.552734375 1119.02441406 134.552734375 1082.93945312 105.029296875 c 0,111,112
 1066.53613281 89.9384765625 1066.53613281 89.9384765625 1045.21289062 82.3935546875 c 128,-1,113
 1023.88964844 74.8486328125 1023.88964844 74.8486328125 998.958007812 74.8486328125 c 0,114,115
 972.056640625 74.8486328125 972.056640625 74.8486328125 950.40625 82.064453125 c 1,116,-1
 949.09375 82.720703125 l 1,117,-1
 948.438476562 82.720703125 l 1,118,-1
 663.034179688 82.720703125 l 2,119,120
 638.103515625 82.720703125 638.103515625 82.720703125 623.01171875 86.001953125 c 1,121,-1
 623.01171875 86.658203125 l 1,122,-1
 622.356445312 86.658203125 l 1,123,124
 598.080078125 91.25 598.080078125 91.25 581.021484375 105.684570312 c 0,125,126
 560.68359375 122.087890625 560.68359375 122.087890625 552.153320312 150.299804688 c 1,127,-1
 552.153320312 150.955078125 l 1,128,129
 548.216796875 166.045898438 548.216796875 166.045898438 548.216796875 179.825195312 c 0,130,131
 548.216796875 190.978515625 548.216796875 190.978515625 550.840820312 201.475585938 c 0,132,133
 558.71484375 241.498046875 558.71484375 241.498046875 596.768554688 280.20703125 c 0,134,135
 615.795898438 301.203125 615.795898438 301.203125 626.94921875 310.388671875 c 0,136,137
 633.509765625 316.29296875 633.509765625 316.29296875 640.7265625 322.198242188 c 128,-1,138
 647.944335938 328.102539062 647.944335938 328.102539062 651.880859375 331.383789062 c 128,-1,139
 655.81640625 334.6640625 655.81640625 334.6640625 656.473632812 335.3203125 c 2,140,-1
 657.12890625 335.975585938 l 1,141,-1
 657.78515625 336.631835938 l 2,142,143
 690.590820312 366.15625 690.590820312 366.15625 699.12109375 393.056640625 c 1,144,-1
 699.12109375 393.712890625 l 1,145,146
 705.680664062 408.803710938 705.680664062 408.803710938 705.680664062 442.919921875 c 0,147,148
 705.680664062 465.227539062 705.680664062 465.227539062 689.278320312 488.84765625 c 1,149,-1
 688.622070312 488.84765625 l 1,150,151
 663.034179688 532.150390625 663.034179688 532.150390625 607.921875 549.208007812 c 0,152,153
 580.366210938 557.08203125 580.366210938 557.08203125 555.434570312 557.08203125 c 0,154,155
 514.755859375 557.08203125 514.755859375 557.08203125 479.982421875 536.7421875 c 0,156,157
 449.801757812 519.028320312 449.801757812 519.028320312 426.838867188 484.911132812 c 2,158,-1
 425.526367188 482.942382812 l 1,159,-1
 420.278320312 475.069335938 l 1,160,-1
 429.462890625 475.069335938 l 1,161,-1
 432.087890625 475.069335938 l 2,162,163
 436.0234375 474.4140625 436.0234375 474.4140625 438.6484375 474.4140625 c 2,164,-1
 439.3046875 474.4140625 l 1,165,166
 468.829101562 471.1328125 468.829101562 471.1328125 490.48046875 443.576171875 c 0,167,168
 510.1640625 420.612304688 510.1640625 420.612304688 510.1640625 389.776367188 c 256,169,170
 510.1640625 358.939453125 510.1640625 358.939453125 500.321289062 340.568359375 c 0,171,172
 484.575195312 310.388671875 484.575195312 310.388671875 457.67578125 302.514648438 c 0,173,174
 447.176757812 299.234375 447.176757812 299.234375 436.6796875 299.234375 c 0,175,176
 418.965820312 299.234375 418.965820312 299.234375 399.938476562 309.732421875 c 0,177,178
 375.005859375 324.822265625 375.005859375 324.822265625 363.197265625 350.41015625 c 0,179,180
 353.35546875 370.75 353.35546875 370.75 353.35546875 398.961914062 c 0,181,182
 353.35546875 399.6171875 353.35546875 399.6171875 353.35546875 401.2578125 c 128,-1,183
 353.35546875 402.8984375 353.35546875 402.8984375 353.35546875 404.2109375 c 128,-1,184
 353.35546875 405.522460938 353.35546875 405.522460938 353.35546875 407.163085938 c 128,-1,185
 353.35546875 408.803710938 353.35546875 408.803710938 353.35546875 410.115234375 c 0,186,187
 354.66796875 421.924804688 354.66796875 421.924804688 362.541015625 448.168945312 c 0,188,189
 388.784179688 534.118164062 388.784179688 534.118164062 458.986328125 573.484375 c 0,190,191
 505.5703125 600.384765625 505.5703125 600.384765625 559.37109375 600.384765625 c 0,192,193
 588.895507812 600.384765625 588.895507812 600.384765625 620.388671875 589.887695312 c 0,194,195
 693.87109375 566.922851562 693.87109375 566.922851562 726.67578125 512.465820312 c 0,196,197
 743.735351562 486.22265625 743.735351562 486.22265625 747.671875 446.200195312 c 0,198,199
 748.983398438 437.015625 748.983398438 437.015625 748.983398438 427.830078125 c 0,200,201
 748.983398438 402.8984375 748.983398438 402.8984375 739.797851562 378.623046875 c 0,202,203
 725.364257812 341.224609375 725.364257812 341.224609375 686.654296875 305.139648438 c 1,204,-1
 686.654296875 305.139648438 l 1,205,206
 684.029296875 302.514648438 684.029296875 302.514648438 656.473632812 276.927734375 c 1,207,-1
 655.81640625 276.927734375 l 1,208,209
 649.913085938 272.334960938 649.913085938 272.334960938 628.26171875 250.68359375 c 0,210,211
 598.080078125 217.877929688 598.080078125 217.877929688 593.48828125 192.290039062 c 1,212,-1
 593.48828125 191.634765625 l 2,213,214
 591.51953125 185.729492188 591.51953125 185.729492188 591.51953125 179.825195312 c 0,215,216
 591.51953125 173.262695312 591.51953125 173.262695312 594.14453125 162.765625 c 1,217,-1
 594.14453125 162.109375 l 1,0,1
928.754882812 218.534179688 m 1,218,219
 914.9765625 208.037109375 914.9765625 208.037109375 914.9765625 194.915039062 c 0,220,221
 914.9765625 163.421875 914.9765625 163.421875 939.908203125 141.76953125 c 0,222,223
 964.18359375 118.805664062 964.18359375 118.805664062 998.958007812 118.805664062 c 0,224,225
 1013.39160156 118.805664062 1013.39160156 118.805664062 1025.52929688 123.071289062 c 128,-1,226
 1037.66699219 127.3359375 1037.66699219 127.3359375 1046.85351562 136.521484375 c 0,227,228
 1067.84765625 154.891601562 1067.84765625 154.891601562 1067.84765625 177.856445312 c 2,229,-1
 1067.84765625 222.470703125 l 1,230,-1
 1067.84765625 224.439453125 l 1,231,-1
 1067.84765625 229.032226562 l 1,232,-1
 1062.59960938 229.032226562 l 1,233,-1
 1061.28710938 229.032226562 l 1,234,-1
 962.87109375 229.032226562 l 2,235,236
 943.189453125 229.032226562 943.189453125 229.032226562 928.754882812 219.190429688 c 1,237,-1
 928.754882812 218.534179688 l 1,218,219
775.2265625 -46.5302734375 m 1,238,239
 811.969726562 -70.8056640625 811.969726562 -70.8056640625 859.208984375 -81.3046875 c 0,240,241
 907.760742188 -93.11328125 907.760742188 -93.11328125 972.056640625 -93.11328125 c 0,242,243
 1061.28710938 -93.11328125 1061.28710938 -93.11328125 1130.17871094 -67.525390625 c 0,244,245
 1147.23632812 -60.96484375 1147.23632812 -60.96484375 1161.99902344 -52.763671875 c 128,-1,246
 1176.76171875 -44.5625 1176.76171875 -44.5625 1187.91503906 -35.376953125 c 128,-1,247
 1199.06835938 -26.1904296875 1199.06835938 -26.1904296875 1207.59765625 -15.6943359375 c 2,248,-1
 1209.56542969 -13.0693359375 l 1,249,-1
 1216.78320312 -5.1953125 l 1,250,-1
 1206.28515625 -5.1953125 l 1,251,-1
 1202.34863281 -5.1953125 l 1,252,-1
 768.010742188 -5.1953125 l 1,253,-1
 767.354492188 -5.1953125 l 1,254,-1
 764.73046875 -5.1953125 l 1,255,-1
 763.41796875 -7.8203125 l 1,256,-1
 762.76171875 -8.4765625 l 2,257,258
 762.104492188 -9.1328125 762.104492188 -9.1328125 760.79296875 -10.4453125 c 2,259,-1
 760.137695312 -10.4453125 l 1,260,-1
 759.481445312 -11.7578125 l 2,261,262
 756.857421875 -15.037109375 756.857421875 -15.037109375 756.857421875 -18.974609375 c 0,263,264
 756.857421875 -27.5029296875 756.857421875 -27.5029296875 760.79296875 -33.4091796875 c 2,265,-1
 761.44921875 -34.720703125 l 1,266,-1
 762.104492188 -34.720703125 l 1,267,-1
 762.76171875 -35.376953125 l 2,268,269
 766.041992188 -39.3125 766.041992188 -39.3125 773.916015625 -45.21875 c 1,270,-1
 773.916015625 -45.21875 l 1,271,-1
 775.2265625 -46.5302734375 l 1,238,239
397.313476562 396.336914062 m 2,272,273
 397.969726562 382.559570312 397.969726562 382.559570312 402.5625 368.78125 c 1,274,-1
 403.21875 368.125 l 1,275,276
 410.435546875 354.34765625 410.435546875 354.34765625 421.588867188 347.78515625 c 0,277,278
 429.462890625 343.194335938 429.462890625 343.194335938 438.6484375 343.194335938 c 0,279,280
 440.6171875 343.194335938 440.6171875 343.194335938 444.553710938 343.849609375 c 2,281,-1
 445.209960938 343.849609375 l 1,282,-1
 446.521484375 344.505859375 l 2,283,284
 455.70703125 349.09765625 455.70703125 349.09765625 462.923828125 358.939453125 c 1,285,-1
 462.923828125 359.596679688 l 1,286,-1
 463.580078125 360.251953125 l 1,287,288
 468.172851562 372.061523438 468.172851562 372.061523438 468.172851562 386.495117188 c 0,289,290
 468.172851562 398.3046875 468.172851562 398.3046875 455.05078125 416.676757812 c 0,291,292
 447.833007812 427.830078125 447.833007812 427.830078125 433.399414062 430.454101562 c 1,293,-1
 432.743164062 430.454101562 l 1,294,-1
 432.087890625 430.454101562 l 1,295,-1
 426.838867188 430.454101562 l 1,296,-1
 425.526367188 430.454101562 l 1,297,-1
 424.870117188 430.454101562 l 1,298,299
 413.060546875 427.830078125 413.060546875 427.830078125 408.467773438 423.237304688 c 0,300,301
 402.5625 417.33203125 402.5625 417.33203125 399.282226562 408.147460938 c 2,302,-1
 398.625976562 406.834960938 l 1,303,-1
 398.625976562 406.178710938 l 2,304,305
 398.625976562 401.5859375 398.625976562 401.5859375 397.313476562 398.961914062 c 2,306,-1
 397.313476562 397.6484375 l 1,307,-1
 397.313476562 396.336914062 l 2,272,273
1003.55078125 272.990234375 m 1,308,-1
 1061.28710938 272.990234375 l 1,309,-1
 1062.59960938 272.990234375 l 1,310,-1
 1067.84765625 272.990234375 l 1,311,-1
 1067.84765625 277.583984375 l 1,312,-1
 1067.84765625 279.55078125 l 1,313,-1
 1067.84765625 370.75 l 1,314,-1
 1067.84765625 372.061523438 l 1,315,-1
 1067.84765625 377.309570312 l 1,316,-1
 1062.59960938 377.309570312 l 1,317,-1
 1061.28710938 377.309570312 l 1,318,-1
 1003.55078125 377.309570312 l 1,319,-1
 1002.23828125 377.309570312 l 1,320,-1
 996.989257812 377.309570312 l 1,321,-1
 996.989257812 372.061523438 l 1,322,-1
 996.989257812 370.75 l 1,323,-1
 996.989257812 279.55078125 l 1,324,-1
 996.989257812 277.583984375 l 1,325,-1
 996.989257812 272.990234375 l 1,326,-1
 1002.23828125 272.990234375 l 1,327,-1
 1003.55078125 272.990234375 l 1,308,-1
EndSplineSet
Validated: 524325
EndChar

StartChar: uni0921
Encoding: 2337 2337 29
Width: 1014
VWidth: 832
Flags: W
LayerCount: 2
Fore
SplineSet
476.703125 343.372070312 m 0,0,1
 464.893554688 328.282226562 464.893554688 328.282226562 464.893554688 305.974609375 c 2,2,-1
 464.893554688 168.194335938 l 1,3,-1
 464.893554688 162.9453125 l 1,4,-1
 459.64453125 162.9453125 l 1,5,-1
 413.061523438 162.9453125 l 1,6,-1
 407.8125 162.9453125 l 1,7,-1
 407.8125 168.194335938 l 1,8,-1
 407.8125 502.1484375 l 1,9,-1
 314.646484375 502.1484375 l 1,10,-1
 314.646484375 168.194335938 l 1,11,-1
 314.646484375 162.9453125 l 1,12,-1
 309.397460938 162.9453125 l 1,13,-1
 261.501953125 162.9453125 l 1,14,-1
 256.25390625 162.9453125 l 1,15,-1
 256.25390625 168.194335938 l 1,16,-1
 256.25390625 544.794921875 l 1,17,-1
 256.25390625 550.044921875 l 1,18,-1
 261.501953125 550.044921875 l 1,19,-1
 600.048828125 550.044921875 l 1,20,-1
 605.298828125 550.044921875 l 1,21,-1
 605.298828125 544.794921875 l 1,22,-1
 605.298828125 507.397460938 l 1,23,-1
 605.298828125 502.1484375 l 1,24,-1
 600.048828125 502.1484375 l 1,25,-1
 463.581054688 502.1484375 l 1,26,-1
 463.581054688 397.172851562 l 1,27,28
 482.608398438 405.703125 482.608398438 405.703125 506.2265625 405.703125 c 0,29,30
 546.90625 405.703125 546.90625 405.703125 575.7734375 377.490234375 c 1,31,-1
 576.430664062 377.490234375 l 1,32,-1
 576.430664062 376.833984375 l 1,33,34
 576.430664062 376.833984375 576.430664062 376.833984375 576.430664062 376.833984375 c 1,35,-1
 577.0859375 377.490234375 l 2,36,37
 607.266601562 405.703125 607.266601562 405.703125 647.2890625 405.703125 c 0,38,39
 688.624023438 405.703125 688.624023438 405.703125 719.459960938 372.897460938 c 0,40,41
 743.736328125 345.997070312 743.736328125 345.997070312 752.264648438 308.598632812 c 0,42,43
 762.762695312 265.297851562 762.762695312 265.297851562 783.7578125 239.052734375 c 0,44,45
 804.752929688 212.15234375 804.752929688 212.15234375 831.653320312 212.15234375 c 0,46,47
 872.33203125 212.15234375 872.33203125 212.15234375 897.263671875 261.360351562 c 0,48,49
 920.883789062 307.943359375 920.883789062 307.943359375 920.883789062 384.05078125 c 0,50,51
 920.883789062 540.859375 920.883789062 540.859375 840.18359375 635.993164062 c 0,52,53
 760.793945312 727.84765625 760.793945312 727.84765625 647.2890625 727.84765625 c 2,54,-1
 642.041015625 727.84765625 l 1,55,-1
 642.041015625 733.095703125 l 1,56,-1
 642.041015625 771.805664062 l 1,57,-1
 642.041015625 777.0546875 l 1,58,-1
 647.2890625 777.0546875 l 2,59,60
 781.133789062 777.0546875 781.133789062 777.0546875 876.268554688 667.486328125 c 0,61,62
 970.74609375 559.23046875 970.74609375 559.23046875 970.74609375 384.05078125 c 0,63,64
 970.74609375 295.477539062 970.74609375 295.477539062 941.221679688 237.741210938 c 0,65,66
 902.51171875 162.9453125 902.51171875 162.9453125 833.62109375 162.9453125 c 2,67,-1
 831.653320312 162.9453125 l 2,68,69
 781.7890625 162.9453125 781.7890625 162.9453125 746.360351562 207.560546875 c 0,70,71
 717.4921875 243.645507812 717.4921875 243.645507812 703.713867188 298.1015625 c 0,72,73
 698.46484375 325.001953125 698.46484375 325.001953125 684.6875 340.092773438 c 0,74,75
 668.28515625 357.805664062 668.28515625 357.805664062 647.2890625 357.805664062 c 0,76,77
 629.57421875 357.805664062 629.57421875 357.805664062 617.764648438 343.372070312 c 0,78,79
 605.298828125 328.938476562 605.298828125 328.938476562 605.298828125 305.974609375 c 2,80,-1
 605.298828125 168.194335938 l 1,81,-1
 605.298828125 162.9453125 l 1,82,-1
 600.048828125 162.9453125 l 1,83,-1
 552.810546875 162.9453125 l 1,84,-1
 548.21875 162.9453125 l 1,85,-1
 548.21875 168.194335938 l 1,86,-1
 548.21875 305.974609375 l 2,87,88
 548.21875 328.938476562 548.21875 328.938476562 535.751953125 343.372070312 c 0,89,90
 523.943359375 357.805664062 523.943359375 357.805664062 506.2265625 357.805664062 c 0,91,92
 489.168945312 357.805664062 489.168945312 357.805664062 476.703125 343.372070312 c 0,0,1
EndSplineSet
Validated: 524293
EndChar

StartChar: uni0922
Encoding: 2338 2338 30
Width: 1172
VWidth: 791
Flags: W
LayerCount: 2
Fore
SplineSet
465.415039062 540.95703125 m 1,0,-1
 465.415039062 380.211914062 l 1,1,-1
 579.577148438 380.211914062 l 1,2,-1
 579.577148438 540.95703125 l 1,3,-1
 465.415039062 540.95703125 l 1,0,-1
475.913085938 163.04296875 m 0,4,5
 517.247070312 163.04296875 517.247070312 163.04296875 549.396484375 189.943359375 c 0,6,7
 579.577148438 214.875 579.577148438 214.875 579.577148438 254.2421875 c 2,8,-1
 579.577148438 334.28515625 l 1,9,-1
 407.022460938 334.28515625 l 2,10,11
 382.747070312 334.28515625 382.747070312 334.28515625 366.34375 318.2109375 c 128,-1,12
 349.94140625 302.135742188 349.94140625 302.135742188 349.94140625 277.205078125 c 0,13,14
 349.94140625 230.622070312 349.94140625 230.622070312 387.338867188 196.833007812 c 128,-1,15
 424.736328125 163.04296875 424.736328125 163.04296875 475.913085938 163.04296875 c 0,4,5
682.583984375 334.28515625 m 2,16,-1
 636.65625 334.28515625 l 1,17,-1
 636.65625 254.2421875 l 2,18,19
 636.65625 197.16015625 636.65625 197.16015625 590.073242188 157.137695312 c 0,20,21
 542.178710938 116.459960938 542.178710938 116.459960938 475.913085938 116.459960938 c 0,22,23
 401.116210938 116.459960938 401.116210938 116.459960938 346.333007812 164.35546875 c 128,-1,24
 291.548828125 212.25 291.548828125 212.25 291.548828125 277.205078125 c 0,25,26
 291.548828125 318.538085938 291.548828125 318.538085938 326.321289062 349.376953125 c 0,27,28
 360.439453125 380.211914062 360.439453125 380.211914062 407.022460938 380.211914062 c 1,29,-1
 407.022460938 587.540039062 l 1,30,-1
 797.401367188 587.540039062 l 1,31,-1
 797.401367188 540.95703125 l 1,32,-1
 636.65625 540.95703125 l 1,33,-1
 636.65625 380.211914062 l 1,34,-1
 682.583984375 380.211914062 l 2,35,36
 728.510742188 380.211914062 728.510742188 380.211914062 763.940429688 346.095703125 c 0,37,38
 767.221679688 342.814453125 767.221679688 342.814453125 768.533203125 340.190429688 c 1,39,-1
 774.438476562 346.095703125 l 2,40,41
 807.899414062 380.211914062 807.899414062 380.211914062 853.826171875 380.211914062 c 0,42,43
 914.84375 380.211914062 914.84375 380.211914062 954.208984375 325.100585938 c 0,44,45
 984.390625 280.485351562 984.390625 280.485351562 984.390625 233.24609375 c 2,46,-1
 984.390625 224.060546875 l 2,47,48
 984.390625 182.7265625 984.390625 182.7265625 981.765625 173.541015625 c 1,49,-1
 1125.45117188 173.541015625 l 1,50,-1
 1125.45117188 128.26953125 l 1,51,-1
 910.908203125 128.26953125 l 1,52,-1
 930.58984375 163.04296875 l 2,53,54
 939.119140625 177.477539062 939.119140625 177.477539062 939.119140625 224.060546875 c 2,55,-1
 939.119140625 233.24609375 l 2,56,57
 939.119140625 267.364257812 939.119140625 267.364257812 916.811523438 298.19921875 c 0,58,59
 892.536132812 334.28515625 892.536132812 334.28515625 853.826171875 334.28515625 c 0,60,61
 828.895507812 334.28515625 828.895507812 334.28515625 813.803710938 314.602539062 c 0,62,63
 797.401367188 292.951171875 797.401367188 292.951171875 797.401367188 265.395507812 c 2,64,-1
 797.401367188 128.26953125 l 1,65,-1
 739.6640625 128.26953125 l 1,66,-1
 739.6640625 265.395507812 l 2,67,68
 739.6640625 294.919921875 739.6640625 294.919921875 723.26171875 314.602539062 c 128,-1,69
 706.859375 334.28515625 706.859375 334.28515625 682.583984375 334.28515625 c 2,16,-1
EndSplineSet
Validated: 524289
EndChar

StartChar: uni0923
Encoding: 2339 2339 31
Width: 1018
VWidth: 765
Flags: W
LayerCount: 2
Fore
SplineSet
327.799804688 461.278320312 m 0,0,1
 341.578125 461.278320312 341.578125 461.278320312 349.451171875 449.46875 c 1,2,-1
 350.108398438 448.8125 l 1,3,-1
 350.108398438 448.15625 l 1,4,5
 356.66796875 435.03515625 356.66796875 435.03515625 350.763671875 423.225585938 c 0,6,7
 328.456054688 375.986328125 328.456054688 375.986328125 328.456054688 326.122070312 c 0,8,9
 328.456054688 296.596679688 328.456054688 296.596679688 337.641601562 263.13671875 c 0,10,11
 352.076171875 214.583984375 352.076171875 214.583984375 385.537109375 182.436523438 c 0,12,13
 422.278320312 148.3203125 422.278320312 148.3203125 465.581054688 148.3203125 c 0,14,15
 506.915039062 148.3203125 506.915039062 148.3203125 541.688476562 177.84375 c 0,16,17
 573.836914062 203.430664062 573.836914062 203.430664062 588.927734375 249.358398438 c 0,18,19
 600.081054688 280.8515625 600.081054688 280.8515625 600.081054688 313.65625 c 0,20,21
 600.081054688 368.76953125 600.081054688 368.76953125 565.30859375 420.600585938 c 0,22,23
 556.778320312 433.72265625 556.778320312 433.72265625 564.651367188 448.15625 c 0,24,25
 572.525390625 461.278320312 572.525390625 461.278320312 586.958984375 461.278320312 c 2,26,-1
 928.788085938 461.278320312 l 2,27,28
 936.661132812 461.278320312 936.661132812 461.278320312 942.893554688 458.327148438 c 128,-1,29
 949.127929688 455.375 949.127929688 455.375 952.735351562 449.46875 c 128,-1,30
 956.34375 443.565429688 956.34375 443.565429688 956.34375 435.03515625 c 0,31,32
 956.34375 423.225585938 956.34375 423.225585938 948.798828125 415.6796875 c 128,-1,33
 941.25390625 408.134765625 941.25390625 408.134765625 928.788085938 408.134765625 c 2,34,-1
 632.23046875 408.134765625 l 1,35,36
 652.569335938 362.20703125 652.569335938 362.20703125 652.569335938 312.344726562 c 0,37,38
 652.569335938 272.978515625 652.569335938 272.978515625 638.791015625 231.643554688 c 0,39,40
 619.108398438 173.250976562 619.108398438 173.250976562 575.805664062 136.509765625 c 0,41,42
 527.91015625 95.8310546875 527.91015625 95.8310546875 465.581054688 95.8310546875 c 0,43,44
 399.970703125 95.8310546875 399.970703125 95.8310546875 348.139648438 143.7265625 c 0,45,46
 304.180664062 185.061523438 304.180664062 185.061523438 286.465820312 248.045898438 c 0,47,48
 274.65625 286.100585938 274.65625 286.100585938 274.65625 327.435546875 c 0,49,50
 274.65625 389.764648438 274.65625 389.764648438 302.869140625 446.844726562 c 0,51,52
 311.397460938 463.248046875 311.397460938 463.248046875 327.799804688 461.278320312 c 0,0,1
EndSplineSet
Validated: 524289
EndChar

StartChar: uni0924
Encoding: 2340 2340 32
Width: 971
VWidth: 760
Flags: W
LayerCount: 2
Fore
SplineSet
406.573242188 426.477539062 m 2,0,1
 462.33984375 426.477539062 462.33984375 426.477539062 483.3359375 422.541015625 c 0,2,3
 506.955078125 416.635742188 506.955078125 416.635742188 532.54296875 396.296875 c 0,4,5
 570.59765625 366.116210938 570.59765625 366.116210938 595.529296875 276.88671875 c 0,6,7
 615.211914062 204.059570312 615.211914062 204.059570312 638.831054688 184.375976562 c 0,8,9
 679.509765625 148.291015625 679.509765625 148.291015625 724.125 148.291015625 c 0,10,11
 731.998046875 148.291015625 731.998046875 148.291015625 735.935546875 148.947265625 c 2,12,-1
 736.590820312 148.947265625 l 1,13,14
 832.380859375 160.100585938 832.380859375 160.100585938 863.875 228.3359375 c 0,15,16
 872.40234375 246.048828125 872.40234375 246.048828125 872.40234375 269.013671875 c 0,17,18
 872.40234375 269.668945312 872.40234375 269.668945312 872.731445312 278.526367188 c 128,-1,19
 873.059570312 287.383789062 873.059570312 287.383789062 873.059570312 287.383789062 c 1,20,21
 868.465820312 318.876953125 868.465820312 318.876953125 850.095703125 341.18359375 c 0,22,23
 827.1328125 367.428710938 827.1328125 367.428710938 789.079101562 367.428710938 c 0,24,25
 775.95703125 367.428710938 775.95703125 367.428710938 758.2421875 364.147460938 c 0,26,27
 739.872070312 359.555664062 739.872070312 359.555664062 726.75 336.591796875 c 1,28,-1
 726.092773438 335.934570312 l 1,29,-1
 726.092773438 335.279296875 l 1,30,31
 723.469726562 331.34375 723.469726562 331.34375 723.469726562 320.189453125 c 0,32,33
 723.469726562 316.251953125 723.469726562 316.251953125 722.8125 310.348632812 c 128,-1,34
 722.15625 304.443359375 722.15625 304.443359375 722.15625 303.129882812 c 2,35,-1
 722.15625 293.9453125 l 1,36,-1
 712.970703125 293.9453125 l 1,37,-1
 675.573242188 293.9453125 l 1,38,-1
 666.388671875 293.9453125 l 1,39,-1
 666.388671875 303.129882812 l 1,40,-1
 666.388671875 324.125976562 l 2,41,42
 666.388671875 345.77734375 666.388671875 345.77734375 678.198242188 364.803710938 c 0,43,44
 703.78515625 409.418945312 703.78515625 409.418945312 745.776367188 418.603515625 c 0,45,46
 773.98828125 424.509765625 773.98828125 424.509765625 791.702148438 424.509765625 c 0,47,48
 854.033203125 424.509765625 854.033203125 424.509765625 893.3984375 378.58203125 c 0,49,50
 900.615234375 370.052734375 900.615234375 370.052734375 906.520507812 360.2109375 c 128,-1,51
 912.426757812 350.370117188 912.426757812 350.370117188 917.017578125 339.87109375 c 128,-1,52
 921.611328125 329.375 921.611328125 329.375 924.563476562 317.892578125 c 128,-1,53
 927.515625 306.411132812 927.515625 306.411132812 929.484375 293.9453125 c 0,54,55
 930.795898438 278.854492188 930.795898438 278.854492188 930.795898438 271.637695312 c 0,56,57
 930.795898438 253.922851562 930.795898438 253.922851562 926.859375 237.192382812 c 128,-1,58
 922.922851562 220.461914062 922.922851562 220.461914062 915.70703125 204.71484375 c 0,59,60
 869.779296875 106.299804688 869.779296875 106.299804688 742.495117188 92.5224609375 c 1,61,62
 742.495117188 92.5224609375 742.495117188 92.5224609375 722.15625 92.5224609375 c 0,63,64
 657.203125 92.5224609375 657.203125 92.5224609375 601.434570312 141.73046875 c 0,65,66
 566.004882812 173.22265625 566.004882812 173.22265625 541.072265625 262.452148438 c 0,67,68
 522.045898438 331.999023438 522.045898438 331.999023438 497.114257812 352.336914062 c 0,69,70
 483.3359375 363.4921875 483.3359375 363.4921875 470.870117188 367.428710938 c 0,71,72
 458.403320312 370.052734375 458.403320312 370.052734375 406.573242188 370.052734375 c 2,73,-1
 252.388671875 370.052734375 l 1,74,-1
 243.204101562 370.052734375 l 1,75,-1
 243.204101562 379.23828125 l 1,76,-1
 243.204101562 417.291992188 l 1,77,-1
 243.204101562 426.477539062 l 1,78,-1
 252.388671875 426.477539062 l 1,79,-1
 406.573242188 426.477539062 l 2,0,1
EndSplineSet
Validated: 524289
EndChar

StartChar: uni0925
Encoding: 2341 2341 33
Width: 1162
VWidth: 807
Flags: W
LayerCount: 2
Fore
SplineSet
502.889648438 161.4921875 m 2,0,1
 498.296875 160.8359375 498.296875 160.8359375 494.360351562 161.4921875 c 0,2,3
 493.704101562 161.4921875 493.704101562 161.4921875 493.704101562 161.4921875 c 2,4,5
 476.645507812 161.4921875 476.645507812 161.4921875 462.8671875 168.708007812 c 0,6,7
 443.18359375 177.89453125 443.18359375 177.89453125 430.71875 201.513671875 c 0,8,9
 419.565429688 222.509765625 419.565429688 222.509765625 419.565429688 240.879882812 c 0,10,11
 419.565429688 307.145507812 419.565429688 307.145507812 447.120117188 364.2265625 c 0,12,13
 454.338867188 380.62890625 454.338867188 380.62890625 474.676757812 416.05859375 c 0,14,15
 496.328125 454.112304688 496.328125 454.112304688 500.920898438 464.610351562 c 0,16,17
 516.01171875 502.0078125 516.01171875 502.0078125 516.01171875 536.78125 c 0,18,19
 516.01171875 574.178710938 516.01171875 574.178710938 492.391601562 595.173828125 c 0,20,21
 473.364257812 612.888671875 473.364257812 612.888671875 442.528320312 612.888671875 c 0,22,23
 413.659179688 612.888671875 413.659179688 612.888671875 388.072265625 593.862304688 c 0,24,25
 361.828125 573.522460938 361.828125 573.522460938 346.73828125 535.469726562 c 1,26,27
 350.674804688 535.469726562 350.674804688 535.469726562 358.547851562 535.469726562 c 0,28,29
 385.447265625 535.469726562 385.447265625 535.469726562 407.098632812 507.256835938 c 0,30,31
 425.469726562 485.604492188 425.469726562 485.604492188 425.469726562 459.360351562 c 0,32,33
 425.469726562 431.8046875 425.469726562 431.8046875 416.284179688 414.08984375 c 0,34,35
 403.162109375 388.501953125 403.162109375 388.501953125 376.91796875 381.28515625 c 0,36,37
 367.732421875 378.004882812 367.732421875 378.004882812 358.547851562 378.004882812 c 2,38,-1
 357.234375 378.004882812 l 1,39,-1
 325.0859375 387.846679688 l 1,40,-1
 324.430664062 388.501953125 l 1,41,42
 302.123046875 402.280273438 302.123046875 402.280273438 292.28125 425.244140625 c 0,43,44
 283.751953125 445.583984375 283.751953125 445.583984375 283.751953125 468.546875 c 0,45,46
 283.751953125 479.044921875 283.751953125 479.044921875 289.000976562 508.568359375 c 1,47,-1
 289.000976562 509.224609375 l 1,48,49
 308.68359375 589.924804688 308.68359375 589.924804688 360.515625 629.947265625 c 0,50,51
 399.881835938 660.126953125 399.881835938 660.126953125 441.216796875 660.126953125 c 0,52,53
 491.735351562 660.126953125 491.735351562 660.126953125 523.884765625 629.291992188 c 0,54,55
 563.25 593.20703125 563.25 593.20703125 563.25 537.4375 c 0,56,57
 563.25 494.791015625 563.25 494.791015625 542.912109375 446.239257812 c 0,58,59
 535.6953125 429.181640625 535.6953125 429.181640625 516.01171875 393.750976562 c 0,60,61
 490.423828125 347.168945312 490.423828125 347.168945312 489.111328125 343.887695312 c 2,62,-1
 489.111328125 343.231445312 l 1,63,64
 466.147460938 297.9609375 466.147460938 297.9609375 466.147460938 244.16015625 c 0,65,66
 466.147460938 234.974609375 466.147460938 234.974609375 472.052734375 223.165039062 c 1,67,-1
 472.052734375 222.509765625 l 1,68,69
 475.989257812 214.635742188 475.989257812 214.635742188 483.20703125 210.69921875 c 0,70,71
 491.735351562 207.419921875 491.735351562 207.419921875 497.639648438 208.075195312 c 0,72,73
 504.857421875 208.73046875 504.857421875 208.73046875 513.387695312 214.635742188 c 0,74,75
 527.165039062 225.1328125 527.165039062 225.1328125 539.631835938 250.720703125 c 0,76,77
 540.943359375 252.689453125 540.943359375 252.689453125 542.254882812 255.641601562 c 128,-1,78
 543.567382812 258.594726562 543.567382812 258.594726562 545.864257812 264.171875 c 128,-1,79
 548.16015625 269.748046875 548.16015625 269.748046875 550.127929688 274.33984375 c 0,80,81
 552.75390625 280.90234375 552.75390625 280.90234375 556.690429688 289.759765625 c 128,-1,82
 560.626953125 298.616210938 560.626953125 298.616210938 561.938476562 300.584960938 c 2,83,-1
 561.938476562 301.2421875 l 1,84,-1
 561.938476562 301.897460938 l 1,85,86
 579.65234375 337.982421875 579.65234375 337.982421875 605.2421875 355.041015625 c 0,87,88
 628.860351562 369.475585938 628.860351562 369.475585938 654.44921875 369.475585938 c 0,89,90
 670.1953125 369.475585938 670.1953125 369.475585938 687.25390625 363.571289062 c 0,91,92
 714.809570312 354.384765625 714.809570312 354.384765625 731.868164062 336.013671875 c 0,93,94
 733.836914062 334.045898438 733.836914062 334.045898438 735.8046875 330.765625 c 1,95,96
 750.239257812 334.045898438 750.239257812 334.045898438 759.424804688 334.045898438 c 0,97,98
 807.975585938 334.045898438 807.975585938 334.045898438 838.15625 315.01953125 c 0,99,100
 865.056640625 296.647460938 865.056640625 296.647460938 878.178710938 271.060546875 c 0,101,102
 892.612304688 243.504882812 892.612304688 243.504882812 892.612304688 212.01171875 c 0,103,104
 892.612304688 196.265625 892.612304688 196.265625 888.676757812 183.799804688 c 1,105,-1
 1122.24804688 183.799804688 l 1,106,-1
 1122.24804688 137.873046875 l 1,107,-1
 826.34765625 137.873046875 l 2,108,109
 816.505859375 137.873046875 816.505859375 137.873046875 810.2734375 144.76171875 c 128,-1,110
 804.0390625 151.650390625 804.0390625 151.650390625 804.0390625 161.4921875 c 128,-1,111
 804.0390625 171.333007812 804.0390625 171.333007812 810.2734375 177.56640625 c 128,-1,112
 816.505859375 183.799804688 816.505859375 183.799804688 826.34765625 183.799804688 c 0,113,114
 834.219726562 183.799804688 834.219726562 183.799804688 839.469726562 189.047851562 c 0,115,116
 846.029296875 195.609375 846.029296875 195.609375 846.685546875 198.889648438 c 2,117,118
 846.685546875 198.889648438 846.685546875 198.889648438 847.013671875 199.545898438 c 128,-1,119
 847.341796875 200.202148438 847.341796875 200.202148438 847.013671875 201.186523438 c 128,-1,120
 846.685546875 202.169921875 846.685546875 202.169921875 846.685546875 203.154296875 c 128,-1,121
 846.685546875 204.137695312 846.685546875 204.137695312 846.685546875 205.450195312 c 128,-1,122
 846.685546875 206.762695312 846.685546875 206.762695312 846.685546875 208.73046875 c 128,-1,123
 846.685546875 210.69921875 846.685546875 210.69921875 846.685546875 212.666992188 c 0,124,125
 846.685546875 233.663085938 846.685546875 233.663085938 837.500976562 249.408203125 c 0,126,127
 828.315429688 267.124023438 828.315429688 267.124023438 812.568359375 276.965820312 c 0,128,129
 795.509765625 288.119140625 795.509765625 288.119140625 762.048828125 288.119140625 c 0,130,131
 760.080078125 288.119140625 760.080078125 288.119140625 756.80078125 287.462890625 c 1,132,133
 762.048828125 269.748046875 762.048828125 269.748046875 762.048828125 249.408203125 c 0,134,135
 762.048828125 223.165039062 762.048828125 223.165039062 752.864257812 198.233398438 c 0,136,137
 744.990234375 174.614257812 744.990234375 174.614257812 734.493164062 164.116210938 c 0,138,139
 722.68359375 152.305664062 722.68359375 152.305664062 714.809570312 149.025390625 c 1,140,-1
 714.153320312 149.025390625 l 1,141,142
 701.032226562 143.77734375 701.032226562 143.77734375 690.534179688 143.77734375 c 0,143,144
 677.412109375 143.77734375 677.412109375 143.77734375 664.946289062 152.962890625 c 0,145,146
 653.79296875 160.1796875 653.79296875 160.1796875 647.887695312 169.364257812 c 0,147,148
 636.733398438 186.423828125 636.733398438 186.423828125 636.733398438 208.075195312 c 0,149,150
 636.733398438 237.598632812 636.733398438 237.598632812 649.856445312 263.1875 c 256,151,152
 662.978515625 288.775390625 662.978515625 288.775390625 685.28515625 305.177734375 c 1,153,-1
 685.28515625 305.177734375 l 1,154,155
 687.91015625 306.490234375 687.91015625 306.490234375 691.190429688 309.114257812 c 1,156,157
 682.66015625 316.987304688 682.66015625 316.987304688 672.163085938 320.267578125 c 0,158,159
 664.290039062 323.548828125 664.290039062 323.548828125 655.104492188 323.548828125 c 0,160,161
 641.327148438 323.548828125 641.327148438 323.548828125 630.829101562 316.331054688 c 1,162,-1
 630.172851562 316.331054688 l 1,163,-1
 630.172851562 315.67578125 l 1,164,165
 615.083007812 306.490234375 615.083007812 306.490234375 603.928710938 281.55859375 c 0,166,167
 599.3359375 272.372070312 599.3359375 272.372070312 593.431640625 257.938476562 c 1,168,-1
 593.431640625 257.282226562 l 2,169,170
 591.462890625 253.345703125 591.462890625 253.345703125 581.622070312 231.038085938 c 0,171,172
 564.5625 193.639648438 564.5625 193.639648438 540.287109375 176.58203125 c 0,173,174
 523.229492188 164.772460938 523.229492188 164.772460938 507.482421875 162.1484375 c 2,175,-1
 502.889648438 161.4921875 l 2,0,1
349.362304688 489.541992188 m 2,176,177
 342.801757812 488.23046875 342.801757812 488.23046875 337.552734375 483.635742188 c 0,178,179
 330.991210938 478.388671875 330.991210938 478.388671875 330.991210938 467.234375 c 0,180,181
 330.991210938 452.143554688 330.991210938 452.143554688 334.272460938 444.270507812 c 0,182,183
 338.864257812 433.7734375 338.864257812 433.7734375 348.049804688 428.524414062 c 0,184,185
 356.579101562 423.931640625 356.579101562 423.931640625 363.139648438 425.244140625 c 0,186,187
 370.357421875 428.524414062 370.357421875 428.524414062 374.950195312 436.397460938 c 1,188,-1
 374.950195312 436.397460938 l 1,189,190
 378.88671875 442.958984375 378.88671875 442.958984375 378.88671875 457.392578125 c 0,191,192
 378.88671875 468.546875 378.88671875 468.546875 370.357421875 479.700195312 c 0,193,194
 363.139648438 489.541992188 363.139648438 489.541992188 355.266601562 489.541992188 c 2,195,-1
 349.362304688 489.541992188 l 2,176,177
714.153320312 268.436523438 m 1,196,197
 699.719726562 256.626953125 699.719726562 256.626953125 691.190429688 241.536132812 c 0,198,199
 683.31640625 225.7890625 683.31640625 225.7890625 683.31640625 209.387695312 c 0,200,201
 683.31640625 200.202148438 683.31640625 200.202148438 687.25390625 194.953125 c 0,202,203
 688.565429688 192.984375 688.565429688 192.984375 689.221679688 192.328125 c 2,204,-1
 690.534179688 191.016601562 l 2,205,206
 691.190429688 191.016601562 691.190429688 191.016601562 692.501953125 190.360351562 c 2,207,208
 692.501953125 190.360351562 692.501953125 190.360351562 696.439453125 191.671875 c 0,209,210
 698.408203125 192.328125 698.408203125 192.328125 701.032226562 194.296875 c 0,211,212
 704.967773438 198.889648438 704.967773438 198.889648438 708.904296875 212.666992188 c 1,213,-1
 708.904296875 213.323242188 l 1,214,215
 715.465820312 230.3828125 715.465820312 230.3828125 715.465820312 250.720703125 c 0,216,217
 715.465820312 260.5625 715.465820312 260.5625 714.153320312 268.436523438 c 1,196,197
EndSplineSet
Validated: 524289
EndChar

StartChar: uni0926
Encoding: 2342 2342 34
Width: 1105
VWidth: 759
Flags: W
LayerCount: 2
Fore
SplineSet
410.809570312 99.052734375 m 2,0,1
 404.903320312 99.052734375 404.903320312 99.052734375 400.966796875 96.427734375 c 256,2,3
 397.030273438 93.8037109375 397.030273438 93.8037109375 397.030273438 90.5224609375 c 0,4,5
 397.030273438 54.4365234375 397.030273438 54.4365234375 459.360351562 28.193359375 c 0,6,7
 523.001953125 1.2939453125 523.001953125 1.2939453125 614.19921875 1.2939453125 c 0,8,9
 690.962890625 1.2939453125 690.962890625 1.2939453125 749.35546875 29.505859375 c 0,10,11
 803.8125 55.091796875 803.8125 55.091796875 832.681640625 99.052734375 c 1,12,-1
 410.809570312 99.052734375 l 2,0,1
266.466796875 191.561523438 m 1,13,-1
 266.466796875 545.200195312 l 1,14,-1
 266.466796875 547.166992188 l 1,15,-1
 266.466796875 549.135742188 l 1,16,-1
 268.435546875 549.135742188 l 1,17,-1
 270.403320312 549.135742188 l 1,18,-1
 315.674804688 549.135742188 l 1,19,-1
 317.642578125 549.135742188 l 1,20,-1
 319.610351562 549.135742188 l 1,21,-1
 319.610351562 547.166992188 l 1,22,-1
 319.610351562 545.200195312 l 1,23,-1
 319.610351562 230.272460938 l 1,24,-1
 566.3046875 230.272460938 l 1,25,-1
 566.3046875 456.626953125 l 2,26,27
 566.3046875 498.616210938 566.3046875 498.616210938 595.500976562 527.8125 c 128,-1,28
 624.697265625 557.009765625 624.697265625 557.009765625 668 557.009765625 c 0,29,30
 696.868164062 557.009765625 696.868164062 557.009765625 717.20703125 545.200195312 c 0,31,32
 734.266601562 535.358398438 734.266601562 535.358398438 742.794921875 517.643554688 c 1,33,34
 755.26171875 535.358398438 755.26171875 535.358398438 776.256835938 545.85546875 c 0,35,36
 799.219726562 557.009765625 799.219726562 557.009765625 830.712890625 557.009765625 c 0,37,38
 886.482421875 557.009765625 886.482421875 557.009765625 925.190429688 497.959960938 c 0,39,40
 962.587890625 440.223632812 962.587890625 440.223632812 962.587890625 347.056640625 c 0,41,42
 962.587890625 281.447265625 962.587890625 281.447265625 948.810546875 232.239257812 c 0,43,44
 936.344726562 186.3125 936.344726562 186.3125 912.725585938 141.69921875 c 1,45,-1
 1016.38964844 141.69921875 l 1,46,-1
 1016.38964844 545.200195312 l 1,47,-1
 1016.38964844 547.166992188 l 1,48,-1
 1016.38964844 549.135742188 l 1,49,-1
 1018.35742188 549.135742188 l 1,50,-1
 1020.32519531 549.135742188 l 1,51,-1
 1065.59667969 549.135742188 l 1,52,-1
 1067.56445312 549.135742188 l 1,53,-1
 1069.53320312 549.135742188 l 1,54,-1
 1069.53320312 547.166992188 l 1,55,-1
 1069.53320312 545.200195312 l 1,56,-1
 1069.53320312 102.98828125 l 1,57,-1
 1069.53320312 101.01953125 l 1,58,-1
 1069.53320312 99.052734375 l 1,59,-1
 1067.56445312 99.052734375 l 1,60,-1
 1065.59667969 99.052734375 l 1,61,-1
 890.41796875 99.052734375 l 1,62,63
 851.051757812 34.09765625 851.051757812 34.09765625 778.880859375 -3.2998046875 c 0,64,65
 704.7421875 -42.009765625 704.7421875 -42.009765625 614.19921875 -42.009765625 c 0,66,67
 506.598632812 -42.009765625 506.598632812 -42.009765625 425.899414062 -3.9560546875 c 0,68,69
 345.19921875 34.75390625 345.19921875 34.75390625 345.19921875 90.5224609375 c 0,70,71
 345.19921875 113.486328125 345.19921875 113.486328125 364.881835938 127.592773438 c 128,-1,72
 384.565429688 141.69921875 384.565429688 141.69921875 410.809570312 141.69921875 c 2,73,-1
 858.924804688 141.69921875 l 1,74,75
 885.825195312 190.90625 885.825195312 190.90625 897.635742188 234.208984375 c 0,76,77
 910.7578125 282.760742188 910.7578125 282.760742188 910.7578125 347.056640625 c 0,78,79
 910.7578125 421.853515625 910.7578125 421.853515625 886.809570312 463.84375 c 128,-1,80
 862.862304688 505.833984375 862.862304688 505.833984375 830.712890625 505.833984375 c 0,81,82
 804.469726562 505.833984375 804.469726562 505.833984375 786.09765625 492.055664062 c 0,83,84
 768.383789062 478.93359375 768.383789062 478.93359375 768.383789062 456.626953125 c 2,85,-1
 768.383789062 191.561523438 l 1,86,-1
 768.383789062 189.59375 l 1,87,-1
 768.383789062 187.625 l 1,88,-1
 766.415039062 187.625 l 1,89,-1
 764.447265625 187.625 l 1,90,-1
 719.831054688 187.625 l 1,91,-1
 717.864257812 187.625 l 1,92,-1
 715.895507812 187.625 l 1,93,-1
 715.895507812 189.59375 l 1,94,-1
 715.895507812 191.561523438 l 1,95,-1
 715.895507812 456.626953125 l 2,96,97
 715.895507812 481.557617188 715.895507812 481.557617188 702.1171875 497.959960938 c 256,98,99
 688.33984375 514.362304688 688.33984375 514.362304688 668 514.362304688 c 0,100,101
 646.34765625 514.362304688 646.34765625 514.362304688 632.571289062 497.959960938 c 0,102,103
 618.135742188 479.58984375 618.135742188 479.58984375 618.135742188 456.626953125 c 2,104,-1
 618.135742188 191.561523438 l 1,105,-1
 618.135742188 189.59375 l 1,106,-1
 618.135742188 187.625 l 1,107,-1
 616.168945312 187.625 l 1,108,-1
 614.19921875 187.625 l 1,109,-1
 270.403320312 187.625 l 1,110,-1
 268.435546875 187.625 l 1,111,-1
 266.466796875 187.625 l 1,112,-1
 266.466796875 189.59375 l 1,113,-1
 266.466796875 191.561523438 l 1,13,-1
EndSplineSet
Validated: 524289
EndChar

